<svg xmlns="http://www.w3.org/2000/svg" xmlns:xlink="http://www.w3.org/1999/xlink" width="72" height="75.196" viewBox="0 0 72 75.196">
  <defs>
    <radialGradient id="radial-gradient" cx="0.707" cy="0.225" r="0.5" gradientUnits="objectBoundingBox">
      <stop offset="0" stop-color="#fcfdff"/>
      <stop offset="1" stop-color="#add8fa"/>
    </radialGradient>
    <filter id="Sustracción_8" x="0" y="20" width="69.687" height="55.196" filterUnits="userSpaceOnUse">
      <feOffset dy="3" input="SourceAlpha"/>
      <feGaussianBlur stdDeviation="3" result="blur"/>
      <feFlood flood-opacity="0.161"/>
      <feComposite operator="in" in2="blur"/>
      <feComposite in="SourceGraphic"/>
    </filter>
    <clipPath id="clip-path">
      <rect id="Rectángulo_327330" data-name="Rectángulo 327330" width="30.306" height="37.741" fill="#03386e"/>
    </clipPath>
  </defs>
  <g id="Grupo_885340" data-name="Grupo 885340" transform="translate(-801.399 -4695.7)">
    <g id="Grupo_876275" data-name="Grupo 876275" transform="translate(525.399 -2624.3)">
      <path id="Trazado_615224" data-name="Trazado 615224" d="M31.5,0A31.5,31.5,0,1,1,0,31.5,31.5,31.5,0,0,1,31.5,0Z" transform="translate(285 7320)" fill="url(#radial-gradient)"/>
      <g transform="matrix(1, 0, 0, 1, 276, 7320)" filter="url(#Sustracción_8)">
        <path id="Sustracción_8-2" data-name="Sustracción 8" d="M8407.5,11782a31.476,31.476,0,0,1-31.5-31.5,31.842,31.842,0,0,1,.514-5.7,38.533,38.533,0,0,0,51.173,29.878A31.38,31.38,0,0,1,8407.5,11782Z" transform="translate(-8367 -11718.8)" fill="#80c7ff"/>
      </g>
    </g>
    <g id="Grupo_876286" data-name="Grupo 876286" transform="translate(826.825 4705.649)">
      <g id="Grupo_876286-2" data-name="Grupo 876286" clip-path="url(#clip-path)">
        <path id="Trazado_615267" data-name="Trazado 615267" d="M1.964,257.348c-.1-.034-.207-.069-.312-.1a2.252,2.252,0,0,1-1.616-2.027c-.042-.967-.054-1.94,0-2.906A3.522,3.522,0,0,1,2.2,249.183c.065-.032.133-.059.244-.109a3.231,3.231,0,0,1-.876-2.98A3.079,3.079,0,0,1,2.8,244.2a3.2,3.2,0,0,1,4.144.3,3.256,3.256,0,0,1,.015,4.573c.135.065.266.121.391.189a3.494,3.494,0,0,1,1.989,2.977c.061.953.048,1.914.015,2.87a2.256,2.256,0,0,1-1.768,2.172,1.577,1.577,0,0,0-.169.067Zm2.729-1.105c.773,0,1.545.006,2.318,0a1.179,1.179,0,0,0,1.241-1.184c.023-.907.037-1.816-.013-2.721a2.493,2.493,0,0,0-2.5-2.353c-.662-.009-1.325,0-1.987,0a2.525,2.525,0,0,0-2.626,2.543c-.024.821-.017,1.643,0,2.465a1.2,1.2,0,0,0,1.289,1.253c.76.005,1.521,0,2.281,0m-.005-11.564a2.1,2.1,0,1,0,2.1,2.114,2.1,2.1,0,0,0-2.1-2.114" transform="translate(0 -219.607)" fill="#03386e"/>
        <path id="Trazado_615268" data-name="Trazado 615268" d="M108.293,257.349c-.1-.034-.208-.069-.312-.1a2.252,2.252,0,0,1-1.616-2.027c-.042-.967-.054-1.94,0-2.906a3.522,3.522,0,0,1,2.161-3.129c.055-.027.112-.049.167-.075.01,0,.018-.016.058-.055a3.215,3.215,0,0,1-.857-2.959,3.079,3.079,0,0,1,1.235-1.9,3.2,3.2,0,0,1,4.144.3,3.256,3.256,0,0,1,.015,4.573c.135.065.266.121.391.189a3.494,3.494,0,0,1,1.989,2.977c.061.953.048,1.914.015,2.87a2.256,2.256,0,0,1-1.768,2.172,1.563,1.563,0,0,0-.169.067ZM111,256.243c.785,0,1.57.007,2.355,0a1.173,1.173,0,0,0,1.224-1.162c.026-.906.038-1.816-.009-2.721a2.5,2.5,0,0,0-2.521-2.374c-.65-.008-1.3,0-1.95,0a2.528,2.528,0,0,0-2.648,2.558c-.021.809-.015,1.619,0,2.428a1.205,1.205,0,0,0,1.306,1.274c.748,0,1.5,0,2.245,0m2.114-9.468a2.1,2.1,0,1,0-2.112,2.1,2.1,2.1,0,0,0,2.112-2.1" transform="translate(-95.866 -219.607)" fill="#03386e"/>
        <path id="Trazado_615269" data-name="Trazado 615269" d="M214.613,257.348c-.092-.03-.184-.063-.277-.091a2.262,2.262,0,0,1-1.654-2.075c-.039-.955-.051-1.916,0-2.87a3.524,3.524,0,0,1,2.161-3.129c.065-.032.133-.059.245-.109a3.231,3.231,0,0,1-.876-2.98,3.079,3.079,0,0,1,1.235-1.9,3.2,3.2,0,0,1,4.144.3,3.256,3.256,0,0,1,.015,4.573c.135.065.266.121.391.189a3.494,3.494,0,0,1,1.989,2.977c.061.953.048,1.914.015,2.87a2.255,2.255,0,0,1-1.768,2.172,1.569,1.569,0,0,0-.169.067h-1.621c-.221-.207-.412-.434-.279-.761s.431-.357.74-.346c.257.009.515.007.773,0a1.178,1.178,0,0,0,1.222-1.165c.025-.931.038-1.865-.016-2.794a2.477,2.477,0,0,0-2.4-2.295q-1.139-.032-2.281,0a2.479,2.479,0,0,0-2.4,2.3c-.054.929-.04,1.863-.016,2.794A1.176,1.176,0,0,0,215,256.241c.368.008.736.01,1.1,0,.318-.009.6.048.71.388a.585.585,0,0,1-.359.719Zm4.821-10.568a2.1,2.1,0,1,0-2.117,2.1,2.1,2.1,0,0,0,2.117-2.1" transform="translate(-191.724 -219.607)" fill="#03386e"/>
        <path id="Trazado_615270" data-name="Trazado 615270" d="M59.391,20.14a11.183,11.183,0,0,0-.162-1.663A1.986,1.986,0,0,0,57.293,17c-.772-.028-1.547,0-2.32-.012-.208,0-.292.072-.276.278a3.519,3.519,0,0,1,0,.4,1.862,1.862,0,0,1-.035.4c-.193.72-.594,1.141-1.945,1.057a1.293,1.293,0,0,1-1.31-1.148c-.031-.313-.005-.631-.005-.929-1.065,0-2.073-.073-3.065.023a1.891,1.891,0,0,0-1.563,1.694,12.844,12.844,0,0,0-.008,1.37h1.154c.135,0,.271-.008.4.005a.542.542,0,0,1,.529.586.525.525,0,0,1-.563.51c-.479.011-.958,0-1.436,0H43.127c0,.364.005.691,0,1.018-.009.444-.2.677-.555.675s-.541-.234-.547-.682,0-.908,0-1.363c0-.572.183-.751.747-.752.931,0,1.862,0,2.85,0,0-.3,0-.577,0-.854a3.228,3.228,0,0,1,3.4-3.4c.77,0,1.541,0,2.358,0,0-.318.017-.6-.01-.873a.371.371,0,0,0-.209-.245,5.558,5.558,0,0,1-3.287-3.275.415.415,0,0,0-.309-.2,1.485,1.485,0,0,1-1.053-.457,2.718,2.718,0,0,1-.731-2.543,1.7,1.7,0,0,1,.872-1.163,16.659,16.659,0,0,1-.038-2.389A4.681,4.681,0,0,1,50.848.222,10.735,10.735,0,0,1,56.2.474a6.075,6.075,0,0,1,1,.451.534.534,0,0,1,.268.77.556.556,0,0,1-.795.191,8.864,8.864,0,0,0-6.286-.407c-1.677.436-2.552,1.585-2.716,3.677a6.319,6.319,0,0,0,.077,1.282c.067.527.1.541.661,1.081.047-.5.1-.975.134-1.449A3.232,3.232,0,0,1,49.3,4.116a1.266,1.266,0,0,1,2.084-.042A5.456,5.456,0,0,0,53.48,5.4c.41.163.825.314,1.235.475a5.375,5.375,0,0,1,2.8,1.94c.215-.254.423-.485.61-.73a.894.894,0,0,0,.136-.332,5.307,5.307,0,0,0-.206-3.216,1.827,1.827,0,0,1-.065-.172.55.55,0,0,1,.342-.715.5.5,0,0,1,.677.333A15.008,15.008,0,0,1,59.5,5.193a6.6,6.6,0,0,1-.121,1.57.4.4,0,0,0,.192.478,1.679,1.679,0,0,1,.765,1.245,2.771,2.771,0,0,1-.41,1.9,1.626,1.626,0,0,1-1.636.889l-.166.395a5.342,5.342,0,0,1-3.017,3.007c-.336.135-.458.3-.414.642a4.643,4.643,0,0,1,0,.548c.159.007.289.018.42.018.675,0,1.351-.006,2.026,0a3.216,3.216,0,0,1,3.311,3.264c.009.316,0,.632,0,.989h2.458c1.1,0,1.141.036,1.141,1.134v.479c0,.932-.123,1.191-.562,1.185s-.543-.254-.544-1.166c0-.158,0-.316,0-.5H53.593c0,.2-.008.407,0,.61.037.757-.067,1.027-.546,1.047-.351.015-.619-.117-.562-1.064.012-.193,0-.388,0-.619-.579,0-1.116,0-1.653,0-.449,0-.683-.184-.693-.531s.24-.572.7-.573q4.015,0,8.029,0h.524M48.65,9.755c.027.258.032.431.063.6a4.388,4.388,0,0,0,8.709-.633.373.373,0,0,0-.237-.428.787.787,0,0,1-.358-.394,2.965,2.965,0,0,0-1.665-1.628c-.682-.3-1.383-.565-2.076-.842a6.131,6.131,0,0,1-2.509-1.615c-.173-.2-.3-.148-.442.022a2.288,2.288,0,0,0-.49,1.282c-.081.829-.172,1.658-.307,2.479a.989.989,0,0,1-.387.626c-.272.165-.352.337-.3.53m9.83.428a1.379,1.379,0,0,0,.777-1.347.729.729,0,0,0-.553-.791c-.312.684-.092,1.4-.224,2.138m-10.953-.019a6.081,6.081,0,0,0-.157-2.123.718.718,0,0,0-.551.774,1.419,1.419,0,0,0,.708,1.35m6.039,6.828c-.184,0-.33,0-.475,0-.662.015-.591-.133-.608.638-.007.307.121.4.415.4.705,0,.706.009.694-.7,0-.1-.014-.19-.025-.335m-.016-1.9h-1.04v.7h1.04Z" transform="translate(-37.884 0)" fill="#03386e"/>
      </g>
    </g>
  </g>
</svg>
