<svg xmlns="http://www.w3.org/2000/svg" xmlns:xlink="http://www.w3.org/1999/xlink" width="72" height="75.196" viewBox="0 0 72 75.196">
  <defs>
    <radialGradient id="radial-gradient" cx="0.707" cy="0.225" r="0.5" gradientUnits="objectBoundingBox">
      <stop offset="0" stop-color="#fcfdff"/>
      <stop offset="1" stop-color="#add8fa"/>
    </radialGradient>
    <filter id="Sustracción_8" x="0" y="20" width="69.687" height="55.196" filterUnits="userSpaceOnUse">
      <feOffset dy="3" input="SourceAlpha"/>
      <feGaussianBlur stdDeviation="3" result="blur"/>
      <feFlood flood-opacity="0.161"/>
      <feComposite operator="in" in2="blur"/>
      <feComposite in="SourceGraphic"/>
    </filter>
    <clipPath id="clip-path">
      <rect id="Rectángulo_327327" data-name="Rectángulo 327327" width="30.561" height="36.225" fill="#03386e"/>
    </clipPath>
  </defs>
  <g id="Grupo_885346" data-name="Grupo 885346" transform="translate(-170.5 -5079.7)">
    <g id="Grupo_876272" data-name="Grupo 876272" transform="translate(-105.5 -2240.3)">
      <path id="Trazado_615224" data-name="Trazado 615224" d="M31.5,0A31.5,31.5,0,1,1,0,31.5,31.5,31.5,0,0,1,31.5,0Z" transform="translate(285 7320)" fill="url(#radial-gradient)"/>
      <g transform="matrix(1, 0, 0, 1, 276, 7320)" filter="url(#Sustracción_8)">
        <path id="Sustracción_8-2" data-name="Sustracción 8" d="M8407.5,11782a31.476,31.476,0,0,1-31.5-31.5,31.842,31.842,0,0,1,.514-5.7,38.533,38.533,0,0,0,51.173,29.878A31.38,31.38,0,0,1,8407.5,11782Z" transform="translate(-8367 -11718.8)" fill="#80c7ff"/>
      </g>
    </g>
    <g id="Grupo_876283" data-name="Grupo 876283" transform="translate(196.119 5092.368)">
      <g id="Grupo_876283-2" data-name="Grupo 876283" clip-path="url(#clip-path)">
        <path id="Trazado_615254" data-name="Trazado 615254" d="M1.411,0H24.337a1.861,1.861,0,0,1,1.417,2.149V4.77a.733.733,0,0,0,.119.031l2.758,0A1.761,1.761,0,0,1,30.56,6.738q0,10.29,0,20.58a4.348,4.348,0,0,1-1.406,3.246c-1.52,1.446-3.04,2.893-4.59,4.306a6.4,6.4,0,0,1-1.408.92,8.783,8.783,0,0,1-1.291.436H6.223a1.861,1.861,0,0,1-1.417-2.149V31.42c-.994,0-1.935,0-2.877,0A1.761,1.761,0,0,1,0,29.488Q0,15.716,0,1.945a2.773,2.773,0,0,1,.032-.492A1.845,1.845,0,0,1,1.411,0M21.828,34.874v-.441c0-1.332-.009-2.664,0-4a2.382,2.382,0,0,1,2.521-2.5c1.4,0,2.806,0,4.209,0,.679,0,.68,0,.681-.685q0-10.221,0-20.441c0-.606-.106-.71-.728-.71H6.833c-.609,0-.722.113-.722.722q0,13.686,0,27.373c0,.622.093.714.72.714q7.162,0,14.324,0c.21,0,.419-.022.673-.036M4.806,30.094v-.464c0-7.616.013-15.232-.014-22.848a1.9,1.9,0,0,1,2-1.992c5.73.033,11.461.015,17.191.015h.466V4.4q0-1.149,0-2.3c0-.718-.068-.786-.791-.786H2.117a.964.964,0,0,0-.418.021.97.97,0,0,0-.363.367c-.056.1-.019.253-.019.383q0,13.617,0,27.234c0,.083,0,.165,0,.248.012.4.152.551.563.554.908.007,1.816,0,2.724,0a1.745,1.745,0,0,0,.2-.027m23.744-.763-.054-.091c-1.437,0-2.873-.014-4.31.007a1.068,1.068,0,0,0-1.048,1.115c-.008,1.25,0,2.5,0,3.749a2.272,2.272,0,0,0,.044.273l5.369-5.053" transform="translate(0)" fill="#03386e"/>
        <path id="Trazado_615255" data-name="Trazado 615255" d="M120.408,115.592q3.022,0,6.044,0a1.587,1.587,0,0,1,.452.052.639.639,0,0,1-.013,1.218,1.7,1.7,0,0,1-.453.048q-6.08,0-12.159,0a1.824,1.824,0,0,1-.351-.022.648.648,0,0,1,.013-1.282,2.245,2.245,0,0,1,.387-.017h6.08" transform="translate(-102.685 -104.688)" fill="#03386e"/>
        <path id="Trazado_615256" data-name="Trazado 615256" d="M120.339,209.455q-3.11,0-6.22,0c-.55,0-.905-.419-.7-.858a1.253,1.253,0,0,1,.508-.421c.088-.053.23-.019.348-.02H126.4c.627,0,.937.221.928.659s-.309.64-.913.64h-6.079" transform="translate(-102.667 -188.509)" fill="#03386e"/>
        <path id="Trazado_615257" data-name="Trazado 615257" d="M120.374,163.259h-6.008c-.118,0-.236,0-.353-.006a.651.651,0,0,1-.627-.64.659.659,0,0,1,.654-.652c.07,0,.141,0,.212,0H126.48a2.236,2.236,0,0,1,.318.008.651.651,0,0,1,.554.637.636.636,0,0,1-.546.639,2.683,2.683,0,0,1-.388.015h-6.044" transform="translate(-102.689 -146.679)" fill="#03386e"/>
        <path id="Trazado_615258" data-name="Trazado 615258" d="M117.54,255.708h-3.251a1.955,1.955,0,0,1-.352-.018.648.648,0,0,1-.009-1.282,1.856,1.856,0,0,1,.352-.021q3.251,0,6.5,0a1.594,1.594,0,0,1,.419.043.588.588,0,0,1,.461.594.6.6,0,0,1-.452.636,1.48,1.48,0,0,1-.418.046c-1.084,0-2.167,0-3.251,0" transform="translate(-102.684 -230.387)" fill="#03386e"/>
      </g>
    </g>
  </g>
</svg>
