<svg xmlns="http://www.w3.org/2000/svg" xmlns:xlink="http://www.w3.org/1999/xlink" width="72" height="75.196" viewBox="0 0 72 75.196">
  <defs>
    <radialGradient id="radial-gradient" cx="0.707" cy="0.225" r="0.5" gradientUnits="objectBoundingBox">
      <stop offset="0" stop-color="#fcfdff"/>
      <stop offset="1" stop-color="#add8fa"/>
    </radialGradient>
    <filter id="Sustracción_8" x="0" y="20" width="69.687" height="55.196" filterUnits="userSpaceOnUse">
      <feOffset dy="3" input="SourceAlpha"/>
      <feGaussianBlur stdDeviation="3" result="blur"/>
      <feFlood flood-opacity="0.161"/>
      <feComposite operator="in" in2="blur"/>
      <feComposite in="SourceGraphic"/>
    </filter>
    <clipPath id="clip-path">
      <rect id="Rectángulo_327325" data-name="Rectángulo 327325" width="37.808" height="37.813" fill="#03386e"/>
    </clipPath>
  </defs>
  <g id="Grupo_885344" data-name="Grupo 885344" transform="translate(-170.5 -4827.504)">
    <g id="Grupo_885342" data-name="Grupo 885342">
      <g id="Grupo_876270" data-name="Grupo 876270" transform="translate(-105.5 -2492.496)">
        <path id="Trazado_615224" data-name="Trazado 615224" d="M31.5,0A31.5,31.5,0,1,1,0,31.5,31.5,31.5,0,0,1,31.5,0Z" transform="translate(285 7320)" fill="url(#radial-gradient)"/>
        <g transform="matrix(1, 0, 0, 1, 276, 7320)" filter="url(#Sustracción_8)">
          <path id="Sustracción_8-2" data-name="Sustracción 8" d="M8407.5,11782a31.476,31.476,0,0,1-31.5-31.5,31.842,31.842,0,0,1,.514-5.7,38.533,38.533,0,0,0,51.173,29.878A31.38,31.38,0,0,1,8407.5,11782Z" transform="translate(-8367 -11718.8)" fill="#80c7ff"/>
        </g>
      </g>
      <g id="Grupo_876281" data-name="Grupo 876281" transform="translate(192.096 4838.842)">
        <g id="Grupo_876281-2" data-name="Grupo 876281" clip-path="url(#clip-path)">
          <path id="Trazado_615239" data-name="Trazado 615239" d="M142.983,135.888a1.067,1.067,0,0,1-.5.928.491.491,0,0,0-.256.483,1.008,1.008,0,0,0,.438,1.014.907.907,0,0,1,.186,1.212c-.261.478-.54.949-.845,1.4a1.044,1.044,0,0,1-1.376.37.508.508,0,0,0-.614.056c-.118.092-.28.131-.393.228a.645.645,0,0,0-.23.331,1.124,1.124,0,0,1-1.213,1.06c-.482,0-.965.009-1.447,0a1.07,1.07,0,0,1-1.11-.987.453.453,0,0,0-.313-.449c-.152-.057-.281-.182-.435-.23a.7.7,0,0,0-.433-.017,1.136,1.136,0,0,1-1.522-.451c-.259-.406-.511-.818-.746-1.238a1.023,1.023,0,0,1,.355-1.457.411.411,0,0,0,.232-.455c-.021-.149.021-.309-.009-.455a.615.615,0,0,0-.182-.355,1.077,1.077,0,0,1-.347-1.584c.237-.4.472-.812.73-1.2a1.067,1.067,0,0,1,1.429-.41.474.474,0,0,0,.58-.051,1.313,1.313,0,0,1,.366-.2.425.425,0,0,0,.3-.42,1.067,1.067,0,0,1,1.127-1.008q.743-.013,1.485,0a1.071,1.071,0,0,1,1.134,1,.429.429,0,0,0,.294.423,1.18,1.18,0,0,1,.333.182.524.524,0,0,0,.647.06.976.976,0,0,1,1.244.247c.382.533.694,1.117,1.025,1.686a.956.956,0,0,1,.072.295m-4.843,5.847a1.192,1.192,0,0,1,.886-1.235,1.949,1.949,0,0,0,.367-.2,1.293,1.293,0,0,1,1.659-.138l.643-1.069a1.173,1.173,0,0,1-.687-1.346,1.4,1.4,0,0,0,.008-.38,1.227,1.227,0,0,1,.687-1.492l-.65-1.071a1.266,1.266,0,0,1-1.625-.124,1.076,1.076,0,0,0-.3-.166,1.238,1.238,0,0,1-.974-1.274h-1.331a1.163,1.163,0,0,1-.862,1.224,1.509,1.509,0,0,0-.4.218,1.274,1.274,0,0,1-1.626.123l-.651,1.071a1.226,1.226,0,0,1,.682,1.495.814.814,0,0,0,0,.228,1.228,1.228,0,0,1-.684,1.493l.653,1.073a1.257,1.257,0,0,1,1.625.121,1,1,0,0,0,.265.149,1.268,1.268,0,0,1,1.007,1.3Z" transform="translate(-118.589 -118.576)" fill="#03386e"/>
          <path id="Trazado_615240" data-name="Trazado 615240" d="M280.931,138.038a4.879,4.879,0,1,1-4.889,4.9,4.884,4.884,0,0,1,4.889-4.9m-.006,8.537a3.659,3.659,0,1,0-3.663-3.654,3.67,3.67,0,0,0,3.663,3.654" transform="translate(-247.99 -124.01)" fill="#03386e"/>
          <path id="Trazado_615241" data-name="Trazado 615241" d="M142.921,276.077a4.879,4.879,0,1,1-4.9,4.887,4.884,4.884,0,0,1,4.9-4.887m3.638,4.881a3.658,3.658,0,1,0-3.659,3.657,3.663,3.663,0,0,0,3.659-3.657" transform="translate(-123.998 -248.022)" fill="#03386e"/>
          <path id="Trazado_615242" data-name="Trazado 615242" d="M138.02,4.847a4.878,4.878,0,1,1,4.8,4.909,4.884,4.884,0,0,1-4.8-4.909m8.535.048a3.658,3.658,0,1,0-3.675,3.641A3.662,3.662,0,0,0,146.555,4.9" transform="translate(-123.994 0)" fill="#03386e"/>
          <path id="Trazado_615243" data-name="Trazado 615243" d="M9.755,142.932a4.878,4.878,0,1,1-4.888-4.9,4.884,4.884,0,0,1,4.888,4.9m-1.22.011a3.658,3.658,0,1,0-3.685,3.631,3.662,3.662,0,0,0,3.685-3.631" transform="translate(0 -124.009)" fill="#03386e"/>
          <path id="Trazado_615244" data-name="Trazado 615244" d="M36.539,20.887l-.863-.658.72-.967c.118.085.228.16.334.24.67.5,1.342,1,2.008,1.51a.624.624,0,0,1,0,1.121c-.766.582-1.539,1.156-2.337,1.754l-.731-.967.918-.7a3.252,3.252,0,0,0-.337-.033,22.03,22.03,0,0,0-2.62.079,2.943,2.943,0,0,0-2.472,2.909c-.017,1.295,0,2.59-.005,3.885v.426H29.974a.564.564,0,0,1-.034-.135c0-1.435-.028-2.87.009-4.3a4.246,4.246,0,0,1,4.1-4.073c.821-.023,1.644,0,2.465,0l.028-.081" transform="translate(-26.888 -17.305)" fill="#03386e"/>
          <path id="Trazado_615245" data-name="Trazado 615245" d="M252.18,37.147V35.981c.032-.02.052-.044.073-.044,1.688,0,3.378-.047,5.064.01a4.229,4.229,0,0,1,3.987,4.061c.022.629,0,1.26.078,1.916l.67-.867.968.723L261.808,43.4c-.205.274-.4.557-.621.819a.58.58,0,0,1-.952.015c-.623-.8-1.221-1.615-1.847-2.447l.969-.73.661.866.132-.023a17.318,17.318,0,0,0-.218-2.575,2.891,2.891,0,0,0-2.839-2.171c-1.485-.016-2.97,0-4.455,0h-.458" transform="translate(-226.553 -32.268)" fill="#03386e"/>
          <path id="Trazado_615246" data-name="Trazado 615246" d="M259.855,252.24h1.22c0,.813.008,1.609,0,2.405a21.03,21.03,0,0,1-.076,2.507,4.193,4.193,0,0,1-4.092,3.6c-.8.018-1.6,0-2.525,0l.958.738-.728.97c-.839-.632-1.668-1.235-2.471-1.87a.575.575,0,0,1,.061-.95c.784-.6,1.58-1.188,2.408-1.808l.732.965-.86.659a22.363,22.363,0,0,0,2.994-.026,2.909,2.909,0,0,0,2.375-2.871c.02-1.294.006-2.589.007-3.884,0-.138,0-.275,0-.442" transform="translate(-226.315 -226.607)" fill="#03386e"/>
          <path id="Trazado_615247" data-name="Trazado 615247" d="M14.912,254.505l-.738.951-.969-.728c.63-.834,1.234-1.663,1.872-2.464a.575.575,0,0,1,.93.039c.615.789,1.207,1.6,1.83,2.426l-.967.731-.664-.867a5.978,5.978,0,0,0,.253,3.088,2.965,2.965,0,0,0,2.741,1.681c1.6.019,3.2,0,4.829,0v1.2c-.1.007-.211.02-.32.02-1.473,0-2.947.006-4.42,0a4.273,4.273,0,0,1-4.377-4.389c0-.527,0-1.055,0-1.691" transform="translate(-11.863 -226.432)" fill="#03386e"/>
          <path id="Trazado_615248" data-name="Trazado 615248" d="M164.476,166.92a2.439,2.439,0,1,1,2.427-2.46,2.445,2.445,0,0,1-2.427,2.46m1.206-2.435a1.218,1.218,0,1,0-1.213,1.213,1.223,1.223,0,0,0,1.213-1.213" transform="translate(-145.561 -145.575)" fill="#03386e"/>
          <rect id="Rectángulo_327316" data-name="Rectángulo 327316" width="1.17" height="1.186" transform="translate(31.129 18.312)" fill="#03386e"/>
          <rect id="Rectángulo_327317" data-name="Rectángulo 327317" width="1.177" height="1.17" transform="translate(33.564 18.318)" fill="#03386e"/>
          <rect id="Rectángulo_327318" data-name="Rectángulo 327318" width="1.179" height="1.172" transform="translate(18.311 31.132)" fill="#03386e"/>
          <rect id="Rectángulo_327319" data-name="Rectángulo 327319" width="1.168" height="1.186" transform="translate(17.097 33.563)" fill="#03386e"/>
          <rect id="Rectángulo_327320" data-name="Rectángulo 327320" width="1.164" height="1.184" transform="translate(19.538 33.552)" fill="#03386e"/>
          <rect id="Rectángulo_327321" data-name="Rectángulo 327321" width="1.177" height="1.17" transform="translate(18.319 4.29)" fill="#03386e"/>
          <rect id="Rectángulo_327322" data-name="Rectángulo 327322" width="1.173" height="1.175" transform="translate(3.067 17.095)" fill="#03386e"/>
          <rect id="Rectángulo_327323" data-name="Rectángulo 327323" width="1.186" height="1.168" transform="translate(5.502 17.099)" fill="#03386e"/>
          <rect id="Rectángulo_327324" data-name="Rectángulo 327324" width="1.174" height="1.173" transform="translate(3.075 19.534)" fill="#03386e"/>
          <path id="Trazado_615249" data-name="Trazado 615249" d="M55.461,192.279v1.166H54.269v-1.166Z" transform="translate(-48.754 -172.739)" fill="#03386e"/>
        </g>
      </g>
    </g>
  </g>
</svg>
