<svg xmlns="http://www.w3.org/2000/svg" xmlns:xlink="http://www.w3.org/1999/xlink" width="72" height="75.196" viewBox="0 0 72 75.196">
  <defs>
    <radialGradient id="radial-gradient" cx="0.707" cy="0.225" r="0.5" gradientUnits="objectBoundingBox">
      <stop offset="0" stop-color="#fcfdff"/>
      <stop offset="1" stop-color="#add8fa"/>
    </radialGradient>
    <filter id="Sustracción_8" x="0" y="20" width="69.687" height="55.196" filterUnits="userSpaceOnUse">
      <feOffset dy="3" input="SourceAlpha"/>
      <feGaussianBlur stdDeviation="3" result="blur"/>
      <feFlood flood-opacity="0.161"/>
      <feComposite operator="in" in2="blur"/>
      <feComposite in="SourceGraphic"/>
    </filter>
    <clipPath id="clip-path">
      <rect id="Rectángulo_327328" data-name="Rectángulo 327328" width="36.181" height="38.7" fill="#03386e"/>
    </clipPath>
  </defs>
  <g id="Grupo_885347" data-name="Grupo 885347" transform="translate(-170.5 -5214.573)">
    <g id="Grupo_876273" data-name="Grupo 876273" transform="translate(-105.5 -2105.427)">
      <path id="Trazado_615224" data-name="Trazado 615224" d="M31.5,0A31.5,31.5,0,1,1,0,31.5,31.5,31.5,0,0,1,31.5,0Z" transform="translate(285 7320)" fill="url(#radial-gradient)"/>
      <g transform="matrix(1, 0, 0, 1, 276, 7320)" filter="url(#Sustracción_8)">
        <path id="Sustracción_8-2" data-name="Sustracción 8" d="M8407.5,11782a31.476,31.476,0,0,1-31.5-31.5,31.842,31.842,0,0,1,.514-5.7,38.533,38.533,0,0,0,51.173,29.878A31.38,31.38,0,0,1,8407.5,11782Z" transform="translate(-8367 -11718.8)" fill="#80c7ff"/>
      </g>
    </g>
    <g id="Grupo_876284" data-name="Grupo 876284" transform="translate(192.522 5226.821)">
      <g id="Grupo_876284-2" data-name="Grupo 876284" clip-path="url(#clip-path)">
        <path id="Trazado_615259" data-name="Trazado 615259" d="M82.851,38.7A1.818,1.818,0,0,1,81.5,36.657a2.985,2.985,0,0,0-.021-.337c-.706,0-1.4.005-2.084,0a3.418,3.418,0,0,1-.75-.062A1.528,1.528,0,0,1,77.5,34.787c-.017-.363,0-.727,0-1.151-.145,0-.328.007-.51,0A1.5,1.5,0,0,1,75.513,32.2a2.641,2.641,0,0,1,.242-1.688c.041-.063,0-.2-.043-.293a2.645,2.645,0,0,1-.074-2.09c.125-.334.53-.564.808-.842.072-.072.2-.147.2-.221,0-.755.031-1.514-.042-2.263a3.188,3.188,0,0,0-1.232-2.177,12.707,12.707,0,0,1-3.32-4.113,12.209,12.209,0,0,1-1.175-7.919A12.571,12.571,0,0,1,78.754.9,11.346,11.346,0,0,1,82.112.077,3.224,3.224,0,0,0,82.473,0h1.738c.459.068.921.118,1.376.206a12.451,12.451,0,0,1,9.565,7.656,20.821,20.821,0,0,1,.9,3.3.559.559,0,0,1-.473.7.581.581,0,0,1-.637-.511,20.183,20.183,0,0,0-.658-2.589,11.3,11.3,0,0,0-9.052-7.454A11.432,11.432,0,0,0,72.587,8.662c-1.686,4.657-.679,8.808,2.729,12.386.025.026.061.043.048.034l5.123-1.994a.788.788,0,0,0,.217-1.195,4.306,4.306,0,0,1-1.343-2.225.483.483,0,0,0-.27-.3A1.868,1.868,0,0,1,77.952,12.5a.873.873,0,0,0,.077-.431,17.682,17.682,0,0,1,.23-2.659A5.3,5.3,0,0,1,88.6,9.917c.1.705.061,1.431.1,2.146a.851.851,0,0,0,.1.425,1.855,1.855,0,0,1-1.042,2.83.546.546,0,0,0-.415.453,3.727,3.727,0,0,1-1.117,1.93,1.418,1.418,0,0,0-.242,1.18.528.528,0,0,0,.271.171q2.144.836,4.291,1.664c.094.036.188.072.281.111.644.271.651.278,1.118-.226a11.458,11.458,0,0,0,3-6.505c.006-.05.007-.1.016-.15.072-.377.328-.6.641-.554a.558.558,0,0,1,.476.694,21.9,21.9,0,0,1-.528,2.505A12.245,12.245,0,0,1,91.9,22.225c-.244.218-.488.437-.72.668a3.257,3.257,0,0,0-1,2.332c-.01.579-.019,1.159,0,1.738a.455.455,0,0,0,.216.321,1.56,1.56,0,0,1,.93,1.477,2.528,2.528,0,0,1-.259,1.537c-.042.061,0,.208.047.3a2.715,2.715,0,0,1,.079,2.094,1.4,1.4,0,0,1-1.336.945c-.185.012-.372,0-.551,0a12.124,12.124,0,0,1-.008,1.322,1.445,1.445,0,0,1-1.4,1.337c-.69.041-1.385.02-2.077.026-.149,0-.3,0-.5,0A1.968,1.968,0,0,1,83.985,38.7Zm6.2-11.567c-.091-1.9-.121-3.776,1.482-5.2-1.2-.463-2.306-.881-3.4-1.319a.436.436,0,0,0-.575.122,19.882,19.882,0,0,1-1.444,1.431.539.539,0,0,1-.83-.091.6.6,0,0,1,.181-.827c.4-.374.787-.77,1.217-1.195-.748-.223-.9-.769-.854-1.454a4.752,4.752,0,0,1-2.832.041c.014.694-.134,1.243-.962,1.431.487.454.909.862,1.346,1.252a.573.573,0,0,1,.163.8.532.532,0,0,1-.765.152,2.3,2.3,0,0,1-.485-.355c-.382-.383-.757-.774-1.115-1.179a.387.387,0,0,0-.517-.114c-1.014.409-2.036.8-3.055,1.193-.087.034-.168.082-.281.137a4.832,4.832,0,0,1,1.47,3.965c-.02.4,0,.8,0,1.219ZM86.374,13.556l-.033,0c0-.428-.021-.857.007-1.283a.994.994,0,0,0-.328-.83c-.574-.575-.563-.589-1.3-.227a8.912,8.912,0,0,1-3.991.977c-.172,0-.362-.04-.356.246.019.88-.019,1.763.047,2.639a2.965,2.965,0,0,0,5.829.356,13.876,13.876,0,0,0,.12-1.876m1.168-2.1A4.257,4.257,0,0,0,85.08,6.992a4.2,4.2,0,0,0-4.705.89c-.942.964-1.523,2.9-1.1,3.8.262-.637.781-.637,1.333-.639a9.411,9.411,0,0,0,1.573-.144,7.478,7.478,0,0,0,2.652-1.046c.363-.224.777-.381,1.119-.062.572.532,1.083,1.129,1.588,1.665M83.378,29.842c2.052,0,4.1.006,6.156-.01a.8.8,0,0,0,.588-.223.834.834,0,0,0-.709-1.319H77.4a2.741,2.741,0,0,0-.377.013.406.406,0,0,0-.391.427q0,.208,0,.415c0,.6.1.7.7.7h6.043m.043,2.664q3.078,0,6.155,0c.506,0,.613-.111.617-.623,0-.088,0-.176,0-.264,0-.544-.1-.642-.636-.642H77.285c-.567,0-.651.088-.654.66,0,.076,0,.151,0,.227,0,.543.1.642.635.642h6.155m0,1.134c-1.384,0-2.768-.005-4.152.007-.175,0-.485.067-.5.15a3.282,3.282,0,0,0-.069,1.13c.047.306.387.258.635.258q3.152,0,6.3,0c.654,0,1.309,0,1.963,0,.471,0,.6-.137.6-.614,0-.088,0-.176,0-.264,0-.539-.129-.664-.67-.665q-2.057,0-4.114,0m-.783,2.7c.043.435-.17.934.294,1.126a1.337,1.337,0,0,0,1.029-.042c.39-.217.2-.689.22-1.084ZM87.482,14.2c.342-.181.527-.4.494-.733a.618.618,0,0,0-.494-.578Zm-8.26-.007V12.952l-.115-.061a2.356,2.356,0,0,0-.335.6c-.067.3.141.508.45.7" transform="translate(-65.321)" fill="#03386e"/>
        <path id="Trazado_615260" data-name="Trazado 615260" d="M416.126,232.329a3.582,3.582,0,0,1-.51-.28c-.616-.5-1.225-1-1.83-1.511a.594.594,0,0,1-.174-.856c.214-.277.555-.291.895-.014.633.515,1.259,1.04,1.886,1.562a.531.531,0,0,1,.189.7c-.092.163-.293.264-.455.4" transform="translate(-382.24 -212.122)" fill="#03386e"/>
        <path id="Trazado_615261" data-name="Trazado 615261" d="M414.624,70.222c-.153-.12-.382-.211-.432-.362a.711.711,0,0,1,.068-.614c.7-.629,1.428-1.227,2.171-1.8a.482.482,0,0,1,.7.138.535.535,0,0,1-.089.777c-.453.4-.924.774-1.388,1.159-.193.16-.381.329-.584.476a3.472,3.472,0,0,1-.448.229" transform="translate(-382.85 -62.254)" fill="#03386e"/>
        <path id="Trazado_615262" data-name="Trazado 615262" d="M433.581,159.551c.377,0,.754-.012,1.13,0a.561.561,0,1,1,.017,1.118c-.79.016-1.582.018-2.372,0a.53.53,0,0,1-.57-.567.537.537,0,0,1,.591-.547c.4-.017.8,0,1.2,0" transform="translate(-399.148 -147.486)" fill="#03386e"/>
        <path id="Trazado_615263" data-name="Trazado 615263" d="M26.748,229.893a2.252,2.252,0,0,1-.313.475q-.958.821-1.944,1.61a.573.573,0,0,1-.84-.04.581.581,0,0,1,.133-.833c.632-.536,1.274-1.061,1.913-1.588a.544.544,0,0,1,.692-.092,2.032,2.032,0,0,1,.359.467" transform="translate(-21.751 -212.002)" fill="#03386e"/>
        <path id="Trazado_615264" data-name="Trazado 615264" d="M26.483,69.547c.016.532-.47.845-.834.569-.74-.56-1.449-1.163-2.148-1.774a.5.5,0,0,1-.01-.747.5.5,0,0,1,.714-.084c.719.568,1.421,1.157,2.12,1.75a.789.789,0,0,1,.159.286" transform="translate(-21.565 -62.302)" fill="#03386e"/>
        <path id="Trazado_615265" data-name="Trazado 615265" d="M1.759,160.648c-.377,0-.754.012-1.13,0A.579.579,0,0,1,0,160.083a.569.569,0,0,1,.626-.56q1.149-.019,2.3,0c.4.007.623.227.623.558s-.222.547-.621.564-.778,0-1.168,0" transform="translate(0 -147.456)" fill="#03386e"/>
        <line id="Línea_174" data-name="Línea 174" y1="1.311" transform="translate(22.161 12.889)" fill="#fff"/>
      </g>
    </g>
  </g>
</svg>
