<svg xmlns="http://www.w3.org/2000/svg" xmlns:xlink="http://www.w3.org/1999/xlink" width="72" height="75.196" viewBox="0 0 72 75.196">
  <defs>
    <radialGradient id="radial-gradient" cx="0.707" cy="0.225" r="0.5" gradientUnits="objectBoundingBox">
      <stop offset="0" stop-color="#fcfdff"/>
      <stop offset="1" stop-color="#add8fa"/>
    </radialGradient>
    <filter id="Sustracción_8" x="0" y="20" width="69.687" height="55.196" filterUnits="userSpaceOnUse">
      <feOffset dy="3" input="SourceAlpha"/>
      <feGaussianBlur stdDeviation="3" result="blur"/>
      <feFlood flood-opacity="0.161"/>
      <feComposite operator="in" in2="blur"/>
      <feComposite in="SourceGraphic"/>
    </filter>
    <clipPath id="clip-path">
      <rect id="Rectángulo_327329" data-name="Rectángulo 327329" width="30.403" height="35.107" fill="#03386e"/>
    </clipPath>
  </defs>
  <g id="Grupo_885348" data-name="Grupo 885348" transform="translate(-170.5 -5356.249)">
    <g id="Grupo_876274" data-name="Grupo 876274" transform="translate(-105.5 -1963.751)">
      <path id="Trazado_615224" data-name="Trazado 615224" d="M31.5,0A31.5,31.5,0,1,1,0,31.5,31.5,31.5,0,0,1,31.5,0Z" transform="translate(285 7320)" fill="url(#radial-gradient)"/>
      <g transform="matrix(1, 0, 0, 1, 276, 7320)" filter="url(#Sustracción_8)">
        <path id="Sustracción_8-2" data-name="Sustracción 8" d="M8407.5,11782a31.476,31.476,0,0,1-31.5-31.5,31.842,31.842,0,0,1,.514-5.7,38.533,38.533,0,0,0,51.173,29.878A31.38,31.38,0,0,1,8407.5,11782Z" transform="translate(-8367 -11718.8)" fill="#80c7ff"/>
      </g>
    </g>
    <g id="Grupo_876285" data-name="Grupo 876285" transform="translate(195.5 5368.392)">
      <g id="Grupo_876285-2" data-name="Grupo 876285" clip-path="url(#clip-path)">
        <path id="Trazado_615266" data-name="Trazado 615266" d="M30.04,35.107H29.7a.8.8,0,0,1-.333-.735c.011-.742-.005-1.484-.008-2.226a2.138,2.138,0,0,0-1.394-2.039,6.015,6.015,0,0,1-1.058-.382c-.453-.284-.835-.1-1.268.016.024.088.04.154.06.218.291.936.579,1.873.877,2.806a.656.656,0,0,1-.172.746c-.355.339-.69.7-1.041,1.041a.516.516,0,0,1-.854-.015c-.311-.334-.6-.688-.919-1.016a.721.721,0,0,1-.17-.784c.175-.578.336-1.16.5-1.742.116-.412.226-.825.345-1.258-.309-.059-.6-.207-.836-.142a13.393,13.393,0,0,0-1.684.653c-.077.033-.136.208-.129.313.027.4.117.79.126,1.186.02.879,0,1.758.012,2.637a.734.734,0,0,1-.35.72h-.343a.745.745,0,0,1-.347-.723c.016-.891.008-1.782.005-2.674a2.844,2.844,0,0,0-2.046-2.84c-.515-.179-1.014-.4-1.522-.6a.351.351,0,0,0-.195-.021c-.364.084-.725.177-1.109.272.023.092.041.179.067.263q.564,1.813,1.132,3.625a.629.629,0,0,1-.12.7c-.468.469-.929.945-1.4,1.407a.491.491,0,0,1-.781-.017c-.428-.459-.862-.917-1.25-1.409a.872.872,0,0,1-.123-.623,12.406,12.406,0,0,1,.331-1.221c.252-.9.5-1.793.761-2.706-.386-.084-.74-.165-1.1-.236a.378.378,0,0,0-.193.03c-.48.18-.954.375-1.437.544a2.854,2.854,0,0,0-2.042,2.847c0,.9-.011,1.805,0,2.708a.677.677,0,0,1-.361.677H8.988a.788.788,0,0,1-.335-.734c.016-.617-.016-1.235.01-1.851.029-.67.111-1.337.147-2.007a.374.374,0,0,0-.187-.288,9.136,9.136,0,0,1-1.271-.493c-.467-.287-.858-.1-1.308,0,.322,1.027.63,2.029.952,3.026a.658.658,0,0,1-.172.746c-.344.334-.674.683-1.017,1.02s-.6.323-.928-.04c-.291-.322-.575-.651-.873-.966a.693.693,0,0,1-.179-.748c.217-.709.409-1.425.609-2.139.082-.292.159-.585.248-.915a2.962,2.962,0,0,0-.9-.1,10.18,10.18,0,0,0-1.283.465,2.161,2.161,0,0,0-1.463,2.068c0,.743-.015,1.486,0,2.228a.738.738,0,0,1-.349.722H.348A.736.736,0,0,1,0,34.419Q.011,21.191.008,7.962A1.042,1.042,0,0,1,1.175,6.8q1.8,0,3.6,0A1.041,1.041,0,0,1,5.94,7.964c.005,1.142,0,2.285,0,3.427v.4h3.7c.793,0,1.141.351,1.142,1.152q0,2.6,0,5.209v.4c.364,0,.684.021,1-.01a.572.572,0,0,0,.37-.211,2.3,2.3,0,0,1,1.961-1.067c.177,0,.353,0,.552,0v-.472q0-3.5,0-6.991c0-1.018.382-1.4,1.412-1.4h3.48V7.992c0-2.148.017-4.3-.009-6.443A1.439,1.439,0,0,1,20.509,0h4.046a1.316,1.316,0,0,1,.928,1.19c.017.525.015,1.051,0,1.577a.513.513,0,1,1-1.02-.012c-.009-.446-.013-.892,0-1.337.009-.3-.109-.4-.406-.394-.983.014-1.966.005-2.949.005-.528,0-.529,0-.529.535q0,12.41,0,24.821c0,.54-.15.77-.5.775s-.525-.239-.525-.793q0-8.279.007-16.559c0-.305-.084-.387-.383-.382q-1.542.026-3.086,0c-.3,0-.411.063-.409.393.015,2.354.008,4.708.009,7.062,0,.12.014.239.022.38h.412A2.294,2.294,0,0,1,18.6,19.743c0,1.029-.025,2.058.008,3.085a2.257,2.257,0,0,1-1.2,2.217.45.45,0,0,0-.2.31,4.389,4.389,0,0,0,.013,1.127,1.814,1.814,0,0,0,.433.85,1.885,1.885,0,0,0,.757.366,5.617,5.617,0,0,1,1.932.926c.276.236.555.47.849.718.222-.087.536-.225.859-.333,1.176-.392,1.223-.459,1.227-1.7a.5.5,0,0,0-.268-.493,1.7,1.7,0,0,1-.87-1.534c0-.994-.012-1.989.006-2.982a1.888,1.888,0,0,1,1.424-1.8,7.22,7.22,0,0,1,.889-.117V8.573c0-1.12,0-2.24,0-3.36,0-.421.174-.637.5-.644s.521.222.53.653c0,.091,0,.183,0,.274V14.96c1.292,0,2.525,0,3.758,0a1.044,1.044,0,0,1,1.136,1.128q.009,9.171.019,18.341a.679.679,0,0,1-.363.676M1.056,7.848V29.661c.471-.218.929-.473,1.415-.645,1.179-.418,1.235-.482,1.239-1.734a.464.464,0,0,0-.268-.456,1.705,1.705,0,0,1-.884-1.494c-.021-1-.028-2.011,0-3.016a1.93,1.93,0,0,1,1.921-1.89c.582-.014,1.166-.009,1.748,0A1.943,1.943,0,0,1,8.272,22.4c.024.948.01,1.9,0,2.845a1.553,1.553,0,0,1-.661,1.4.96.96,0,0,0-.483,1.069,1.341,1.341,0,0,1,0,.137.931.931,0,0,0,.7.979l1.505.548a1.166,1.166,0,0,0,.426-1.026q-.022-7.541-.009-15.081v-.43H5.941v.42q0,2.485,0,4.97c0,.554-.165.8-.532.787-.351-.01-.5-.238-.5-.784q0-4.97,0-9.94V7.848ZM29.34,16.011H25.519v4.41c.129,0,.23,0,.331,0a1.943,1.943,0,0,1,2,2.021c.006.948,0,1.9,0,2.844a1.512,1.512,0,0,1-.659,1.362A.965.965,0,0,0,26.7,27.72c.008.068,0,.137.005.205a.956.956,0,0,0,.671.9c.662.253,1.314.533,1.959.8ZM12.83,22.352c0,.206.01.412,0,.617a1.157,1.157,0,0,0,.642,1.153c.4.225.781.473,1.172.707a1.013,1.013,0,0,0,1.1.011q.663-.392,1.316-.8a1.034,1.034,0,0,0,.511-.947c-.005-.411-.014-.823,0-1.233.01-.216-.078-.292-.272-.352-.806-.248-1.615-.493-2.406-.783a1.391,1.391,0,0,0-1.153.095c-.7.314-1.165.687-.917,1.531M10.8,19.6v8.483c.032.011.044.021.053.018.484-.167.97-.332,1.452-.505a1.257,1.257,0,0,0,.908-1.234c.011-.274-.013-.549.008-.822a.529.529,0,0,0-.31-.571A2.09,2.09,0,0,1,11.8,22.993c.009-1,0-2.01,0-3.015V19.6ZM3.615,24.647a1.249,1.249,0,0,0,.851,1.606.9.9,0,0,1,.2.126,1.129,1.129,0,0,0,1.494.01c1.176-.768,1.08-.534,1.09-2.011a.316.316,0,0,0-.27-.358c-.611-.184-1.224-.365-1.822-.587a1.081,1.081,0,0,0-.9.067c-.531.235-.879.516-.649,1.148m19.589.031a1.225,1.225,0,0,0,.841,1.575,1.045,1.045,0,0,1,.233.142,1.09,1.09,0,0,0,1.434.01c1.246-.8,1.095-.557,1.116-1.99a.346.346,0,0,0-.29-.408c-.612-.178-1.224-.363-1.821-.584a1.03,1.03,0,0,0-.834.057c-.565.237-.908.546-.678,1.2M12.832,20.142a2.121,2.121,0,0,0,.347-.166,1.988,1.988,0,0,1,2.166-.19c.7.3,1.459.482,2.224.726,0-.364.01-.682,0-1a1.22,1.22,0,0,0-1.2-1.21q-1.163-.031-2.327,0a1.236,1.236,0,0,0-1.21,1.2c-.01.193,0,.387,0,.638M3.606,22.688a2.555,2.555,0,0,0,.367-.185,1.269,1.269,0,0,1,1.315-.113c.621.243,1.27.413,1.962.633,0-.192,0-.335,0-.478A.963.963,0,0,0,6.159,21.45c-.5,0-1,0-1.505,0-.764.006-1.133.433-1.047,1.238m23.216.336c0-.214,0-.373,0-.531a.938.938,0,0,0-1.034-1.043q-.788-.009-1.576,0c-.748.008-1.112.44-1.011,1.227a3.084,3.084,0,0,0,.428-.214,1.153,1.153,0,0,1,1.16-.1c.65.241,1.318.433,2.034.663M14.088,27.412a4.7,4.7,0,0,0,2.2-.066l-.16-1.485a5.37,5.37,0,0,1-.92.156,5.349,5.349,0,0,1-.919-.147l-.206,1.542M15.2,29.981l-.081,0c-.234.819-.469,1.637-.7,2.457a.24.24,0,0,0,.027.19c.225.266.46.522.707.8.267-.271.506-.5.727-.745a.336.336,0,0,0,.079-.267c-.245-.815-.506-1.625-.762-2.437m10.449-2.3H24.332l-.121.986h1.565l-.125-.986m-19.572,0H4.762l-.136,1H6.189l-.111-1m18.877,5.789c.606-.5.606-.5.385-1.193Q25.17,31.738,25,31.2c-.177.374-.24.751-.39,1.09a.857.857,0,0,0,.347,1.179M5.4,33.522c.159-.177.3-.312.414-.468a.4.4,0,0,0,.09-.289c-.151-.536-.324-1.066-.519-1.689-.184.642-.347,1.2-.5,1.754a.291.291,0,0,0,.077.208c.121.15.256.288.434.483" transform="translate(0)" fill="#03386e"/>
      </g>
    </g>
  </g>
</svg>
