<svg xmlns="http://www.w3.org/2000/svg" xmlns:xlink="http://www.w3.org/1999/xlink" width="117.618" height="103.147" viewBox="0 0 117.618 103.147">
  <defs>
    <filter id="Trazado_517255" x="-4.358" y="12.222" width="124.584" height="98.718" filterUnits="userSpaceOnUse">
      <feOffset dy="3" input="SourceAlpha"/>
      <feGaussianBlur stdDeviation="3" result="blur"/>
      <feFlood flood-opacity="0.161"/>
      <feComposite operator="in" in2="blur"/>
      <feComposite in="SourceGraphic"/>
    </filter>
    <clipPath id="clip-path">
      <rect id="Rectángulo_292115" data-name="Rectángulo 292115" width="117.618" height="98.673" transform="translate(0 0)" fill="#fff" stroke="#707070" stroke-width="1" opacity="0.13"/>
    </clipPath>
    <clipPath id="clip-path-2">
      <rect id="Rectángulo_292105" data-name="Rectángulo 292105" width="106.018" height="89.386" fill="#fff"/>
    </clipPath>
    <clipPath id="clip-path-3">
      <path id="Trazado_517251" data-name="Trazado 517251" d="M131.719,18.233c28.731-.115,5.987,28.541,18.339,45.995,9.24,13.057,26.733,25.5,18.2,36.61-9.363,12.189-30.2-5.381-60.681,5.343C82.1,115.144,56.087,80.325,67.129,53.563c5.871-14.228,45.425-35.254,64.59-35.33" transform="translate(-64.52 -18.232)" fill="#fff"/>
    </clipPath>
    <clipPath id="clip-path-4">
      <rect id="Rectángulo_292107" data-name="Rectángulo 292107" width="4.076" height="4.076" fill="#0f9880"/>
    </clipPath>
    <clipPath id="clip-path-5">
      <path id="Trazado_517252" data-name="Trazado 517252" d="M51.337,43.583l-1.228,1.228-.732-.732L50.6,42.85,49.31,41.555l.753-.753L51.358,42.1l1.228-1.228.732.732L52.09,42.829l1.3,1.3-.753.753Z" transform="translate(-49.31 -40.802)" fill="#0f9880"/>
    </clipPath>
    <clipPath id="clip-path-6">
      <rect id="Rectángulo_292108" data-name="Rectángulo 292108" width="110.895" height="89.22" fill="none"/>
    </clipPath>
    <linearGradient id="linear-gradient" x1="-0.084" y1="1.037" x2="-0.079" y2="1.037" gradientUnits="objectBoundingBox">
      <stop offset="0" stop-color="#0078b2"/>
      <stop offset="0.184" stop-color="#0078b2"/>
      <stop offset="1" stop-color="#86cff2"/>
    </linearGradient>
    <clipPath id="clip-path-7">
      <g transform="matrix(1, 0, 0, 1, 0, 0)" filter="url(#Trazado_517255)">
        <path id="Trazado_517255-2" data-name="Trazado 517255" d="M152.262,40.562C139.879,36.8,129.7,43.75,120.642,50.853s-19.688-.346-25.68-7.115c-7.327-8.276-20.9-8.594-27.656.752-5.413,7.487-4.925,20.022,6.967,25.881,11.412,5.622,20.474,12.722,22.845,22.861s4.208,20.957,16.021,24.359c9.131,2.629,16.579-3.207,17.062-12.375.489-9.286,5.273-12.136,12.614-13.508s13.306-2.133,18.462-6.414,8.648-9.738,9.258-19.595-5.892-21.375-18.274-25.136" transform="translate(-63.99 -37.5)" fill="#0bd6b3"/>
      </g>
    </clipPath>
    <filter id="Trazado_517254" x="-27.204" y="-11.668" width="168.748" height="146.131" filterUnits="userSpaceOnUse">
      <feOffset dy="3" input="SourceAlpha"/>
      <feGaussianBlur stdDeviation="9" result="blur-2"/>
      <feFlood flood-opacity="0.161"/>
      <feComposite operator="in" in2="blur-2"/>
      <feComposite in="SourceGraphic"/>
    </filter>
    <clipPath id="clip-path-8">
      <rect id="Rectángulo_292111" data-name="Rectángulo 292111" width="116.178" height="93.47" fill="none"/>
    </clipPath>
    <filter id="Trazado_517258" x="77.071" y="23.97" width="31.987" height="31.986" filterUnits="userSpaceOnUse">
      <feOffset dy="3" input="SourceAlpha"/>
      <feGaussianBlur stdDeviation="3" result="blur-3"/>
      <feFlood flood-opacity="0.161"/>
      <feComposite operator="in" in2="blur-3"/>
      <feComposite in="SourceGraphic"/>
    </filter>
    <filter id="Trazado_517259" x="10.092" y="62.481" width="29.537" height="29.537" filterUnits="userSpaceOnUse">
      <feOffset dy="3" input="SourceAlpha"/>
      <feGaussianBlur stdDeviation="3" result="blur-4"/>
      <feFlood flood-opacity="0.161"/>
      <feComposite operator="in" in2="blur-4"/>
      <feComposite in="SourceGraphic"/>
    </filter>
    <clipPath id="clip-path-11">
      <rect id="Rectángulo_332120" data-name="Rectángulo 332120" width="108.179" height="103.148" transform="translate(0 0)" fill="#fff"/>
    </clipPath>
    <clipPath id="clip-path-12">
      <rect id="Rectángulo_332119" data-name="Rectángulo 332119" width="118.243" height="137.111" fill="none"/>
    </clipPath>
    <clipPath id="clip-path-13">
      <rect id="Rectángulo_332118" data-name="Rectángulo 332118" width="118.243" height="116.985" fill="none"/>
    </clipPath>
    <clipPath id="clip-path-14">
      <rect id="Rectángulo_332116" data-name="Rectángulo 332116" width="6.959" height="7.79" fill="none"/>
    </clipPath>
    <clipPath id="clip-path-15">
      <rect id="Rectángulo_332117" data-name="Rectángulo 332117" width="6.413" height="7.753" fill="none"/>
    </clipPath>
  </defs>
  <g id="Grupo_885290" data-name="Grupo 885290" transform="translate(-325.042 -5383.161)">
    <g id="Enmascarar_grupo_744684" data-name="Enmascarar grupo 744684" transform="translate(325.042 5385.423)" clip-path="url(#clip-path)">
      <g id="Grupo_751892" data-name="Grupo 751892" transform="translate(-21.977 0.026)">
        <g id="Grupo_751874" data-name="Grupo 751874" transform="translate(26.619 5.611)" opacity="0.6" clip-path="url(#clip-path-2)">
          <g id="Grupo_751873" data-name="Grupo 751873" transform="translate(0 0)">
            <g id="Grupo_751872" data-name="Grupo 751872" clip-path="url(#clip-path-3)">
              <path id="Trazado_517250" data-name="Trazado 517250" d="M172.484,55.369l-128.685,67L6.468-18.064l128.685-67Z" transform="translate(-37.557 29.746)" fill="#fff"/>
            </g>
          </g>
        </g>
        <g id="Grupo_751879" data-name="Grupo 751879" transform="translate(24.582 15.932)">
          <g id="Grupo_751878" data-name="Grupo 751878" transform="translate(0 0)">
            <g id="Grupo_751877" data-name="Grupo 751877" clip-path="url(#clip-path-4)">
              <g id="Grupo_751876" data-name="Grupo 751876" transform="translate(0)">
                <g id="Grupo_751875" data-name="Grupo 751875" clip-path="url(#clip-path-5)">
                  <rect id="Rectángulo_292106" data-name="Rectángulo 292106" width="4.076" height="4.076" transform="translate(0)" fill="#0f9880"/>
                </g>
              </g>
            </g>
          </g>
        </g>
        <g id="Grupo_751882" data-name="Grupo 751882" transform="translate(0 2.199)" opacity="0.75">
          <g id="Grupo_751881" data-name="Grupo 751881" transform="translate(0 0)">
            <g id="Grupo_751880" data-name="Grupo 751880" clip-path="url(#clip-path-6)">
              <path id="Trazado_517253" data-name="Trazado 517253" d="M79.715,17.362h0c-8.9,9.659-18.981,15.606-34.85,15.606q-2.323,0-4.815-.172-.81-.056-1.608-.056c-11.323,0-20.366,8.4-20.366,20.231,0,6.82,3.005,14.778,10.312,22.922a63.554,63.554,0,0,0,47.45,21.071,52.479,52.479,0,0,0,20.653-3.924c23.4-10.2,31.969-29.448,31.969-46.7,0-10.067-2.917-19.456-7.507-25.973-6.109-8.675-13.8-12.113-21.2-12.113a27.88,27.88,0,0,0-20.039,9.108h0A27.88,27.88,0,0,1,99.754,8.254c7.4,0,15.091,3.438,21.2,12.113,4.589,6.517,7.507,15.906,7.507,25.973,0,17.251-8.566,36.5-31.969,46.7a52.479,52.479,0,0,1-20.653,3.924,63.554,63.554,0,0,1-47.45-21.071c-7.306-8.144-10.312-16.1-10.312-22.922,0-11.829,9.042-20.231,20.366-20.231q.8,0,1.608.056,2.5.173,4.815.172c15.869,0,25.95-5.947,34.85-15.606Z" transform="translate(-17.822 -7.998)" fill="url(#linear-gradient)"/>
            </g>
          </g>
        </g>
        <rect id="Rectángulo_292109" data-name="Rectángulo 292109" width="81.239" height="70.15" transform="translate(11.989 13.586)" fill="none"/>
        <g id="Grupo_751883" data-name="Grupo 751883" transform="translate(26.619 15.932)" opacity="0.74" clip-path="url(#clip-path-7)">
          <g transform="matrix(1, 0, 0, 1, -4.64, -18.22)" filter="url(#Trazado_517254)">
            <path id="Trazado_517254-2" data-name="Trazado 517254" d="M0,0H111.945V88.56H0Z" transform="translate(-0.2 15.95) rotate(-1.85)" fill="#0bd6b3"/>
          </g>
        </g>
        <rect id="Rectángulo_292110" data-name="Rectángulo 292110" width="106.584" height="80.718" transform="translate(26.619 15.932)" fill="none"/>
        <g id="Grupo_751886" data-name="Grupo 751886" transform="translate(1.762 0)" opacity="0.75">
          <g id="Grupo_751885" data-name="Grupo 751885" transform="translate(0)">
            <g id="Grupo_751884" data-name="Grupo 751884" clip-path="url(#clip-path-8)">
              <path id="Trazado_517256" data-name="Trazado 517256" d="M82.652,17.8h0c-9.323,10.119-19.885,16.35-36.51,16.35q-2.433,0-5.045-.18-.849-.059-1.684-.058c-11.863,0-21.336,8.8-21.336,21.195,0,7.145,3.148,15.482,10.8,24.014a66.582,66.582,0,0,0,49.711,22.074,54.979,54.979,0,0,0,21.637-4.111c24.517-10.69,33.492-30.851,33.492-48.924,0-10.547-3.056-20.383-7.864-27.21-6.4-9.088-14.455-12.69-22.209-12.69A29.208,29.208,0,0,0,82.652,17.8h0a29.208,29.208,0,0,1,20.994-9.542c7.755,0,15.81,3.6,22.209,12.69,4.808,6.828,7.864,16.663,7.864,27.21,0,18.073-8.975,38.234-33.492,48.924a54.979,54.979,0,0,1-21.637,4.111A66.582,66.582,0,0,1,28.88,79.115c-7.654-8.532-10.8-16.869-10.8-24.014,0-12.392,9.473-21.195,21.336-21.195q.835,0,1.684.058,2.614.182,5.045.18c16.625,0,27.187-6.23,36.51-16.35Z" transform="translate(-17.809 -7.986)" fill="url(#linear-gradient)"/>
            </g>
          </g>
        </g>
        <rect id="Rectángulo_292112" data-name="Rectángulo 292112" width="85.109" height="73.493" transform="translate(14.321 11.93)" fill="none"/>
        <g id="Grupo_751891" data-name="Grupo 751891" transform="translate(128.964 64.153)">
          <g id="Grupo_751890" data-name="Grupo 751890" transform="translate(0 0)">
            <g id="Grupo_751889" data-name="Grupo 751889" clip-path="url(#clip-path-4)">
              <g id="Grupo_751888" data-name="Grupo 751888" transform="translate(0)">
                <g id="Grupo_751887" data-name="Grupo 751887" clip-path="url(#clip-path-5)">
                  <rect id="Rectángulo_292113" data-name="Rectángulo 292113" width="4.076" height="4.076" transform="translate(0)" fill="#0f9880"/>
                </g>
              </g>
            </g>
          </g>
        </g>
        <g transform="matrix(1, 0, 0, 1, 21.98, -2.29)" filter="url(#Trazado_517258)">
          <path id="Trazado_517258-2" data-name="Trazado 517258" d="M233.036,91.225a6.994,6.994,0,1,1-6.994-6.994,6.994,6.994,0,0,1,6.994,6.994" transform="translate(-132.98 -54.26)" fill="#0f9880"/>
        </g>
        <g transform="matrix(1, 0, 0, 1, 21.98, -2.29)" filter="url(#Trazado_517259)">
          <path id="Trazado_517259-2" data-name="Trazado 517259" d="M230.586,90a5.769,5.769,0,1,1-5.769-5.769A5.769,5.769,0,0,1,230.586,90" transform="translate(-199.96 -15.75)" fill="#0f9880"/>
        </g>
      </g>
    </g>
    <g id="Enmascarar_grupo_884132" data-name="Enmascarar grupo 884132" transform="translate(331.261 5383.161)" clip-path="url(#clip-path-11)">
      <g id="Grupo_885299" data-name="Grupo 885299" transform="translate(-7.547 -5.031)">
        <g id="Grupo_885298" data-name="Grupo 885298" transform="translate(0 0)" clip-path="url(#clip-path-12)">
          <g id="Grupo_885297" data-name="Grupo 885297" transform="translate(0 0)">
            <g id="Grupo_885296" data-name="Grupo 885296" transform="translate(0 0)" clip-path="url(#clip-path-13)">
              <path id="Trazado_617545" data-name="Trazado 617545" d="M265.5,284.135l-17.278-2.5s-2.6-42.486-.1-44.322c.8-.586,4.342-.466,8.821.04,2.092.237,4.389.559,6.7.933.569.092,1.14.187,1.708.284,2.385.411,4.742.868,6.871,1.336,4.746,1.043,8.359,2.146,8.616,2.916.751,2.254-15.345,41.317-15.345,41.317" transform="translate(-188.348 -182.237)" fill="#4b4c4e"/>
              <path id="Trazado_617546" data-name="Trazado 617546" d="M120.52,182.978c-18.116.2-37.029-12.593-43.752-17.62-.793,1.041-1.6,2.073-2.43,3.081q-.334.4-.676.8a3.4,3.4,0,0,0,.047.884c7.261,23.287,42.971,26.039,42.971,26.039,5.509-8.263,3.84-13.188,3.84-13.188" transform="translate(-55.901 -127.571)" fill="#4b4c4e"/>
              <path id="Trazado_617547" data-name="Trazado 617547" d="M99.551,144.673a1.6,1.6,0,0,1-1.59,1.626h-38.3A1.656,1.656,0,0,1,58,144.673V93.626A1.656,1.656,0,0,1,59.661,92h38.3a1.6,1.6,0,0,1,1.59,1.626Z" transform="translate(-43.939 -71.531)" fill="#dfe4ed"/>
              <rect id="Rectángulo_332115" data-name="Rectángulo 332115" width="33.963" height="46.542" transform="translate(16.353 25.158)" fill="#fff"/>
              <path id="Trazado_617548" data-name="Trazado 617548" d="M90.082,135.555H83V128h7.082Zm-6.61-.708h6.374v-5.9H83.472Z" transform="translate(-63.037 -99.032)" fill="#d2d5d4"/>
              <path id="Trazado_617549" data-name="Trazado 617549" d="M90.082,181.555H83V174h7.082Zm-6.61-.472h6.374v-6.374H83.472Z" transform="translate(-63.037 -134.172)" fill="#d2d5d4"/>
              <path id="Trazado_617550" data-name="Trazado 617550" d="M90.082,226.555H83V219h7.082Zm-6.61-.472h6.374v-6.138H83.472Z" transform="translate(-63.037 -168.549)" fill="#d2d5d4"/>
              <path id="Trazado_617551" data-name="Trazado 617551" d="M90.082,272.555H83V265h7.082Zm-6.61-.236h6.374v-6.61H83.472Z" transform="translate(-63.037 -203.689)" fill="#d2d5d4"/>
              <path id="Trazado_617552" data-name="Trazado 617552" d="M136.163,129.653H124.146c-.325,0-.589-.5-.589-.826s.263-.827.589-.827h12.017c.325,0,.589.5.589.827s-.264.826-.589.826" transform="translate(-94.019 -99.032)" fill="#a9abb0"/>
              <path id="Trazado_617553" data-name="Trazado 617553" d="M189.7,129.18h-3.181a.59.59,0,0,1,0-1.18H189.7a.59.59,0,0,1,0,1.18" transform="translate(-141.669 -99.032)" fill="#a9abb0"/>
              <path id="Trazado_617554" data-name="Trazado 617554" d="M142.052,137.944H124.145c-.325,0-.589-.147-.589-.472s.264-.473.589-.473h17.907c.325,0,.589.147.589.473s-.264.472-.589.472" transform="translate(-94.019 -105.907)" fill="#a9abb0"/>
              <path id="Trazado_617555" data-name="Trazado 617555" d="M128.623,144.944h-4.477c-.325,0-.589-.147-.589-.472s.263-.472.589-.472h4.477c.325,0,.589.147.589.472s-.263.472-.589.472" transform="translate(-94.019 -111.255)" fill="#a9abb0"/>
              <path id="Trazado_617556" data-name="Trazado 617556" d="M155.4,144.944h-5.3c-.325,0-.589-.147-.589-.472s.263-.472.589-.472h5.3c.325,0,.589.147.589.472s-.264.472-.589.472" transform="translate(-113.842 -111.255)" fill="#a9abb0"/>
              <path id="Trazado_617557" data-name="Trazado 617557" d="M184.367,145.416h-4.83a.72.72,0,0,1,0-1.416h4.83a.72.72,0,0,1,0,1.416" transform="translate(-136.333 -111.255)" fill="#a9abb0"/>
              <path id="Trazado_617558" data-name="Trazado 617558" d="M142.052,153.944H124.145c-.325,0-.589-.146-.589-.472s.264-.472.589-.472h17.907c.325,0,.589.146.589.472s-.264.472-.589.472" transform="translate(-94.019 -118.13)" fill="#a9abb0"/>
              <path id="Trazado_617559" data-name="Trazado 617559" d="M149.1,196h12.017c.325,0,.589.5.589.826s-.264.826-.589.826H149.1c-.325,0-.589-.5-.589-.826s.264-.826.589-.826" transform="translate(-113.08 -150.979)" fill="#a9abb0"/>
              <path id="Trazado_617560" data-name="Trazado 617560" d="M124.146,198h3.181a.59.59,0,0,1,0,1.18h-3.181a.59.59,0,0,1,0-1.18" transform="translate(-94.019 -152.506)" fill="#a9abb0"/>
              <path id="Trazado_617561" data-name="Trazado 617561" d="M124.146,189h17.907a.59.59,0,0,1,0,1.18H124.146a.59.59,0,0,1,0-1.18" transform="translate(-94.019 -145.631)" fill="#a9abb0"/>
              <path id="Trazado_617562" data-name="Trazado 617562" d="M181.035,182h4.477c.325,0,.589.147.589.472s-.264.472-.589.472h-4.477c-.326,0-.589-.147-.589-.472s.263-.472.589-.472" transform="translate(-137.478 -140.284)" fill="#a9abb0"/>
              <path id="Trazado_617563" data-name="Trazado 617563" d="M151.592,182h5.3c.325,0,.589.147.589.472s-.263.472-.589.472h-5.3c-.325,0-.589-.147-.589-.472s.264-.472.589-.472" transform="translate(-114.986 -140.284)" fill="#a9abb0"/>
              <path id="Trazado_617564" data-name="Trazado 617564" d="M124.146,182h4.83c.326,0,.589.147.589.472s-.264.472-.589.472h-4.83c-.325,0-.589-.147-.589-.472s.264-.472.589-.472" transform="translate(-94.019 -140.284)" fill="#a9abb0"/>
              <path id="Trazado_617565" data-name="Trazado 617565" d="M124.146,174h17.907a.59.59,0,0,1,0,1.18H124.146a.59.59,0,0,1,0-1.18" transform="translate(-94.019 -134.172)" fill="#a9abb0"/>
              <path id="Trazado_617566" data-name="Trazado 617566" d="M149.1,246h12.017a.59.59,0,0,1,0,1.18H149.1a.59.59,0,0,1,0-1.18" transform="translate(-113.08 -189.174)" fill="#a9abb0"/>
              <path id="Trazado_617567" data-name="Trazado 617567" d="M124.146,247h3.181c.325,0,.589.147.589.472s-.264.472-.589.472h-3.181c-.325,0-.589-.147-.589-.472s.264-.472.589-.472" transform="translate(-94.019 -189.938)" fill="#a9abb0"/>
              <path id="Trazado_617568" data-name="Trazado 617568" d="M124.146,237h17.907a.59.59,0,0,1,0,1.18H124.146a.59.59,0,0,1,0-1.18" transform="translate(-94.019 -182.299)" fill="#a9abb0"/>
              <path id="Trazado_617569" data-name="Trazado 617569" d="M181.035,231h4.477c.325,0,.589.147.589.472s-.264.472-.589.472h-4.477c-.326,0-.589-.148-.589-.472s.263-.472.589-.472" transform="translate(-137.478 -177.716)" fill="#a9abb0"/>
              <path id="Trazado_617570" data-name="Trazado 617570" d="M151.592,231h5.3c.325,0,.589.147.589.472s-.263.472-.589.472h-5.3c-.325,0-.589-.148-.589-.472s.264-.472.589-.472" transform="translate(-114.986 -177.716)" fill="#a9abb0"/>
              <path id="Trazado_617571" data-name="Trazado 617571" d="M124.146,230h4.83a.59.59,0,0,1,0,1.18h-4.83a.59.59,0,0,1,0-1.18" transform="translate(-94.019 -176.952)" fill="#a9abb0"/>
              <path id="Trazado_617572" data-name="Trazado 617572" d="M124.146,223h17.907c.325,0,.589.146.589.472s-.264.472-.589.472H124.146c-.325,0-.589-.147-.589-.472s.264-.472.589-.472" transform="translate(-94.019 -171.604)" fill="#a9abb0"/>
              <path id="Trazado_617573" data-name="Trazado 617573" d="M136.163,266.653H124.146c-.325,0-.589-.5-.589-.826s.263-.826.589-.826h12.017c.325,0,.589.5.589.826s-.264.826-.589.826" transform="translate(-94.019 -203.689)" fill="#a9abb0"/>
              <path id="Trazado_617574" data-name="Trazado 617574" d="M189.7,266.18h-3.181a.59.59,0,0,1,0-1.18H189.7a.59.59,0,0,1,0,1.18" transform="translate(-141.669 -203.689)" fill="#a9abb0"/>
              <path id="Trazado_617575" data-name="Trazado 617575" d="M142.052,276.18H124.145a.59.59,0,0,1,0-1.18h17.907a.59.59,0,0,1,0,1.18" transform="translate(-94.019 -211.328)" fill="#a9abb0"/>
              <path id="Trazado_617576" data-name="Trazado 617576" d="M128.623,283.18h-4.477a.59.59,0,0,1,0-1.18h4.477a.59.59,0,0,1,0,1.18" transform="translate(-94.019 -216.675)" fill="#a9abb0"/>
              <path id="Trazado_617577" data-name="Trazado 617577" d="M155.4,283.18h-5.3a.59.59,0,0,1,0-1.18h5.3a.59.59,0,0,1,0,1.18" transform="translate(-113.842 -216.675)" fill="#a9abb0"/>
              <path id="Trazado_617578" data-name="Trazado 617578" d="M184.367,283.416h-4.83a.72.72,0,0,1,0-1.416h4.83a.72.72,0,0,1,0,1.416" transform="translate(-136.333 -216.675)" fill="#a9abb0"/>
              <path id="Trazado_617579" data-name="Trazado 617579" d="M142.052,290.416H124.145a.72.72,0,0,1,0-1.416h17.907a.72.72,0,0,1,0,1.416" transform="translate(-94.019 -222.023)" fill="#a9abb0"/>
              <path id="Trazado_617580" data-name="Trazado 617580" d="M117.073,99.842H91.335a2.069,2.069,0,0,1,.7-1.4c1.419-1.766,4.418-2.549,8.153-2.825,1.265-.091,2.614-.148,4.015-.148,1.374,0,2.7.025,3.941.114,3.766.27,6.794,1.094,8.224,2.864a2.058,2.058,0,0,1,.7,1.4" transform="translate(-69.404 -74.18)" fill="#bdc1c5"/>
              <path id="Trazado_617581" data-name="Trazado 617581" d="M136.5,66.91a2.461,2.461,0,0,1-2.3-1.91h-2.4a2.469,2.469,0,0,1-2.311,1.91c-.156,0-.243-.055-.479-.084v9.742h8.027V66.812a1.305,1.305,0,0,1-.529.1m-3.49.226a1.657,1.657,0,1,1-1.658,1.658,1.658,1.658,0,0,1,1.658-1.658" transform="translate(-98.177 -50.905)" fill="#bdc1c5"/>
              <path id="Trazado_617582" data-name="Trazado 617582" d="M117.073,109.417H91.335c.15-.944.386-1.18.7-1.417h24.332c.315.236.554.472.7,1.417" transform="translate(-69.404 -83.754)" fill="#a9abb0"/>
              <path id="Trazado_617583" data-name="Trazado 617583" d="M54.787,168.448a1.617,1.617,0,0,1-.472,1.145,1.594,1.594,0,0,1-1.12.476H50.3a1.6,1.6,0,0,1-1.592-1.606,1.439,1.439,0,0,1,.466-1.062A1.539,1.539,0,0,1,50.3,167h2.9a1.526,1.526,0,0,1,1.315.623,1.361,1.361,0,0,1,.278.825" transform="translate(-36.84 -128.825)" fill="#f1c5b2"/>
              <path id="Trazado_617584" data-name="Trazado 617584" d="M63.919,169.387a1.582,1.582,0,0,1-.472,1.13,2.534,2.534,0,0,1-.94.173c-1.019,0-1.846-.552-1.846-1.23s.827-1.231,1.846-1.231a2.47,2.47,0,0,1,1.134.26,1.583,1.583,0,0,1,.278.9" transform="translate(-45.973 -129.764)" fill="#e9c6b5"/>
              <path id="Trazado_617585" data-name="Trazado 617585" d="M54.787,152.414a1.39,1.39,0,0,1-.472,1.044,1.517,1.517,0,0,1-1.12.375H50.3a1.52,1.52,0,0,1-1.592-1.506,1.294,1.294,0,0,1,.466-.993A1.5,1.5,0,0,1,50.3,151h2.9a1.514,1.514,0,0,1,1.315.605,1.312,1.312,0,0,1,.278.808" transform="translate(-36.84 -116.602)" fill="#f1c5b2"/>
              <path id="Trazado_617586" data-name="Trazado 617586" d="M63.919,153.241a1.581,1.581,0,0,1-.472,1.13,2.534,2.534,0,0,1-.94.173c-1.019,0-1.846-.551-1.846-1.23s.827-1.23,1.846-1.23a2.469,2.469,0,0,1,1.134.26,1.582,1.582,0,0,1,.278.9" transform="translate(-45.973 -117.43)" fill="#e9c6b5"/>
              <path id="Trazado_617587" data-name="Trazado 617587" d="M54.787,136.331a1.479,1.479,0,0,1-.472,1.085,1.545,1.545,0,0,1-1.12.417H50.3a1.554,1.554,0,0,1-1.592-1.547,1.252,1.252,0,0,1,.466-.973A1.488,1.488,0,0,1,50.3,135h2.9a1.485,1.485,0,0,1,1.315.564,1.2,1.2,0,0,1,.278.767" transform="translate(-36.84 -104.38)" fill="#f1c5b2"/>
              <path id="Trazado_617588" data-name="Trazado 617588" d="M63.919,136.891a1.581,1.581,0,0,1-.472,1.13,2.534,2.534,0,0,1-.94.173c-1.019,0-1.846-.551-1.846-1.23s.827-1.23,1.846-1.23a2.47,2.47,0,0,1,1.134.26,1.583,1.583,0,0,1,.278.9" transform="translate(-45.973 -104.94)" fill="#e9c6b5"/>
              <path id="Trazado_617589" data-name="Trazado 617589" d="M54.787,118.817a1.741,1.741,0,0,1-.472,1.2,1.644,1.644,0,0,1-1.12.528H50.3a1.65,1.65,0,0,1-1.592-1.659,1.951,1.951,0,0,1,.466-1.271A1.741,1.741,0,0,1,50.3,117h2.9a1.7,1.7,0,0,1,1.315.807,1.966,1.966,0,0,1,.278,1.01" transform="translate(-36.84 -90.629)" fill="#f1c5b2"/>
              <path id="Trazado_617590" data-name="Trazado 617590" d="M63.919,120.949a1.583,1.583,0,0,1-.472,1.131,2.539,2.539,0,0,1-.94.172c-1.019,0-1.846-.551-1.846-1.23s.827-1.23,1.846-1.23a2.466,2.466,0,0,1,1.134.26,1.583,1.583,0,0,1,.278.9" transform="translate(-45.973 -92.761)" fill="#e9c6b5"/>
              <path id="Trazado_617591" data-name="Trazado 617591" d="M305.086,262.294l-2.845,9.223L298,285.331V262.794l3.71-3Z" transform="translate(-227.279 -199.708)" fill="#e9eff0"/>
              <path id="Trazado_617592" data-name="Trazado 617592" d="M303.975,261.91l.5,6.177,1.836.334,2.671-5.342Z" transform="translate(-231.843 -201.328)" fill="#526489"/>
              <path id="Trazado_617593" data-name="Trazado 617593" d="M293.81,238.885l1.907,5.664-5.676,5.676-1.028-11.479Z" transform="translate(-220.414 -183.633)" fill="#fff"/>
              <path id="Trazado_617594" data-name="Trazado 617594" d="M322.388,242.167l-5.843,10.851-2.671-7.346L317.838,240Z" transform="translate(-239.405 -184.59)" fill="#fff"/>
              <path id="Trazado_617595" data-name="Trazado 617595" d="M302.241,293.123,298,306.937V291.39l1.874-3.317,1.836.334Z" transform="translate(-227.279 -221.315)" fill="#6279a6"/>
              <path id="Trazado_617596" data-name="Trazado 617596" d="M295.653,372.219a.821.821,0,1,1-.82-.821.821.821,0,0,1,.82.821" transform="translate(-224.233 -284.968)" fill="#f4da90"/>
              <path id="Trazado_617597" data-name="Trazado 617597" d="M292.118,394.14a.821.821,0,1,1-.821-.821.821.821,0,0,1,.821.821" transform="translate(-221.532 -301.714)" fill="#f4da90"/>
              <path id="Trazado_617598" data-name="Trazado 617598" d="M288.583,415.353a.821.821,0,1,1-.821-.82.821.821,0,0,1,.821.82" transform="translate(-218.831 -317.919)" fill="#f4da90"/>
              <path id="Trazado_617599" data-name="Trazado 617599" d="M250.693,421.245l17.918,2.783-.668,2.782-17.472-3Z" transform="translate(-190.971 -323.047)" fill="#3f4042"/>
              <path id="Trazado_617600" data-name="Trazado 617600" d="M310.224,208.4c-.643-.188-1.274-.758-1.957-.654-.931.141-2.584,1.062-2.743,1.983-.213,1.235-.51,4.809-.748,6.039a8.254,8.254,0,0,0-.168,2.21c-.065.7-.34,1.561.152,2.078,2.878,3.028,5.593,1.285,6.106.024a39.243,39.243,0,0,0,1.447-8.9c.035-1.991.556-2-2.089-2.776" transform="translate(-232.224 -159.941)" fill="#e1a892"/>
              <path id="Trazado_617601" data-name="Trazado 617601" d="M381.38,154.3s5.556-3.719,5.927,1.392-6.548,5.891-6.548,5.891Z" transform="translate(-290.5 -118.125)" fill="#e1a892"/>
              <path id="Trazado_617602" data-name="Trazado 617602" d="M381.649,162.347s3.107-3.038,3.584-1.418a6.224,6.224,0,0,1-.17,3.4s0-2.114-1.756-1.305c0,0,.7,3.541-2.016,1.957a1.971,1.971,0,0,1,.358-2.636" transform="translate(-290.641 -123.824)" fill="#ca8062"/>
              <path id="Trazado_617603" data-name="Trazado 617603" d="M257.052,144.558s-4.943-4.5-6.068.5,5.6,6.8,5.6,6.8Z" transform="translate(-191.265 -110.259)" fill="#e1a892"/>
              <path id="Trazado_617604" data-name="Trazado 617604" d="M262.885,152.815s-2.621-3.466-3.334-1.935a6.214,6.214,0,0,0-.336,3.39s.315-2.09,1.93-1.03c0,0-1.222,3.4,1.7,2.235a1.97,1.97,0,0,0,.038-2.66" transform="translate(-197.574 -116.212)" fill="#ca8062"/>
              <path id="Trazado_617605" data-name="Trazado 617605" d="M297.324,117.193c-.6,4.452-5.858,7.384-9.247,8.62a9.666,9.666,0,0,1-6.064.295c-12.109-4.63-10.381-10.454-10.38-15.491a39.136,39.136,0,0,1,2.19-12.5,8.515,8.515,0,0,1,.979-1.985c2.513-3.771,7.317-4.685,7.317-4.685,6.639-1.311,13.695,1.79,15.486,5.434a4.1,4.1,0,0,1,.268.887c1.127,4.553.127,14.432-.549,19.423" transform="translate(-207.071 -70.876)" fill="#f1c5b2"/>
              <path id="Trazado_617606" data-name="Trazado 617606" d="M321.6,140.468s-.842-.978-1.269,2.286-.5,6.737-.5,6.737-2.09-1.438-1.5.438a3.172,3.172,0,0,0,2.166,1.919,1.985,1.985,0,0,0,2.082-.453c.277-.233,1.73-1.5,1.337-1.96-.189-.221-1.412.181-1.719.233,0,0,1.1-9.805-.6-9.2" transform="translate(-242.731 -108.452)" fill="#e1a892"/>
              <path id="Trazado_617607" data-name="Trazado 617607" d="M348.616,132.928s5.833-.333,7.022,4.094c0,0-6.068-2.808-7.407-2.031Z" transform="translate(-265.651 -102.792)" fill="#151514"/>
              <path id="Trazado_617608" data-name="Trazado 617608" d="M294.758,129.115s-5.376-2.286-7.992,1.477c0,0,6.66-.59,7.657.594Z" transform="translate(-218.697 -99.358)" fill="#151514"/>
              <path id="Trazado_617609" data-name="Trazado 617609" d="M350.427,148.107a.21.21,0,0,0,.155.327,9.324,9.324,0,0,1,2.739.09c.92.274,2.219.912,2.41,1.963.029.157.238.125.264-.014.428-2.419-4.161-4.238-5.568-2.365" transform="translate(-267.301 -113.801)" fill="#151514"/>
              <path id="Trazado_617610" data-name="Trazado 617610" d="M295.373,142.776a.209.209,0,0,1-.2.3,9.3,9.3,0,0,0-2.721-.316c-.952.134-2.332.571-2.676,1.582-.051.151-.254.088-.257-.055-.065-2.455,4.744-3.571,5.857-1.51" transform="translate(-220.798 -109.498)" fill="#151514"/>
              <path id="Trazado_617611" data-name="Trazado 617611" d="M290,146.754a3.318,3.318,0,1,0,3.515-2.732A3.156,3.156,0,0,0,290,146.754" transform="translate(-221.164 -111.263)" fill="#fff"/>
              <path id="Trazado_617612" data-name="Trazado 617612" d="M300.019,147.882a2.128,2.128,0,1,1-1.861-2.792,2.411,2.411,0,0,1,1.861,2.792" transform="translate(-225.671 -112.084)" fill="#91b8cd"/>
              <path id="Trazado_617613" data-name="Trazado 617613" d="M301.359,150.313a1.512,1.512,0,1,1-1.323-1.984,1.713,1.713,0,0,1,1.323,1.984" transform="translate(-227.605 -114.559)" fill="#151514"/>
              <path id="Trazado_617614" data-name="Trazado 617614" d="M306.913,147.411c-.021.281-.377.485-.793.454s-.738-.286-.717-.567.376-.485.793-.454.737.285.716.567" transform="translate(-232.934 -113.425)" fill="#fff"/>
              <path id="Trazado_617615" data-name="Trazado 617615" d="M345.54,152.944a3.315,3.315,0,1,0,3.518-2.77,3.172,3.172,0,0,0-3.518,2.77" transform="translate(-263.59 -115.963)" fill="#fff"/>
              <path id="Trazado_617616" data-name="Trazado 617616" d="M353.573,154.033a2.127,2.127,0,1,1-1.861-2.792,2.411,2.411,0,0,1,1.861,2.792" transform="translate(-266.581 -116.783)" fill="#91b8cd"/>
              <path id="Trazado_617617" data-name="Trazado 617617" d="M354.911,156.465a1.512,1.512,0,1,1-1.322-1.984,1.713,1.713,0,0,1,1.322,1.984" transform="translate(-268.516 -119.259)" fill="#151514"/>
              <path id="Trazado_617618" data-name="Trazado 617618" d="M360.469,153.564c-.021.281-.376.485-.792.454s-.737-.286-.716-.567.375-.486.793-.454.737.285.716.567" transform="translate(-273.847 -118.125)" fill="#fff"/>
              <path id="Trazado_617619" data-name="Trazado 617619" d="M309.911,190.953a20.538,20.538,0,0,1-1.863,2.96,13.277,13.277,0,0,1-2.062,2.207c-1.969,1.624-4.454,2.291-6.921-.789a17.852,17.852,0,0,1-2.435-4.408c-.3-.746-.6-1.566-.9-2.466,0,0,11.987,3.9,14.182,2.5" transform="translate(-225.544 -145.216)" fill="#4f2f21"/>
              <path id="Trazado_617620" data-name="Trazado 617620" d="M309.911,190.953a20.538,20.538,0,0,1-1.863,2.96c-4.008.807-8.733-1.426-11.418-2.991-.3-.746-.6-1.566-.9-2.466,0,0,11.987,3.9,14.182,2.5" transform="translate(-225.544 -145.216)" fill="#fff"/>
              <path id="Trazado_617621" data-name="Trazado 617621" d="M316.782,216.626c-1.969,1.624-4.454,2.291-6.921-.789a7.235,7.235,0,0,1,6.921.789" transform="translate(-236.34 -165.722)" fill="#c96f68"/>
              <path id="Trazado_617622" data-name="Trazado 617622" d="M278.2,86.629a.109.109,0,0,0-.077.078c-1.415-.744-3.261-.17-4.631.413a14.96,14.96,0,0,0-5.07,3.208,7.1,7.1,0,0,0-2.041,5.686,15.241,15.241,0,0,0,.709,3.181,22.086,22.086,0,0,1,.792,4.152c.01.089.13.174.2.084,1.309-1.646,1.714-3.98,2-6.1a5.858,5.858,0,0,0,.655,2.005c.209.384.53.4.669-.023a3.515,3.515,0,0,0,.091-1.067,14.272,14.272,0,0,1,.178-2.161,8.726,8.726,0,0,1,.792-2.773c-.035.994.526,2.376,1.515,2.063,1.325-.42,1.362-2.58,1.438-3.763.336.119.557.419.951.459a1.636,1.636,0,0,0,1.147-.5,6.2,6.2,0,0,0,1.781-2.505c.317-.85.275-2.86-1.107-2.442" transform="translate(-203.106 -67.218)" fill="#262625"/>
              <path id="Trazado_617623" data-name="Trazado 617623" d="M370.863,102a10.408,10.408,0,0,0-3.034-5.581c-.936-.79-2.521-1.516-3.7-.863a3.285,3.285,0,0,0-.963,3.169.1.1,0,0,0,.005.107,25.153,25.153,0,0,0,1.78,2.228,12.652,12.652,0,0,1,1.647,2.811,15.656,15.656,0,0,1,1.514,6.548.119.119,0,0,0,.22.06,25.808,25.808,0,0,0,1.5-2.44,6.147,6.147,0,0,0,.493-2.044,1.9,1.9,0,0,0,.169.628.118.118,0,0,0,.162.042c.491-.316.546-1.033.592-1.561a10.535,10.535,0,0,0-.378-3.105" transform="translate(-276.969 -74.051)" fill="#262625"/>
              <path id="Trazado_617624" data-name="Trazado 617624" d="M318.068,66.025a5.939,5.939,0,0,1-3.575,1.844c1.228-.975,2.463-2.351,2.517-3.964a.12.12,0,0,0-.151-.116,2.992,2.992,0,0,0-.637.375,3.133,3.133,0,0,1-1.145.385,4.042,4.042,0,0,1-2.651-.477,21.29,21.29,0,0,1-3.775-3.107,13.806,13.806,0,0,0-7.7-3.73,12.521,12.521,0,0,0-3.843.231c-.205.04-.409.09-.612.144A14.4,14.4,0,0,0,293.036,59a.527.527,0,0,0-.052.031c-.142.078-.283.163-.428.25a12.945,12.945,0,0,0-1.116.76c-.094.068-.187.142-.276.215a7.667,7.667,0,0,0-1.209,1.223,8.628,8.628,0,0,0-1.065,1.7c-.035.071-.066.144-.094.217-.005.009-.007.021-.012.031a3.465,3.465,0,0,0-.239.963c-.031.4.068.791.062,1.19a.5.5,0,0,0-.05.05c-.085.1.038.248.132.2a.122.122,0,0,0,.13-.052,1.024,1.024,0,0,0,.061-.111c.55-.331,1.483.46,1.823.805a10.715,10.715,0,0,1,1.192,1.6,19.734,19.734,0,0,0,2.727,3.251,7.622,7.622,0,0,0,3.5,1.622,30.509,30.509,0,0,0,4.934.789,15.539,15.539,0,0,0,6.554-.77h0c.066-.021.132-.045.2-.068l.193-.071h0c.042-.014.085-.031.127-.047.059-.021.118-.045.175-.071a15.443,15.443,0,0,0,1.683-.779,15.87,15.87,0,0,0,2.854-1.872c.09-.073.177-.151.262-.229s.147-.135.217-.2.111-.111.168-.168c.024-.024.047-.05.071-.076.465-.486.869-1.029,1.324-1.525a12.061,12.061,0,0,0,1.369-1.688.117.117,0,0,0-.184-.142" transform="translate(-220.044 -44.93)" fill="#3b3b38"/>
              <path id="Trazado_617625" data-name="Trazado 617625" d="M311.13,81.981c-.057.026-.116.05-.175.071-.043.017-.085.033-.127.047h0l-.193.071c-.064.024-.13.047-.2.068h0a7.31,7.31,0,0,1-.72-.184A32.949,32.949,0,0,1,300.91,78a58.278,58.278,0,0,0-6.249-4.108,9.011,9.011,0,0,0-5.05-1.188c0-.009.007-.021.012-.031.029-.073.059-.146.094-.217a8.179,8.179,0,0,1,4.056.758,36.2,36.2,0,0,1,6.388,3.978,33.789,33.789,0,0,0,8.61,4.3,13.661,13.661,0,0,0,1.8.489c-2.687-1.247-4.566-3.447-6.455-5.673-2.011-2.366-4.283-4.606-7.241-5.732a17.536,17.536,0,0,0-4.613-1.018c-.09-.009-.179-.017-.271-.024.089-.073.181-.146.276-.215.385.038.767.087,1.15.146a15.824,15.824,0,0,1,4.214,1.173,20.123,20.123,0,0,1,6.766,5.638c1.889,2.233,3.917,4.665,6.733,5.7" transform="translate(-220.871 -54.206)"/>
              <path id="Trazado_617626" data-name="Trazado 617626" d="M328.136,75.786c-.085.078-.172.156-.262.229a12.275,12.275,0,0,1-1.738-.151c-3.447-.536-6.384-2.611-9.094-4.7-1.343-1.036-2.656-2.111-3.952-3.206a10.422,10.422,0,0,0-4.365-2.507,11.02,11.02,0,0,0-3.135-.208c.144-.087.286-.172.427-.25a10.161,10.161,0,0,1,1.9.078,8.876,8.876,0,0,1,4.264,1.853c2.79,2.148,5.352,4.589,8.374,6.429a14.919,14.919,0,0,0,4.847,2.144,14.451,14.451,0,0,0,2.729.288" transform="translate(-233.077 -50.891)"/>
              <path id="Trazado_617627" data-name="Trazado 617627" d="M341.334,70.313c-.024.026-.047.052-.071.076-.056.057-.111.113-.168.168a5.866,5.866,0,0,1-2.578-.479c-2.793-1.209-4.391-3.888-6.285-6.119a15.306,15.306,0,0,0-7.561-4.908,17.786,17.786,0,0,0-2.4-.505c.2-.054.406-.1.612-.144a16.21,16.21,0,0,1,5.8,2.141,14.552,14.552,0,0,1,3.254,2.708c.991,1.117,1.858,2.337,2.823,3.478a10.881,10.881,0,0,0,3.517,2.984,6.331,6.331,0,0,0,3.06.6" transform="translate(-245.819 -45.864)"/>
              <g id="Grupo_885292" data-name="Grupo 885292" transform="translate(67.369 32.226)" opacity="0.4">
                <g id="Grupo_885291" data-name="Grupo 885291">
                  <g id="Grupo_885290-2" data-name="Grupo 885290" clip-path="url(#clip-path-14)">
                    <path id="Trazado_617628" data-name="Trazado 617628" d="M290.762,142.46a18.2,18.2,0,0,0-3.321-.658,27.6,27.6,0,0,0-2.333,3.286,15.149,15.149,0,0,0-1.306,2.677,5.582,5.582,0,0,0,3.639,1.827c.9-2.448,1.656-5.2,3.32-7.131" transform="translate(-283.803 -141.802)" fill="#ebeced"/>
                  </g>
                </g>
              </g>
              <g id="Grupo_885295" data-name="Grupo 885295" transform="translate(82.232 34.317)" opacity="0.4">
                <g id="Grupo_885294" data-name="Grupo 885294">
                  <g id="Grupo_885293" data-name="Grupo 885293" clip-path="url(#clip-path-15)">
                    <path id="Trazado_617629" data-name="Trazado 617629" d="M353.171,150.993a18.16,18.16,0,0,0-3.369-.334,27.645,27.645,0,0,0-2,3.5,15.127,15.127,0,0,0-1.04,2.791,5.582,5.582,0,0,0,3.8,1.466c.66-2.524,1.145-5.339,2.615-7.419" transform="translate(-346.758 -150.659)" fill="#ebeced"/>
                  </g>
                </g>
              </g>
              <path id="Trazado_617630" data-name="Trazado 617630" d="M301.472,147.108c1.577-3.113,1.454-4.552,1.435-4.706l-.035-.276-.242-.138a14.018,14.018,0,0,0-10.177-1.058,13.109,13.109,0,0,0-1.735.643l.019-.1-1.863-.187,0-.084-.227-.172A13.132,13.132,0,0,0,287.054,140a14.02,14.02,0,0,0-10.165-1.174l-.266.083-.094.262c-.052.146-.485,1.525.379,4.905a4.457,4.457,0,0,0,2.31,2.85,8.062,8.062,0,0,0,3.172.9c3.773.12,4.683-1.577,5.286-2.7.033-.063.066-.123.1-.183a9.717,9.717,0,0,0,.843-2.04,2.32,2.32,0,0,1,1.669.272,9.564,9.564,0,0,0,.39,2.423c.019.065.038.131.057.2.345,1.227.865,3.082,4.574,3.783a8.068,8.068,0,0,0,3.292-.188,4.456,4.456,0,0,0,2.872-2.281m-19.037-.4a7.03,7.03,0,0,1-2.679-.761,3.383,3.383,0,0,1-1.766-2.148,11.046,11.046,0,0,1-.459-3.99,13.08,13.08,0,0,1,8.986,1.167,12.1,12.1,0,0,1,1.211.763,7.817,7.817,0,0,1-.931,2.663c-.034.062-.069.126-.1.192-.556,1.036-1.186,2.211-4.259,2.113m15.853,1.61a7.031,7.031,0,0,1-2.78.162c-3.021-.571-3.382-1.854-3.7-2.987q-.03-.108-.06-.21a7.818,7.818,0,0,1-.332-2.8,11.994,11.994,0,0,1,1.348-.483,13.079,13.079,0,0,1,9.026.809,11.046,11.046,0,0,1-1.313,3.795,3.384,3.384,0,0,1-2.19,1.715" transform="translate(-210.76 -106.945)" fill="#2f2f2f"/>
              <path id="Trazado_617631" data-name="Trazado 617631" d="M305.671,405.155a.207.207,0,0,1-.39.125l-1.091-3.417a.207.207,0,0,1,.391-.124Z" transform="translate(-232.002 -308.056)" fill="#5d687b"/>
              <path id="Trazado_617632" data-name="Trazado 617632" d="M273.812,307.373a.78.78,0,1,1-1.485.474l-.848-2.657a.78.78,0,1,1,1.485-.475Z" transform="translate(-206.991 -233.613)" fill="#e6b335"/>
              <path id="Trazado_617633" data-name="Trazado 617633" d="M279.986,324.114a55.748,55.748,0,0,1,2.275,9.566,6.549,6.549,0,0,1-.1,3.133l-.65.208a5.965,5.965,0,0,1-1.761-2.247c-.045-.08-.092-.163-.138-.247a55.793,55.793,0,0,1-3.69-9.115c-.046-.143-.091-.287-.135-.429-.149-.477-.293-.949-.427-1.414-1.316-4.5-1.985-8.345-1.8-10.106l1.426-.456a14.19,14.19,0,0,1,1.768,2.878,55.694,55.694,0,0,1,2.622,6.4c.16.457.317.925.471,1.4.047.142.092.286.138.43" transform="translate(-208.586 -240.361)" fill="#c2711f"/>
              <path id="Trazado_617634" data-name="Trazado 617634" d="M285.806,353.7l-4.062,1.3c-.149-.476-.292-.949-.428-1.413l4.019-1.283q.239.686.471,1.4" transform="translate(-214.535 -270.375)" fill="#e7be58"/>
              <path id="Trazado_617635" data-name="Trazado 617635" d="M301.191,403.921l.649-.208a6.535,6.535,0,0,0,.1-3.133l-2.649.846a6.546,6.546,0,0,0,1.9,2.495" transform="translate(-228.267 -307.261)" fill="#ffc639"/>
              <path id="Trazado_617636" data-name="Trazado 617636" d="M280.9,318.817a.492.492,0,1,1-.938.3l-2.72-8.52a.492.492,0,1,1,.938-.3Z" transform="translate(-211.402 -238.03)" fill="#ffc639"/>
              <path id="Trazado_617637" data-name="Trazado 617637" d="M326.813,261.91s22.965,18.03,13.45,29.549-33.052,2-33.052,2l2.5-9.766s23.036,8.263,20.782-.25-7.512-10.016-7.512-10.016Z" transform="translate(-234.316 -201.328)" fill="#3f4042"/>
              <path id="Trazado_617638" data-name="Trazado 617638" d="M279.332,347.073a4.533,4.533,0,0,0-2.139-3.817c-2.226-1.335-6.677-3.561-6.677-3.561s-1.056,1.544,2.179,3.73c-.967-.226-1.948-.405-2.93-.543a11.693,11.693,0,0,0-3.9-.009,5.457,5.457,0,0,0-1.814.672c-.314.2-1.161.6-1.179,1.017-.03.689,1.344.487,1.747.521.73.062,1.439.215,2.163.3l.372.046c-.564-.07-1.463.732-1.756,1.162-.658.964,1.69,1.179,2.23,1.287a3.3,3.3,0,0,0-1.093.05,1.284,1.284,0,0,0,.528,2.192,15.542,15.542,0,0,0,2.46.086,5.285,5.285,0,0,0-1.458.7c-.508.347-1,1.581,1.326,2.151,1.27.312,2.6-.361,3.888-.581,1.992-.34,4.359-.722,5.7-2.395a3.332,3.332,0,0,0,.357-3.013" transform="translate(-200.444 -260.749)" fill="#f1c5b2"/>
            </g>
          </g>
        </g>
      </g>
    </g>
  </g>
</svg>
