<svg xmlns="http://www.w3.org/2000/svg" xmlns:xlink="http://www.w3.org/1999/xlink" width="72" height="75.196" viewBox="0 0 72 75.196">
  <defs>
    <radialGradient id="radial-gradient" cx="0.707" cy="0.225" r="0.5" gradientUnits="objectBoundingBox">
      <stop offset="0" stop-color="#fcfdff"/>
      <stop offset="1" stop-color="#add8fa"/>
    </radialGradient>
    <filter id="Sustracción_8" x="0" y="20" width="69.687" height="55.196" filterUnits="userSpaceOnUse">
      <feOffset dy="3" input="SourceAlpha"/>
      <feGaussianBlur stdDeviation="3" result="blur"/>
      <feFlood flood-opacity="0.161"/>
      <feComposite operator="in" in2="blur"/>
      <feComposite in="SourceGraphic"/>
    </filter>
    <clipPath id="clip-path">
      <rect id="Rectángulo_327334" data-name="Rectángulo 327334" width="33.789" height="33.794" fill="#03386e"/>
    </clipPath>
  </defs>
  <g id="Grupo_885338" data-name="Grupo 885338" transform="translate(-801.399 -5080)">
    <g id="Grupo_876278" data-name="Grupo 876278" transform="translate(525.399 -2240)">
      <path id="Trazado_615224" data-name="Trazado 615224" d="M31.5,0A31.5,31.5,0,1,1,0,31.5,31.5,31.5,0,0,1,31.5,0Z" transform="translate(285 7320)" fill="url(#radial-gradient)"/>
      <g transform="matrix(1, 0, 0, 1, 276, 7320)" filter="url(#Sustracción_8)">
        <path id="Sustracción_8-2" data-name="Sustracción 8" d="M8407.5,11782a31.476,31.476,0,0,1-31.5-31.5,31.842,31.842,0,0,1,.514-5.7,38.533,38.533,0,0,0,51.173,29.878A31.38,31.38,0,0,1,8407.5,11782Z" transform="translate(-8367 -11718.8)" fill="#80c7ff"/>
      </g>
    </g>
    <g id="Grupo_876289" data-name="Grupo 876289" transform="translate(825.423 5093.402)">
      <g id="Grupo_876290" data-name="Grupo 876290" clip-path="url(#clip-path)">
        <path id="Trazado_615298" data-name="Trazado 615298" d="M2.819,67.127H26.8a2.51,2.51,0,0,1,.386.009.521.521,0,0,1,.459.539.532.532,0,0,1-.466.568,2.962,2.962,0,0,1-.387.007H1.152v1.106H32.633V68.251H32.09c-.927,0-1.853,0-2.78,0-.4,0-.628-.2-.638-.545s.225-.574.642-.576c.538,0,1.076,0,1.659,0V66.7q0-8.938,0-17.876c0-.6.155-.835.553-.841s.573.238.573.856q0,8.921,0,17.841v.45c.368,0,.7-.005,1.041,0a.577.577,0,0,1,.646.655c.006.669,0,1.337,0,2.006,0,.521-.2.715-.73.715q-4.54,0-9.079,0h-.425c.1.156.158.263.226.367q1.773,2.664,3.55,5.326c.164.245.3.485.134.778s-.424.291-.7.289c-.774-.006-1.549-.015-2.322,0a.862.862,0,0,1-.814-.432c-1.3-1.95-2.633-3.881-3.913-5.844a.9.9,0,0,0-1.126-.444v.369q0,2.8,0,5.6c0,.57-.184.749-.763.751-.633,0-1.267,0-1.9,0-.512,0-.713-.2-.714-.693q0-2.129,0-4.258c0-.444.213-.687.579-.677s.545.239.546.674c0,1.138,0,2.276,0,3.413v.4h1.1V70.506a17.752,17.752,0,0,1-1.953-.015,1.542,1.542,0,0,0-1.654.865C12.665,73.2,11.4,74.981,10.2,76.8a.94.94,0,0,1-.9.472c-.785-.024-1.572-.011-2.357,0a.616.616,0,0,1-.624-.3.632.632,0,0,1,.094-.689q1.8-2.688,3.592-5.382c.07-.106.137-.213.247-.385H.825c-.667,0-.823-.158-.823-.832,0-.61,0-1.22,0-1.83,0-.522.2-.713.727-.716.3,0,.608,0,.962,0v-18.3c0-.6.153-.838.548-.847s.579.238.579.85q0,8.921,0,17.841v.456m5.057,9.01c.428,0,.792.019,1.153-.01a.577.577,0,0,0,.385-.212c1.169-1.714,2.325-3.437,3.483-5.159.046-.069.079-.148.133-.25-.378,0-.707.017-1.034-.005a.586.586,0,0,0-.6.31c-1.093,1.666-2.2,3.322-3.306,4.981-.063.1-.122.194-.217.346m18.055,0c-1.245-1.869-2.443-3.671-3.648-5.469a.367.367,0,0,0-.244-.154c-.415-.016-.83-.007-1.251-.007.007.061,0,.087.013.1q1.809,2.7,3.625,5.387a.324.324,0,0,0,.218.133c.405.013.812.006,1.287.006" transform="translate(-0.001 -43.477)" fill="#03386e"/>
        <path id="Trazado_615299" data-name="Trazado 615299" d="M55.105,85.521H56.8v-.98c0-.575,0-1.15,0-1.724,0-.443.208-.654.64-.658q1.056-.009,2.111,0a.564.564,0,0,1,.624.637c.006.786,0,1.572,0,2.358v.362h1.688v-.366q0-2.8,0-5.6c0-.6.172-.776.769-.777h1.83c.6,0,.779.171.779.767q0,2.78,0,5.56v.406h1.689v-.628q0-2.129,0-4.258c0-.531.189-.719.719-.721q.968,0,1.935,0c.53,0,.722.191.723.718,0,1.618,0,3.237,0,4.884H72v-.4q0-3.906,0-7.812c0-.6.173-.767.777-.768.633,0,1.267,0,1.9,0,.5,0,.7.2.7.7q0,3.924,0,7.847v.457c.526,0,1.026,0,1.527,0s.727.173.732.554-.224.571-.715.571H54.717c-.552,0-.737-.186-.737-.739q0-6.581,0-13.161a1.46,1.46,0,0,1,.006-.246.559.559,0,0,1,1.109-.015,2.107,2.107,0,0,1,.011.386q0,6.088,0,12.176Zm18.036-.006H74.23V77.678H73.141Zm-10.127-.008H64.1V79.921H63.014Zm6.146-4.449H68.076v4.46H69.16ZM57.941,85.513h1.083V83.3H57.941Z" transform="translate(-48.911 -65.264)" fill="#03386e"/>
        <path id="Trazado_615300" data-name="Trazado 615300" d="M16.857,3.379H.851c-.7,0-.85-.148-.85-.837,0-.61,0-1.219,0-1.829C0,.2.194,0,.694,0q16.2,0,32.4,0c.5,0,.692.2.694.712q0,.967,0,1.935c0,.544-.192.73-.748.73H16.857M32.644,1.15H1.155V2.235H32.644Z" transform="translate(0)" fill="#03386e"/>
        <path id="Trazado_615301" data-name="Trazado 615301" d="M89.756,65.323c-.744.5-1.5.989-2.239,1.506a.5.5,0,0,0-.11.38,1.691,1.691,0,1,1-3.377.069,1.669,1.669,0,0,1,2.437-1.432A.434.434,0,0,0,87,65.815c.636-.441,1.282-.867,1.931-1.288a.351.351,0,0,0,.186-.394,1.674,1.674,0,0,1,3.277-.638.39.39,0,0,0,.344.327c.483.095.959.221,1.443.3a.49.49,0,0,0,.379-.119,1.688,1.688,0,0,1,2.137-.388.473.473,0,0,0,.391-.039c.643-.409,1.27-.842,1.908-1.259a.454.454,0,0,0,.256-.5,1.67,1.67,0,0,1,1.615-1.8,1.683,1.683,0,1,1-.005,3.363,1.889,1.889,0,0,1-.731-.214.366.366,0,0,0-.439.03c-.659.448-1.329.881-1.982,1.338a.466.466,0,0,0-.166.353,1.694,1.694,0,0,1-3.314.646.529.529,0,0,0-.311-.3c-.473-.132-.956-.233-1.439-.327a.452.452,0,0,0-.342.058,1.7,1.7,0,0,1-2.378.35m11.724-3.608a.561.561,0,1,0-.56.551.556.556,0,0,0,.56-.551M91.344,63.953a.561.561,0,1,0-.547.567.559.559,0,0,0,.547-.567m4.527,1.693a.56.56,0,1,0-.579-.533.556.556,0,0,0,.579.533M85.717,66.778a.56.56,0,1,0,.559.553.554.554,0,0,0-.559-.553" transform="translate(-76.142 -54.388)" fill="#03386e"/>
      </g>
    </g>
  </g>
</svg>
