<svg xmlns="http://www.w3.org/2000/svg" xmlns:xlink="http://www.w3.org/1999/xlink" width="72" height="75.196" viewBox="0 0 72 75.196">
  <defs>
    <radialGradient id="radial-gradient" cx="0.707" cy="0.225" r="0.5" gradientUnits="objectBoundingBox">
      <stop offset="0" stop-color="#fcfdff"/>
      <stop offset="1" stop-color="#add8fa"/>
    </radialGradient>
    <filter id="Sustracción_8" x="0" y="20" width="69.687" height="55.196" filterUnits="userSpaceOnUse">
      <feOffset dy="3" input="SourceAlpha"/>
      <feGaussianBlur stdDeviation="3" result="blur"/>
      <feFlood flood-opacity="0.161"/>
      <feComposite operator="in" in2="blur"/>
      <feComposite in="SourceGraphic"/>
    </filter>
    <clipPath id="clip-path">
      <rect id="Rectángulo_327335" data-name="Rectángulo 327335" width="34.683" height="38.885" fill="#03386e"/>
    </clipPath>
  </defs>
  <g id="Grupo_885341" data-name="Grupo 885341" transform="translate(-801.399 -5220.296)">
    <g id="Grupo_876279" data-name="Grupo 876279" transform="translate(525.399 -2099.704)">
      <path id="Trazado_615224" data-name="Trazado 615224" d="M31.5,0A31.5,31.5,0,1,1,0,31.5,31.5,31.5,0,0,1,31.5,0Z" transform="translate(285 7320)" fill="url(#radial-gradient)"/>
      <g transform="matrix(1, 0, 0, 1, 276, 7320)" filter="url(#Sustracción_8)">
        <path id="Sustracción_8-2" data-name="Sustracción 8" d="M8407.5,11782a31.476,31.476,0,0,1-31.5-31.5,31.842,31.842,0,0,1,.514-5.7,38.533,38.533,0,0,0,51.173,29.878A31.38,31.38,0,0,1,8407.5,11782Z" transform="translate(-8367 -11718.8)" fill="#80c7ff"/>
      </g>
    </g>
    <g id="Grupo_876291" data-name="Grupo 876291" transform="translate(826.558 5232.828)">
      <g id="Grupo_876291-2" data-name="Grupo 876291" clip-path="url(#clip-path)">
        <path id="Trazado_615302" data-name="Trazado 615302" d="M28.548,31.184c.047-.041.1-.081.141-.123.4-.381.563-.379.965.021q.645.642,1.287,1.287c1.059,1.059,2.124,2.111,3.173,3.18a1.915,1.915,0,0,1,.386,2.184,1.964,1.964,0,0,1-1.861,1.152,1.919,1.919,0,0,1-1.316-.576Q29.06,36.053,26.8,33.791c-.321-.321-.307-.486.012-.855a1,1,0,0,0,.117-.249.78.78,0,0,0-.291.049,7.345,7.345,0,0,1-8.079.3,1.108,1.108,0,0,0-.516-.1q-7.629-.008-15.257,0A2.554,2.554,0,0,1,0,30.134Q0,18.167,0,6.2a2.553,2.553,0,0,1,2.79-2.788H4.106c0-.321-.005-.614,0-.907A2.5,2.5,0,0,1,6.629,0Q13.7,0,20.763,0a1.576,1.576,0,0,1,1.088.42Q23.668,2.017,25.5,3.6a1.456,1.456,0,0,1,.53,1.186c-.007,4.957,0,9.914-.01,14.872a.616.616,0,0,0,.331.615,7.465,7.465,0,0,1,2.218,10.483,1.715,1.715,0,0,0-.139.385l.12.042M16.652,4.341H2.708A1.613,1.613,0,0,0,.93,6.113q0,12.043,0,24.086a1.621,1.621,0,0,0,1.8,1.795H17.2a7.731,7.731,0,0,1-2.112-3.718h-.454q-2.381,0-4.762,0c-.3,0-.547-.066-.6-.409-.048-.325.177-.521.6-.522q2.323,0,4.646,0h.422c-.02-.366-.037-.672-.055-1.007h-.444c-1.523,0-3.046.01-4.568-.013a.763.763,0,0,1-.558-.292c-.188-.308.09-.622.521-.623,1.575,0,3.149,0,4.724,0h.429a7.618,7.618,0,0,1,2.688-4.648H10.008c-.129,0-.3.04-.378-.024-.146-.113-.332-.293-.331-.444s.191-.327.338-.438c.084-.063.25-.022.378-.022q3.814,0,7.628,0a4.681,4.681,0,0,0,2.52-.376,1.1,1.1,0,0,1,.481-.135c.319-.018.356-.195.351-.463-.014-.761-.005-1.523,0-2.285,0-.32.147-.536.479-.528.31.007.448.219.449.521q0,.871,0,1.742v.7l3.148.495V4.728h-3.7c-.574,0-.684-.107-.685-.669q0-1.375,0-2.749V.945c-.115-.007-.166-.012-.218-.012q-6.892,0-13.784,0a1.676,1.676,0,0,0-.421.046C5.273,1.237,4.844,2.1,5.1,3.411h.46q5.517,0,11.034,0a1.664,1.664,0,0,1,1.164.427q1.815,1.6,3.648,3.18a1.415,1.415,0,0,1,.518,1.152c-.011,1.626,0,3.253,0,4.879,0,.065,0,.129,0,.193-.025.285-.175.469-.465.465a.449.449,0,0,1-.459-.474c-.008-.1,0-.207,0-.31V8.136H17.317c-.547,0-.664-.115-.665-.65,0-1.031,0-2.062,0-3.145m-.813,22.252a6.534,6.534,0,1,0,6.55-6.541,6.57,6.57,0,0,0-6.55,6.541m14.429,6.445-1.426,1.426c1.048,1.061,2.113,2.164,3.208,3.235a1.023,1.023,0,0,0,1.439-1.447c-1.07-1.1-2.167-2.166-3.221-3.214M21.624,3.768h2.67L21.624,1.5ZM20.208,7.185l-2.6-2.259V7.185Zm7.5,26.215.3.294,1.427-1.435-.237-.337L27.709,33.4" transform="translate(0 0)" fill="#03386e"/>
        <path id="Trazado_615303" data-name="Trazado 615303" d="M12.665,98.225c-.658,0-1.316,0-1.974,0-.421,0-.58-.163-.581-.59q-.006-1.974,0-3.948c0-.4.163-.569.56-.571q1.993-.008,3.986,0c.4,0,.56.167.561.57q.007,1.974,0,3.948c0,.44-.161.589-.619.591-.645,0-1.29,0-1.935,0m-1.61-.88h3.2V94.063h-3.2Z" transform="translate(-7.475 -68.864)" fill="#03386e"/>
        <path id="Trazado_615304" data-name="Trazado 615304" d="M11.06,37.229v3.224h3.19c.007-.01.033-.029.033-.048.005-.331.1-.6.49-.609.293-.009.446.224.45.64,0,.142,0,.284,0,.425-.014.376-.171.547-.545.548-1.353.006-2.707,0-4.06,0a.448.448,0,0,1-.5-.5q-.005-2.069,0-4.138c0-.341.2-.474.524-.473q1.643.005,3.287,0c.315,0,.54.123.541.462s-.22.468-.536.468H11.06" transform="translate(-7.478 -26.846)" fill="#03386e"/>
        <path id="Trazado_615305" data-name="Trazado 615305" d="M11.06,65.486v3.233h3.194a.224.224,0,0,0,.037-.084c0-.335.147-.572.5-.551s.452.29.436.612c-.007.142,0,.284,0,.426-.012.384-.161.544-.542.545-1.355.005-2.71,0-4.065,0a.441.441,0,0,1-.5-.5q0-2.053,0-4.105c0-.349.182-.514.533-.512,1.084,0,2.169,0,3.253,0,.378,0,.589.177.569.476-.025.367-.272.456-.594.454-.928,0-1.855,0-2.816,0" transform="translate(-7.48 -47.744)" fill="#03386e"/>
        <path id="Trazado_615306" data-name="Trazado 615306" d="M40.46,48.827c-1.432,0-2.863,0-4.295,0-.4,0-.627-.232-.554-.559s.308-.372.591-.371c1.148,0,2.3,0,3.444,0,1.69,0,3.379,0,5.069.006a.8.8,0,0,1,.494.143.47.47,0,0,1,.112.436.715.715,0,0,1-.453.328,9.286,9.286,0,0,1-1.159.016H40.46" transform="translate(-26.328 -35.424)" fill="#03386e"/>
        <path id="Trazado_615307" data-name="Trazado 615307" d="M17.977,22.654c-1.135,0-2.27,0-3.406,0-.311,0-.537-.1-.576-.438-.035-.3.2-.491.6-.492,1.2,0,2.4,0,3.6,0h3.135c.5,0,.708.136.715.455s-.221.474-.734.474H17.977" transform="translate(-10.348 -16.067)" fill="#03386e"/>
        <path id="Trazado_615308" data-name="Trazado 615308" d="M38.973,41.688c-.916,0-1.833,0-2.749,0-.412,0-.628-.167-.607-.476.024-.367.271-.455.593-.454,1.846,0,3.691,0,5.537,0,.4,0,.641.178.614.476-.032.356-.274.457-.6.455-.929-.006-1.859,0-2.788,0" transform="translate(-26.341 -30.144)" fill="#03386e"/>
        <path id="Trazado_615309" data-name="Trazado 615309" d="M38.954,69.951q-1.355,0-2.71,0c-.422,0-.627-.151-.635-.452-.008-.318.2-.476.649-.476q2.73,0,5.459,0c.415,0,.634.158.642.452s-.218.476-.656.477q-1.375,0-2.749,0" transform="translate(-26.336 -51.048)" fill="#03386e"/>
        <path id="Trazado_615310" data-name="Trazado 615310" d="M18.682,70.091c.547-.459,1-.837,1.454-1.221.243-.207.494-.3.75-.041.217.218.158.488-.157.757-.54.46-1.087.91-1.627,1.371a.519.519,0,0,1-.811-.04c-.222-.234-.46-.452-.68-.687a.461.461,0,1,1,.66-.642c.144.146.261.318.411.5" transform="translate(-12.906 -50.79)" fill="#03386e"/>
        <path id="Trazado_615311" data-name="Trazado 615311" d="M18.7,41.754c.523-.438.976-.82,1.432-1.2.3-.253.6-.267.775-.026.211.3.077.527-.169.731q-.819.679-1.63,1.367a.521.521,0,0,1-.812-.035c-.214-.224-.438-.438-.655-.658a.452.452,0,0,1-.051-.686.444.444,0,0,1,.709.037c.135.138.252.293.4.468" transform="translate(-12.91 -29.848)" fill="#03386e"/>
        <path id="Trazado_615312" data-name="Trazado 615312" d="M8,22.656a.471.471,0,1,1,0-.929.464.464,0,0,1,.526.445c.027.28-.2.48-.525.484" transform="translate(-5.51 -16.069)" fill="#03386e"/>
        <path id="Trazado_615313" data-name="Trazado 615313" d="M62.958,85.075a5.979,5.979,0,1,1,5.974,5.987,5.962,5.962,0,0,1-5.974-5.987m5.966,5.055a5.049,5.049,0,1,0-5.039-5.089,5.033,5.033,0,0,0,5.039,5.089" transform="translate(-46.563 -58.502)" fill="#03386e"/>
        <path id="Trazado_615314" data-name="Trazado 615314" d="M72.748,90.884a4.5,4.5,0,0,1,2.777,1.049,22.167,22.167,0,0,1,1.674,1.6.467.467,0,0,1,.074.665,6.919,6.919,0,0,1-3.6,2.614,3.933,3.933,0,0,1-3.439-.733A20.15,20.15,0,0,1,68.3,94.311a.476.476,0,0,1-.076-.7,6.807,6.807,0,0,1,3.794-2.643,7.029,7.029,0,0,1,.728-.088m1.81,3.022a1.815,1.815,0,0,0-1.821-1.814,1.819,1.819,0,1,0,.055,3.638,1.806,1.806,0,0,0,1.766-1.824m-4.507-.9-.835.854.835.834ZM75.438,94.8l.853-.9-.853-.846Z" transform="translate(-50.372 -67.217)" fill="#03386e"/>
      </g>
    </g>
  </g>
</svg>
