<svg xmlns="http://www.w3.org/2000/svg" xmlns:xlink="http://www.w3.org/1999/xlink" width="72" height="75.196" viewBox="0 0 72 75.196">
  <defs>
    <radialGradient id="radial-gradient" cx="0.707" cy="0.225" r="0.5" gradientUnits="objectBoundingBox">
      <stop offset="0" stop-color="#fcfdff"/>
      <stop offset="1" stop-color="#add8fa"/>
    </radialGradient>
    <filter id="Sustracción_8" x="0" y="20" width="69.687" height="55.196" filterUnits="userSpaceOnUse">
      <feOffset dy="3" input="SourceAlpha"/>
      <feGaussianBlur stdDeviation="3" result="blur"/>
      <feFlood flood-opacity="0.161"/>
      <feComposite operator="in" in2="blur"/>
      <feComposite in="SourceGraphic"/>
    </filter>
    <clipPath id="clip-path">
      <rect id="Rectángulo_327315" data-name="Rectángulo 327315" width="35.745" height="35.46" fill="#03386e"/>
    </clipPath>
  </defs>
  <g id="Grupo_885343" data-name="Grupo 885343" transform="translate(-170.5 -4695.7)">
    <g id="Grupo_870604" data-name="Grupo 870604" transform="translate(-105.5 -2624.3)">
      <path id="Trazado_615224" data-name="Trazado 615224" d="M31.5,0A31.5,31.5,0,1,1,0,31.5,31.5,31.5,0,0,1,31.5,0Z" transform="translate(285 7320)" fill="url(#radial-gradient)"/>
      <g transform="matrix(1, 0, 0, 1, 276, 7320)" filter="url(#Sustracción_8)">
        <path id="Sustracción_8-2" data-name="Sustracción 8" d="M8407.5,11782a31.476,31.476,0,0,1-31.5-31.5,31.842,31.842,0,0,1,.514-5.7,38.533,38.533,0,0,0,51.173,29.878A31.38,31.38,0,0,1,8407.5,11782Z" transform="translate(-8367 -11718.8)" fill="#80c7ff"/>
      </g>
    </g>
    <g id="Grupo_876280" data-name="Grupo 876280" transform="translate(195.997 4709.568)">
      <g id="Grupo_876280-2" data-name="Grupo 876280" clip-path="url(#clip-path)">
        <path id="Trazado_615225" data-name="Trazado 615225" d="M25.4,6.188c-.19-.01-.328-.023-.466-.023-1.094,0-2.189,0-3.283,0-.662,0-.861-.2-.862-.867,0-1.2-.007-2.4,0-3.6,0-.269-.064-.365-.353-.365q-9.391.012-18.782.007c-.091,0-.183.014-.294.023V34.1H25.39v-.42c0-1.613,0-3.225,0-4.838a.686.686,0,0,1,.234-.552c.35-.33.679-.681,1.069-1.077.014.165.029.261.029.357q0,3.531,0,7.062c0,.612-.214.829-.827.829q-12.533,0-25.066,0c-.589,0-.807-.219-.822-.806,0-.106,0-.212,0-.318q0-16.6,0-33.193C0,.988,0,.834.008.682a.651.651,0,0,1,.7-.674C.8,0,.9.006.991.006q10.1,0,20.194-.007a1.2,1.2,0,0,1,.956.411q2.1,2.238,4.237,4.448a1.131,1.131,0,0,1,.345.846c-.009,3.967,0,7.933-.015,11.9a.936.936,0,0,1-.223.547c-.31.367-.659.7-.992,1.049l-.091-.037Z" transform="translate(0 0.001)" fill="#03386e"/>
        <path id="Trazado_615226" data-name="Trazado 615226" d="M210.987,176.965c.953.932,1.872,1.824,2.777,2.73.059.059.031.236,0,.344-.025.08-.125.136-.191.2q-3.83,3.83-7.664,7.657a5.183,5.183,0,0,1-.823.656c-.758.494-1.536.958-2.3,1.45-.417.27-.815.531-1.309-.109a7.959,7.959,0,0,1-.538.679c-.259.263-.521.273-.711.07a.522.522,0,0,1,.077-.725,3.026,3.026,0,0,1,.25-.249c.227-.193.369-.363.088-.656a.59.59,0,0,1,.006-.542c.616-1.028,1.261-2.04,1.9-3.054a1.775,1.775,0,0,1,.254-.292q3.966-3.969,7.934-7.935c.082-.082.17-.157.246-.226m-6.572,10.923L203,186.4c-.453.725-.918,1.429-1.336,2.16-.157.274.18.4.331.544a.414.414,0,0,0,.386.046c.44-.245.861-.525,1.288-.793.264-.166.527-.334.744-.472" transform="translate(-181.278 -160.307)" fill="#03386e"/>
        <path id="Trazado_615227" data-name="Trazado 615227" d="M110.787,154.6c1.976,0,3.953,0,5.929,0,.576,0,.909.456.691.929a.663.663,0,0,1-.65.4h-1.235q-5.294,0-10.587,0c-.551,0-.9-.331-.818-.771.066-.364.325-.557.776-.558q2.753,0,5.505,0h.388" transform="translate(-94.306 -140.048)" fill="#03386e"/>
        <path id="Trazado_615228" data-name="Trazado 615228" d="M110.78,204.537h-5.716a2.036,2.036,0,0,1-.386-.021.676.676,0,0,1-.562-.672.659.659,0,0,1,.633-.635c.117-.011.235-.008.353-.008h11.4c.106,0,.212,0,.317.005a.665.665,0,0,1,.666.64.69.69,0,0,1-.633.684,2.854,2.854,0,0,1-.352.007H110.78" transform="translate(-94.314 -184.072)" fill="#03386e"/>
        <path id="Trazado_615229" data-name="Trazado 615229" d="M110.789,125.432q2.964,0,5.929,0c.571,0,.927.472.679.927-.093.171-.327.267-.5.388-.033.023-.092.008-.139.008q-5.964,0-11.928,0a.67.67,0,0,1-.722-.659.684.684,0,0,1,.754-.665q2.964,0,5.929,0" transform="translate(-94.306 -113.624)" fill="#03386e"/>
        <path id="Trazado_615230" data-name="Trazado 615230" d="M40.387,283.193c-.518,0-1.035.005-1.553,0a.622.622,0,0,1-.675-.654q-.019-1.57,0-3.141a.625.625,0,0,1,.651-.65q1.57-.02,3.14,0a.62.62,0,0,1,.651.68q.011,1.553,0,3.106a.608.608,0,0,1-.664.659c-.517.008-1.035,0-1.553,0m-.348-1.949c-.267-.239-.481-.438-.7-.628a.4.4,0,0,0-.623,0,.384.384,0,0,0,.053.591q.475.447.959.884a.445.445,0,0,0,.684-.03q.525-.522,1.048-1.046c.2-.2.4-.4.59-.606.16-.181.2-.426-.012-.554a.867.867,0,0,0-.568-.021c-.107.022-.191.165-.282.256-.372.373-.742.748-1.144,1.152" transform="translate(-34.559 -252.498)" fill="#03386e"/>
        <path id="Trazado_615231" data-name="Trazado 615231" d="M42.618,125.636c0,.506,0,1.012,0,1.517a.646.646,0,0,1-.717.724q-1.5.011-3,0a.663.663,0,0,1-.733-.751q-.007-1.482,0-2.964a.654.654,0,0,1,.744-.734q1.5-.007,3,0c.478,0,.7.237.706.725s0,.988,0,1.482m-2.562.279c-.26-.229-.481-.42-.7-.616a.416.416,0,1,0-.565.6,9.548,9.548,0,0,0,.971.87.6.6,0,0,0,.564.022c.607-.554,1.18-1.147,1.752-1.739a.364.364,0,0,0-.026-.54.384.384,0,0,0-.542-.039,2.043,2.043,0,0,0-.259.239c-.39.39-.778.782-1.2,1.2" transform="translate(-34.572 -111.807)" fill="#03386e"/>
        <path id="Trazado_615232" data-name="Trazado 615232" d="M324.768,146c.558-.569,1.067-1.1,1.6-1.613a.451.451,0,0,1,.414-.064c.257.139.383,0,.542-.151a1.53,1.53,0,0,1,2.208,2.116c-.175.189-.318.338-.192.635a.562.562,0,0,1-.144.466c-.43.466-.883.91-1.344,1.346a.318.318,0,0,1-.31.009c-.925-.9-1.838-1.812-2.776-2.744" transform="translate(-294.197 -130.185)" fill="#03386e"/>
        <path id="Trazado_615233" data-name="Trazado 615233" d="M40.4,201.309c.518,0,1.035-.008,1.553,0a.6.6,0,0,1,.655.662q.01,1.535,0,3.071a.6.6,0,0,1-.644.675q-1.57.018-3.141,0a.609.609,0,0,1-.662-.661q-.012-1.536,0-3.071a.619.619,0,0,1,.686-.677c.517-.011,1.035,0,1.553,0m-1.429,1.666c-.11.1-.282.177-.307.29a.591.591,0,0,0,.1.468,12.817,12.817,0,0,0,1.007.933c.231.2.453.125.653-.076.513-.517,1.032-1.028,1.543-1.548.256-.26.278-.484.073-.67-.254-.23-.473-.113-.676.088q-.475.472-.948.947c-.385.385-.385.384-.77.023a3.138,3.138,0,0,0-.316-.28,2.663,2.663,0,0,0-.356-.175" transform="translate(-34.565 -182.357)" fill="#03386e"/>
        <path id="Trazado_615234" data-name="Trazado 615234" d="M109.272,233.514h-4.164a3.066,3.066,0,0,1-.422-.018.651.651,0,0,1-.06-1.284,1.487,1.487,0,0,1,.349-.037q4.322,0,8.645,0a1.338,1.338,0,0,1,.382.048.654.654,0,0,1-.074,1.268,2.662,2.662,0,0,1-.422.023q-2.117,0-4.234,0" transform="translate(-94.309 -210.318)" fill="#03386e"/>
        <path id="Trazado_615235" data-name="Trazado 615235" d="M93.186,79.3q2.045,0,4.091,0a2.515,2.515,0,0,1,.421.025.652.652,0,0,1,.092,1.259,1.069,1.069,0,0,1-.345.054q-4.285,0-8.569,0a1.041,1.041,0,0,1-.379-.061.614.614,0,0,1-.405-.7.587.587,0,0,1,.512-.547,2.561,2.561,0,0,1,.456-.027q2.063,0,4.126,0" transform="translate(-79.793 -71.831)" fill="#03386e"/>
        <path id="Trazado_615236" data-name="Trazado 615236" d="M106,50.17c.987,0,1.973,0,2.96,0,.516,0,.786.224.795.64s-.282.691-.792.692c-1.985,0-3.97,0-5.955,0-.316,0-.618-.076-.719-.391a.812.812,0,0,1,.056-.647.9.9,0,0,1,.626-.284c1.009-.029,2.02-.013,3.03-.013" transform="translate(-92.626 -45.443)" fill="#03386e"/>
        <path id="Trazado_615237" data-name="Trazado 615237" d="M107.806,311.33c-.964,0-1.927,0-2.891,0-.489,0-.793-.25-.8-.648s.309-.677.81-.678c1.939,0,3.878,0,5.817,0,.3,0,.573.087.655.37a.9.9,0,0,1-.065.678.83.83,0,0,1-.6.268c-.975.027-1.95.012-2.926.012" transform="translate(-94.311 -280.821)" fill="#03386e"/>
        <path id="Trazado_615238" data-name="Trazado 615238" d="M107.412,282.139c-.834,0-1.667,0-2.5,0-.491,0-.791-.254-.795-.652s.319-.677.816-.678q2.448,0,4.9,0c.059,0,.118,0,.176,0a.665.665,0,0,1,.644.7.63.63,0,0,1-.665.627c-.857.01-1.714,0-2.571,0v0" transform="translate(-94.315 -254.374)" fill="#03386e"/>
      </g>
    </g>
  </g>
</svg>
