<svg xmlns="http://www.w3.org/2000/svg" xmlns:xlink="http://www.w3.org/1999/xlink" width="72" height="75.196" viewBox="0 0 72 75.196">
  <defs>
    <radialGradient id="radial-gradient" cx="0.707" cy="0.225" r="0.5" gradientUnits="objectBoundingBox">
      <stop offset="0" stop-color="#fcfdff"/>
      <stop offset="1" stop-color="#add8fa"/>
    </radialGradient>
    <filter id="Sustracción_8" x="0" y="20" width="69.687" height="55.196" filterUnits="userSpaceOnUse">
      <feOffset dy="3" input="SourceAlpha"/>
      <feGaussianBlur stdDeviation="3" result="blur"/>
      <feFlood flood-opacity="0.161"/>
      <feComposite operator="in" in2="blur"/>
      <feComposite in="SourceGraphic"/>
    </filter>
    <clipPath id="clip-path">
      <rect id="Rectángulo_327332" data-name="Rectángulo 327332" width="34.675" height="33.811" fill="#03386e"/>
    </clipPath>
  </defs>
  <g id="Grupo_885337" data-name="Grupo 885337" transform="translate(-801.399 -4953.504)">
    <g id="Grupo_876277" data-name="Grupo 876277" transform="translate(525.399 -2366.496)">
      <path id="Trazado_615224" data-name="Trazado 615224" d="M31.5,0A31.5,31.5,0,1,1,0,31.5,31.5,31.5,0,0,1,31.5,0Z" transform="translate(285 7320)" fill="url(#radial-gradient)"/>
      <g transform="matrix(1, 0, 0, 1, 276, 7320)" filter="url(#Sustracción_8)">
        <path id="Sustracción_8-2" data-name="Sustracción 8" d="M8407.5,11782a31.476,31.476,0,0,1-31.5-31.5,31.842,31.842,0,0,1,.514-5.7,38.533,38.533,0,0,0,51.173,29.878A31.38,31.38,0,0,1,8407.5,11782Z" transform="translate(-8367 -11718.8)" fill="#80c7ff"/>
      </g>
    </g>
    <g id="Grupo_876288" data-name="Grupo 876288" transform="translate(824.289 4966.617)">
      <g id="Grupo_876288-2" data-name="Grupo 876288" clip-path="url(#clip-path)">
        <path id="Trazado_615278" data-name="Trazado 615278" d="M0,17.855a.734.734,0,0,1,.714-.345c1.117.014,2.235.005,3.352.005h.381a4.533,4.533,0,0,1,.874-2.16,4.479,4.479,0,0,1,3.76-1.792q9.871.015,19.741,0a4.705,4.705,0,0,0,1.1-.121,3.428,3.428,0,0,0-.412-6.723c-.4-.048-.8-.042-1.255-.064V7.1q0,2.273,0,4.546c0,.545-.158.7-.711.7q-1.422,0-2.844,0a1.929,1.929,0,0,1-.237-.005.515.515,0,0,1-.49-.511.5.5,0,0,1,.529-.5c.779-.009,1.558,0,2.336,0h.382V1.039H19.448V11.328h.918c.61,0,1.219,0,1.828.006a.462.462,0,0,1,.487.465.442.442,0,0,1-.42.523c-1.139.024-2.279.029-3.418,0-.338-.008-.441-.29-.44-.614.005-1.538,0-3.076,0-4.614V6.7H15.856v.366q0,2.29,0,4.58c0,.543-.159.7-.711.7q-1.439,0-2.878,0a1.648,1.648,0,0,1-.2-.005.5.5,0,0,1-.485-.545.487.487,0,0,1,.523-.464c.779-.008,1.558,0,2.336,0h.383V1.04H7.032V11.328h.381c.768,0,1.535,0,2.3,0a.513.513,0,0,1,.57.494.506.506,0,0,1-.521.514c-1.083.012-2.167.014-3.251,0-.359,0-.518-.225-.519-.653q-.005-2.29,0-4.58V6.712c-.582-.042-1.127-.037-1.655-.128a4.444,4.444,0,0,1-3.6-4.223c0-.4.169-.638.478-.653s.52.22.54.638a3.428,3.428,0,0,0,3.379,3.3c.269.006.537,0,.855,0V5.23q0-2.256,0-4.512C5.995.143,6.14,0,6.717,0h8.4c.606,0,.741.133.742.728q0,2.256,0,4.512v.389H18.4V5.248q0-2.273,0-4.546c0-.558.144-.7.7-.7h8.432c.582,0,.722.138.723.713q0,2.256,0,4.512v.4c.466.026.913.03,1.356.077a4.452,4.452,0,0,1,.034,8.834,7.234,7.234,0,0,1-.81.047q-9.871,0-19.741,0a3.442,3.442,0,0,0-3.375,2.1,6.8,6.8,0,0,0-.269.835H8.72c1.152,0,1.153,0,1.153,1.145v4.494H12.4v-.37q0-2.273,0-4.546c0-.566.157-.722.725-.722h8.432c.563,0,.718.157.719.729q0,2.256,0,4.512c0,.123,0,.245,0,.394H24.8V22.76q0-2.256,0-4.512c0-.574.156-.732.717-.732h8.465c.525,0,.688.163.688.687q0,5.479,0,10.959c0,.543-.16.7-.708.7H30.229a4.562,4.562,0,0,1-.977,2.29,4.256,4.256,0,0,1-3.383,1.65q-10.412.017-20.825.005c-.392,0-.626-.2-.618-.516s.247-.5.642-.5q2.082,0,4.165,0,8.228,0,16.457,0a3.437,3.437,0,0,0,3.48-2.779,1.3,1.3,0,0,0,.008-.149h-3.54c-.711,0-.833-.12-.834-.82q0-2.222,0-4.444v-.384H22.276c0,.14,0,.261,0,.383q0,2.273,0,4.546c0,.562-.16.719-.729.719q-1.456,0-2.912,0c-.422,0-.652-.191-.645-.521s.228-.494.634-.5c.866,0,1.732,0,2.617,0V18.557h-7.8V28.845h1.047c.553,0,1.106-.005,1.659,0a.5.5,0,0,1,.54.487.51.51,0,0,1-.539.526c-.079,0-.158,0-.237,0-.948,0-1.9,0-2.844,0-.5,0-.668-.175-.668-.677q0-2.29,0-4.58v-.389H9.874v.376q0,2.273,0,4.546c0,.566-.16.724-.726.724-2.811,0-5.621,0-8.432.005A.747.747,0,0,1,0,29.526Zm33.644.7h-7.8V28.827h7.8ZM1.03,28.825h7.8V18.552H1.03Z" transform="translate(0 0)" fill="#03386e"/>
        <path id="Trazado_615279" data-name="Trazado 615279" d="M228.14,64.586c.778,0,1.557,0,2.335,0,.458,0,.629.174.631.638q0,1.628,0,3.256c0,.447-.169.626-.608.627q-2.352.008-4.7,0c-.423,0-.595-.183-.6-.6q-.006-1.662,0-3.323c0-.413.185-.589.608-.592.778,0,1.557,0,2.335,0m1.926,1.039h-3.828v2.452h3.828Z" transform="translate(-204.819 -58.741)" fill="#03386e"/>
        <path id="Trazado_615280" data-name="Trazado 615280" d="M161.768,220.429c-.768,0-1.535,0-2.3,0-.458,0-.644-.18-.647-.633q-.009-1.17,0-2.341c0-.434.191-.617.626-.618q2.336,0,4.673,0c.436,0,.627.184.631.614q.01,1.187,0,2.375a.532.532,0,0,1-.609.6c-.79.006-1.58,0-2.37,0m1.948-2.558h-3.86v1.515h3.86Z" transform="translate(-144.445 -197.216)" fill="#03386e"/>
        <path id="Trazado_615281" data-name="Trazado 615281" d="M161.787,270.707c-.768,0-1.535,0-2.3,0-.478,0-.659-.177-.662-.652q-.007-1.153,0-2.307c0-.455.186-.631.646-.631q2.319,0,4.639,0c.458,0,.642.179.646.632q.008,1.17,0,2.341c0,.43-.2.614-.629.616-.779,0-1.558,0-2.336,0m-1.921-1.047h3.851v-1.516h-3.851Z" transform="translate(-144.449 -242.947)" fill="#03386e"/>
        <path id="Trazado_615282" data-name="Trazado 615282" d="M93.659,49.528c.313-.337.59-.647.882-.944q.771-.786,1.557-1.556a.5.5,0,1,1,.725.7Q95.42,49.15,94,50.554a.475.475,0,0,1-.725-.008q-.705-.683-1.387-1.39a.5.5,0,0,1-.017-.728.481.481,0,0,1,.723.012c.347.336.677.689,1.067,1.088" transform="translate(-83.422 -42.614)" fill="#03386e"/>
        <path id="Trazado_615283" data-name="Trazado 615283" d="M228.182,22.832c-.766,0-1.532,0-2.3,0-.418,0-.646-.195-.637-.528.009-.318.228-.488.637-.489q2.315,0,4.631,0c.412,0,.627.169.636.489s-.219.526-.637.527c-.777,0-1.555,0-2.332,0" transform="translate(-204.867 -19.84)" fill="#03386e"/>
        <path id="Trazado_615284" data-name="Trazado 615284" d="M228.195,44.633c-.777,0-1.555,0-2.332,0-.4,0-.621-.188-.621-.507s.223-.508.621-.508q2.332,0,4.664,0c.4,0,.621.189.621.508s-.223.506-.621.507c-.777,0-1.554,0-2.332,0" transform="translate(-204.863 -39.668)" fill="#03386e"/>
        <path id="Trazado_615285" data-name="Trazado 615285" d="M296.686,246.319c-.856,0-1.712.005-2.569,0-.463,0-.749-.384-.529-.725a.686.686,0,0,1,.487-.277c1.746-.02,3.492-.014,5.239-.011a.5.5,0,0,1,.56.5.506.506,0,0,1-.551.513c-.879.008-1.757,0-2.636,0" transform="translate(-266.957 -223.106)" fill="#03386e"/>
        <path id="Trazado_615286" data-name="Trazado 615286" d="M296.736,268.132c-.845,0-1.69,0-2.535,0-.394,0-.63-.192-.632-.5s.236-.511.625-.512q2.552,0,5.1,0c.4,0,.624.187.627.5s-.223.509-.619.51c-.856,0-1.712,0-2.569,0" transform="translate(-267.008 -242.948)" fill="#03386e"/>
        <path id="Trazado_615287" data-name="Trazado 615287" d="M296.781,223.5c.845,0,1.69,0,2.534,0,.4,0,.62.193.615.511s-.226.5-.6.5q-2.568.007-5.137,0c-.385,0-.626-.213-.62-.521s.24-.493.637-.494c.856,0,1.712,0,2.568,0" transform="translate(-267.014 -203.275)" fill="#03386e"/>
        <path id="Trazado_615288" data-name="Trazado 615288" d="M295.69,289.9c-.508,0-1.016,0-1.523,0-.366,0-.6-.2-.6-.5a.531.531,0,0,1,.6-.511q1.523-.008,3.047,0a.518.518,0,0,1,.574.528c-.01.3-.223.481-.575.485-.508.005-1.016,0-1.523,0" transform="translate(-267.01 -262.743)" fill="#03386e"/>
        <path id="Trazado_615289" data-name="Trazado 615289" d="M21.75,219.6q0-1.763,0-3.525c0-.5.174-.676.669-.677q2.3,0,4.6,0c.476,0,.656.175.657.655q.005,3.542,0,7.084c0,.483-.179.659-.653.66q-2.317,0-4.634,0c-.453,0-.638-.185-.639-.638,0-1.186,0-2.373,0-3.559m2.965.914-1.492,2.247h2.986l-1.493-2.247m0-1.83,1.485-2.247H23.225l1.491,2.247m1.913,2.874v-3.918c-.434.65-.823,1.227-1.2,1.81a.277.277,0,0,0-.035.235c.392.61.8,1.211,1.237,1.874m-3.852-.078.061.024c.393-.591.793-1.178,1.172-1.777a.379.379,0,0,0-.04-.322c-.288-.459-.594-.906-.9-1.357-.082-.122-.167-.241-.3-.43Z" transform="translate(-19.781 -195.907)" fill="#03386e"/>
      </g>
    </g>
  </g>
</svg>
