<svg xmlns="http://www.w3.org/2000/svg" xmlns:xlink="http://www.w3.org/1999/xlink" width="72" height="75.196" viewBox="0 0 72 75.196">
  <defs>
    <radialGradient id="radial-gradient" cx="0.707" cy="0.225" r="0.5" gradientUnits="objectBoundingBox">
      <stop offset="0" stop-color="#fcfdff"/>
      <stop offset="1" stop-color="#add8fa"/>
    </radialGradient>
    <filter id="Sustracción_8" x="0" y="20" width="69.687" height="55.196" filterUnits="userSpaceOnUse">
      <feOffset dy="3" input="SourceAlpha"/>
      <feGaussianBlur stdDeviation="3" result="blur"/>
      <feFlood flood-opacity="0.161"/>
      <feComposite operator="in" in2="blur"/>
      <feComposite in="SourceGraphic"/>
    </filter>
    <clipPath id="clip-path">
      <rect id="Rectángulo_327326" data-name="Rectángulo 327326" width="40.161" height="32.302" fill="#03386e"/>
    </clipPath>
  </defs>
  <g id="Grupo_885345" data-name="Grupo 885345" transform="translate(-170.5 -4953.603)">
    <g id="Grupo_876271" data-name="Grupo 876271" transform="translate(-105.5 -2366.397)">
      <path id="Trazado_615224" data-name="Trazado 615224" d="M31.5,0A31.5,31.5,0,1,1,0,31.5,31.5,31.5,0,0,1,31.5,0Z" transform="translate(285 7320)" fill="url(#radial-gradient)"/>
      <g transform="matrix(1, 0, 0, 1, 276, 7320)" filter="url(#Sustracción_8)">
        <path id="Sustracción_8-2" data-name="Sustracción 8" d="M8407.5,11782a31.476,31.476,0,0,1-31.5-31.5,31.842,31.842,0,0,1,.514-5.7,38.533,38.533,0,0,0,51.173,29.878A31.38,31.38,0,0,1,8407.5,11782Z" transform="translate(-8367 -11718.8)" fill="#80c7ff"/>
      </g>
    </g>
    <g id="Grupo_876282" data-name="Grupo 876282" transform="translate(192.5 4969.587)">
      <g id="Grupo_876282-2" data-name="Grupo 876282" clip-path="url(#clip-path)">
        <path id="Trazado_615250" data-name="Trazado 615250" d="M0,5.094A4.531,4.531,0,0,1,.76,4a2.813,2.813,0,0,1,1.214-.45c.364-.069.543-.2.539-.572-.005-.444-.008-.889,0-1.333A1.613,1.613,0,0,1,4.16,0q7.782-.01,15.564,0A1.6,1.6,0,0,1,21.3,1.079c.286.7.571,1.4.829,2.113a.452.452,0,0,0,.511.346c2.156-.012,4.312-.007,6.469-.006a2.013,2.013,0,0,1,2.235,2.228c0,.3,0,.6,0,.956h.451c1.228,0,2.457-.008,3.685,0a1.935,1.935,0,0,1,2.029,2.452q-1.175,6.85-2.355,13.7a.591.591,0,0,0,.189.586c1.165,1.145,2.3,2.318,3.475,3.455a4.144,4.144,0,0,1,1.342,2.108v.863a.4.4,0,0,0-.054.1,2.87,2.87,0,0,1-4.995,1.32c-.542-.583-1.119-1.135-1.693-1.688a.516.516,0,0,0-.355-.122c-.362.025-.721.125-1.081.126q-14.344.011-28.687.006c-.144,0-.288,0-.431,0A2.875,2.875,0,0,1,.218,27.8c-.092-.212-.146-.44-.218-.661V5.094M30.17,6.715c0-.328,0-.6,0-.871,0-.894-.244-1.136-1.142-1.136q-7.314,0-14.628,0A1.623,1.623,0,0,1,12.71,3.57c-.265-.653-.529-1.307-.778-1.966a.586.586,0,0,0-.617-.43c-2.353.006-4.706,0-7.059.005-.41,0-.56.159-.566.574-.006.471.011.942-.007,1.412A1.616,1.616,0,0,1,2.223,4.7c-.872.076-1.046.268-1.046,1.153q0,10.275,0,20.55c0,.144-.005.288,0,.431a1.73,1.73,0,0,0,1.953,1.588,1.752,1.752,0,0,0,1.487-1.6c.513-2.76,1-5.524,1.491-8.288q.909-5.11,1.813-10.22A1.862,1.862,0,0,1,9.567,6.75c1.2-.051,2.4-.03,3.607-.021a.523.523,0,0,1,.543.555.548.548,0,0,1-.51.592,2.051,2.051,0,0,1-.352.016c-.941,0-1.882,0-2.824,0-.634,0-.88.2-.99.821-.715,4.024-1.391,8.055-2.152,12.069a47.17,47.17,0,0,1-1.575,7.64H32.281c-.406-.389-.736-.7-1.058-1.017a1.187,1.187,0,0,1-.466-1.073c.171-.669-.221-1-.618-1.37a6.9,6.9,0,0,1-.607-.612c-.184-.22-.341-.227-.595-.093a7.358,7.358,0,0,1-4.79.744,7.512,7.512,0,1,1,7.987-3.955.452.452,0,0,0,.107.658c.36.322.692.675,1.029,1.023.15.155.306.334.522.165a.734.734,0,0,0,.242-.42q.747-4.263,1.473-8.53.438-2.548.874-5.1a.762.762,0,0,0-.768-.949c-.143-.009-.288-.005-.431-.005H16.238a3.189,3.189,0,0,1-.469-.015.547.547,0,0,1-.517-.587.538.538,0,0,1,.538-.563c.143-.013.287-.011.431-.011H30.17Zm1.623,10.873a6.329,6.329,0,1,0-6.3,6.346,6.3,6.3,0,0,0,6.3-6.346m7.194,11.926a1.769,1.769,0,0,0-.541-1.308q-1.967-1.964-3.932-3.93c-.309-.308-.48-.307-.79,0q-.779.771-1.55,1.55c-.365.366-.365.505,0,.873Q34.084,28.61,36,30.518a2.449,2.449,0,0,0,.354.306,1.6,1.6,0,0,0,1.706.12,1.633,1.633,0,0,0,.93-1.43M21.006,3.531c-.264-.666-.519-1.277-.746-1.9a.625.625,0,0,0-.677-.459c-2.078.009-4.155,0-6.233.006a2.638,2.638,0,0,0-.307.038c.252.638.5,1.226.715,1.828a.663.663,0,0,0,.732.493c2.038-.015,4.077-.007,6.115-.007ZM31.6,24.688l.917-.909-1.282-1.3-.921.916L31.6,24.688" transform="translate(0 0)" fill="#03386e"/>
        <path id="Trazado_615251" data-name="Trazado 615251" d="M86.917,237.51c1.254,0,2.508,0,3.762,0,.469,0,.737.263.681.653a.591.591,0,0,1-.671.519c-.536.006-1.071,0-1.607,0H83.439c-.118,0-.236.006-.352-.005a.586.586,0,0,1-.592-.6.567.567,0,0,1,.62-.564c1.267-.008,2.534,0,3.8,0" transform="translate(-73.867 -212.669)" fill="#03386e"/>
        <path id="Trazado_615252" data-name="Trazado 615252" d="M94.478,216.346c-.758,0-1.515,0-2.273,0-.46,0-.722-.223-.72-.591s.261-.582.726-.583q2.273,0,4.546,0c.464,0,.733.211.745.569s-.272.6-.751.606c-.758,0-1.515,0-2.273,0" transform="translate(-81.917 -192.665)" fill="#03386e"/>
        <path id="Trazado_615253" data-name="Trazado 615253" d="M201.415,131.148A5,5,0,1,1,206.3,126.4a.547.547,0,0,1-.563.576.568.568,0,0,1-.6-.552c-.041-.336-.032-.681-.1-1.01a3.737,3.737,0,1,0-4.178,4.507,3.65,3.65,0,0,0,3.216-1.093c.074-.074.14-.156.215-.228a.585.585,0,1,1,.865.786,4.778,4.778,0,0,1-2.814,1.654c-.306.059-.621.076-.932.112" transform="translate(-175.933 -108.608)" fill="#03386e"/>
      </g>
    </g>
  </g>
</svg>
