<svg xmlns="http://www.w3.org/2000/svg" xmlns:xlink="http://www.w3.org/1999/xlink" width="93.503" height="82" viewBox="0 0 93.503 82">
  <defs>
    <filter id="Trazado_517255" x="-5.31" y="8.485" width="102.731" height="82.169" filterUnits="userSpaceOnUse">
      <feOffset dy="3" input="SourceAlpha"/>
      <feGaussianBlur stdDeviation="3" result="blur"/>
      <feFlood flood-opacity="0.161"/>
      <feComposite operator="in" in2="blur"/>
      <feComposite in="SourceGraphic"/>
    </filter>
    <clipPath id="clip-path">
      <rect id="Rectángulo_292115" data-name="Rectángulo 292115" width="93.503" height="78.442" transform="translate(0 0)" fill="#fff" stroke="#707070" stroke-width="1" opacity="0.13"/>
    </clipPath>
    <clipPath id="clip-path-2">
      <rect id="Rectángulo_292105" data-name="Rectángulo 292105" width="84.282" height="71.059" fill="#fff"/>
    </clipPath>
    <clipPath id="clip-path-3">
      <path id="Trazado_517251" data-name="Trazado 517251" d="M117.942,18.233c22.841-.092,4.759,22.689,14.579,36.565,7.345,10.38,21.252,20.272,14.468,29.1-7.443,9.69-24.009-4.277-48.24,4.247C78.494,95.275,57.816,67.595,66.594,46.319c4.667-11.311,36.112-28.026,51.347-28.087" transform="translate(-64.52 -18.232)" fill="#fff"/>
    </clipPath>
    <clipPath id="clip-path-4">
      <rect id="Rectángulo_292107" data-name="Rectángulo 292107" width="3.24" height="3.24" fill="#0082ef"/>
    </clipPath>
    <clipPath id="clip-path-5">
      <path id="Trazado_517252" data-name="Trazado 517252" d="M50.921,43.013l-.976.976-.582-.582.976-.977L49.31,41.4l.6-.6,1.029,1.029.977-.976.582.582-.977.976,1.03,1.03-.6.6Z" transform="translate(-49.31 -40.802)" fill="#0082ef"/>
    </clipPath>
    <clipPath id="clip-path-6">
      <rect id="Rectángulo_292108" data-name="Rectángulo 292108" width="88.159" height="70.928" fill="none"/>
    </clipPath>
    <linearGradient id="linear-gradient" x1="-0.084" y1="1.037" x2="-0.079" y2="1.037" gradientUnits="objectBoundingBox">
      <stop offset="0" stop-color="#0078b2"/>
      <stop offset="0.184" stop-color="#0078b2"/>
      <stop offset="1" stop-color="#86cff2"/>
    </linearGradient>
    <clipPath id="clip-path-7">
      <g transform="matrix(1, 0, 0, 1, 0, 0)" filter="url(#Trazado_517255)">
        <path id="Trazado_517255-2" data-name="Trazado 517255" d="M134.165,39.935c-9.844-2.991-17.935,2.534-25.137,8.181s-15.652-.275-20.415-5.656c-5.825-6.579-16.614-6.832-21.986.6-4.3,5.952-3.916,15.917,5.539,20.574C81.238,68.1,88.442,73.746,90.327,81.806s3.345,16.66,12.736,19.364c7.259,2.09,13.18-2.549,13.564-9.838.389-7.382,4.192-9.648,10.028-10.739s10.578-1.7,14.677-5.1,6.875-7.742,7.36-15.577-4.684-16.993-14.528-19.983" transform="translate(-63.99 -37.5)" fill="#0082ef"/>
      </g>
    </clipPath>
    <filter id="Trazado_517254" x="-27.162" y="-14.196" width="145.222" height="127.242" filterUnits="userSpaceOnUse">
      <feOffset dy="3" input="SourceAlpha"/>
      <feGaussianBlur stdDeviation="9" result="blur-2"/>
      <feFlood flood-opacity="0.161"/>
      <feComposite operator="in" in2="blur-2"/>
      <feComposite in="SourceGraphic"/>
    </filter>
    <clipPath id="clip-path-8">
      <rect id="Rectángulo_292111" data-name="Rectángulo 292111" width="92.359" height="74.307" fill="none"/>
    </clipPath>
    <filter id="Trazado_517258" x="59.424" y="17.825" width="29.12" height="29.12" filterUnits="userSpaceOnUse">
      <feOffset dy="3" input="SourceAlpha"/>
      <feGaussianBlur stdDeviation="3" result="blur-3"/>
      <feFlood flood-opacity="0.161"/>
      <feComposite operator="in" in2="blur-3"/>
      <feComposite in="SourceGraphic"/>
    </filter>
    <filter id="Trazado_517259" x="6.178" y="48.44" width="27.172" height="27.172" filterUnits="userSpaceOnUse">
      <feOffset dy="3" input="SourceAlpha"/>
      <feGaussianBlur stdDeviation="3" result="blur-4"/>
      <feFlood flood-opacity="0.161"/>
      <feComposite operator="in" in2="blur-4"/>
      <feComposite in="SourceGraphic"/>
    </filter>
    <clipPath id="clip-path-11">
      <rect id="Rectángulo_327311" data-name="Rectángulo 327311" width="86" height="82" transform="translate(297.225 3967.28)" fill="#fff"/>
    </clipPath>
    <clipPath id="clip-path-12">
      <rect id="Rectángulo_327310" data-name="Rectángulo 327310" width="94" height="109" transform="translate(0.233 0.155)" fill="none"/>
    </clipPath>
    <clipPath id="clip-path-13">
      <rect id="Rectángulo_327309" data-name="Rectángulo 327309" width="94" height="93" transform="translate(0.233 0.155)" fill="none"/>
    </clipPath>
    <clipPath id="clip-path-14">
      <rect id="Rectángulo_327307" data-name="Rectángulo 327307" width="5.532" height="6.193" fill="none"/>
    </clipPath>
    <clipPath id="clip-path-15">
      <rect id="Rectángulo_327308" data-name="Rectángulo 327308" width="5.098" height="6.164" fill="none"/>
    </clipPath>
  </defs>
  <g id="Grupo_924620" data-name="Grupo 924620" transform="translate(6677.431 7868)">
    <g id="Enmascarar_grupo_744684" data-name="Enmascarar grupo 744684" transform="translate(-6677.431 -7866.202)" clip-path="url(#clip-path)">
      <g id="Grupo_751892" data-name="Grupo 751892" transform="translate(-17.471 0.021)">
        <g id="Grupo_751874" data-name="Grupo 751874" transform="translate(21.162 4.461)" opacity="0.6" clip-path="url(#clip-path-2)">
          <g id="Grupo_751873" data-name="Grupo 751873" transform="translate(0 0)">
            <g id="Grupo_751872" data-name="Grupo 751872" clip-path="url(#clip-path-3)">
              <path id="Trazado_517250" data-name="Trazado 517250" d="M138.447,26.576,36.145,79.842,6.468-31.8l102.3-53.265Z" transform="translate(-31.183 41.088)" fill="#fff"/>
            </g>
          </g>
        </g>
        <g id="Grupo_751879" data-name="Grupo 751879" transform="translate(19.542 12.666)">
          <g id="Grupo_751878" data-name="Grupo 751878" transform="translate(0 0)">
            <g id="Grupo_751877" data-name="Grupo 751877" clip-path="url(#clip-path-4)">
              <g id="Grupo_751876" data-name="Grupo 751876" transform="translate(0)">
                <g id="Grupo_751875" data-name="Grupo 751875" clip-path="url(#clip-path-5)">
                  <rect id="Rectángulo_292106" data-name="Rectángulo 292106" width="3.24" height="3.24" transform="translate(0)" fill="#0082ef"/>
                </g>
              </g>
            </g>
          </g>
        </g>
        <g id="Grupo_751882" data-name="Grupo 751882" transform="translate(0 1.748)" opacity="0.75">
          <g id="Grupo_751881" data-name="Grupo 751881" transform="translate(0 0)">
            <g id="Grupo_751880" data-name="Grupo 751880" clip-path="url(#clip-path-6)">
              <path id="Trazado_517253" data-name="Trazado 517253" d="M67.078,15.494h0C60,23.173,51.989,27.9,39.373,27.9q-1.846,0-3.828-.137-.644-.045-1.278-.044A15.777,15.777,0,0,0,18.077,43.8c0,5.422,2.389,11.748,8.2,18.222A50.524,50.524,0,0,0,64,78.775a41.719,41.719,0,0,0,16.419-3.119c18.6-8.112,25.414-23.41,25.414-37.125,0-8-2.319-15.467-5.968-20.648-4.856-6.9-10.969-9.63-16.853-9.63a22.164,22.164,0,0,0-15.931,7.24h0a22.164,22.164,0,0,1,15.931-7.24c5.884,0,12,2.733,16.853,9.63,3.648,5.181,5.968,12.645,5.968,20.648,0,13.714-6.81,29.013-25.414,37.125A41.719,41.719,0,0,1,64,78.775,50.524,50.524,0,0,1,26.275,62.025c-5.808-6.474-8.2-12.8-8.2-18.222A15.777,15.777,0,0,1,34.267,27.72q.633,0,1.278.044,1.984.138,3.828.137c12.615,0,20.63-4.728,27.7-12.406Z" transform="translate(-17.874 -8.051)" fill="url(#linear-gradient)"/>
            </g>
          </g>
        </g>
        <rect id="Rectángulo_292109" data-name="Rectángulo 292109" width="64.583" height="55.768" transform="translate(9.531 10.8)" fill="none"/>
        <g id="Grupo_751883" data-name="Grupo 751883" transform="translate(21.162 12.666)" opacity="0.51" clip-path="url(#clip-path-7)">
          <g transform="matrix(1, 0, 0, 1, -3.69, -14.49)" filter="url(#Trazado_517254)">
            <path id="Trazado_517254-2" data-name="Trazado 517254" d="M0,0H88.994V70.4H0Z" transform="translate(-0.16 12.68) rotate(-1.85)" fill="#0082ef"/>
          </g>
        </g>
        <rect id="Rectángulo_292110" data-name="Rectángulo 292110" width="84.731" height="64.169" transform="translate(21.162 12.666)" fill="none"/>
        <g id="Grupo_751886" data-name="Grupo 751886" transform="translate(1.401 0)" opacity="0.75">
          <g id="Grupo_751885" data-name="Grupo 751885" transform="translate(0)">
            <g id="Grupo_751884" data-name="Grupo 751884" clip-path="url(#clip-path-8)">
              <path id="Trazado_517256" data-name="Trazado 517256" d="M69.413,15.839h0c-7.412,8.044-15.808,13-29.025,13q-1.934,0-4.01-.143-.675-.047-1.339-.046c-9.431,0-16.962,7-16.962,16.849,0,5.68,2.5,12.308,8.588,19.09A52.931,52.931,0,0,0,66.184,82.135a43.707,43.707,0,0,0,17.2-3.268c19.49-8.5,26.625-24.526,26.625-38.893,0-8.385-2.43-16.2-6.252-21.632C98.67,11.118,92.267,8.254,86.1,8.254a23.22,23.22,0,0,0-16.69,7.585h0A23.22,23.22,0,0,1,86.1,8.254c6.165,0,12.568,2.864,17.656,10.088,3.822,5.428,6.252,13.247,6.252,21.632,0,14.368-7.135,30.4-26.625,38.893a43.707,43.707,0,0,1-17.2,3.268A52.931,52.931,0,0,1,26.665,64.586C20.58,57.8,18.077,51.176,18.077,45.5c0-9.852,7.531-16.849,16.962-16.849q.664,0,1.339.046,2.078.144,4.01.143c13.216,0,21.613-4.953,29.025-13Z" transform="translate(-17.864 -8.041)" fill="url(#linear-gradient)"/>
            </g>
          </g>
        </g>
        <rect id="Rectángulo_292112" data-name="Rectángulo 292112" width="67.66" height="58.425" transform="translate(11.385 9.484)" fill="none"/>
        <g id="Grupo_751891" data-name="Grupo 751891" transform="translate(102.524 51)">
          <g id="Grupo_751890" data-name="Grupo 751890" transform="translate(0 0)">
            <g id="Grupo_751889" data-name="Grupo 751889" clip-path="url(#clip-path-4)">
              <g id="Grupo_751888" data-name="Grupo 751888" transform="translate(0)">
                <g id="Grupo_751887" data-name="Grupo 751887" clip-path="url(#clip-path-5)">
                  <rect id="Rectángulo_292113" data-name="Rectángulo 292113" width="3.24" height="3.24" transform="translate(0)" fill="#0082ef"/>
                </g>
              </g>
            </g>
          </g>
        </g>
        <g transform="matrix(1, 0, 0, 1, 17.47, -1.82)" filter="url(#Trazado_517258)">
          <path id="Trazado_517258-2" data-name="Trazado 517258" d="M230.168,89.791a5.56,5.56,0,1,1-5.56-5.56,5.56,5.56,0,0,1,5.56,5.56" transform="translate(-150.62 -60.41)" fill="#0082ef"/>
        </g>
        <g transform="matrix(1, 0, 0, 1, 17.47, -1.82)" filter="url(#Trazado_517259)">
          <path id="Trazado_517259-2" data-name="Trazado 517259" d="M228.221,88.817a4.586,4.586,0,1,1-4.586-4.586,4.586,4.586,0,0,1,4.586,4.586" transform="translate(-203.87 -29.79)" fill="#0082ef"/>
        </g>
      </g>
    </g>
    <g id="Enmascarar_grupo_868535" data-name="Enmascarar grupo 868535" transform="translate(-6969.711 -11835.28)" clip-path="url(#clip-path-11)">
      <g id="Grupo_876241" data-name="Grupo 876241" transform="translate(290.992 3963.125)">
        <g id="Grupo_876240" data-name="Grupo 876240" transform="translate(0 0)" clip-path="url(#clip-path-12)">
          <g id="Grupo_876239" data-name="Grupo 876239" transform="translate(0 0)">
            <g id="Grupo_876238" data-name="Grupo 876238" transform="translate(0 0)" clip-path="url(#clip-path-13)">
              <path id="Trazado_615129" data-name="Trazado 615129" d="M261.716,274.455l-13.735-1.99s-2.068-33.775-.077-35.235c.636-.466,3.452-.37,7.013.032,1.663.188,3.489.444,5.33.742.452.073.906.149,1.358.226,1.9.327,3.77.69,5.462,1.062,3.773.829,6.645,1.706,6.849,2.318.6,1.792-12.2,32.846-12.2,32.846" transform="translate(-200.149 -193.293)" fill="#4b4c4e"/>
              <path id="Trazado_615130" data-name="Trazado 615130" d="M110.913,179.365c-14.4.16-29.437-10.011-34.782-14.007-.63.827-1.269,1.648-1.932,2.449q-.266.321-.537.638a2.707,2.707,0,0,0,.038.7c5.773,18.512,34.161,20.7,34.161,20.7,4.379-6.569,3.052-10.484,3.052-10.484" transform="translate(-59.31 -135.163)" fill="#4b4c4e"/>
              <path id="Trazado_615131" data-name="Trazado 615131" d="M91.032,133.874a1.269,1.269,0,0,1-1.264,1.293H59.32A1.317,1.317,0,0,1,58,133.874V93.292A1.317,1.317,0,0,1,59.32,92H89.768a1.268,1.268,0,0,1,1.264,1.292Z" transform="translate(-46.589 -75.573)" fill="#dfe4ed"/>
              <rect id="Rectángulo_327306" data-name="Rectángulo 327306" width="27" height="37" transform="translate(13.233 20.155)" fill="#fff"/>
              <path id="Trazado_615132" data-name="Trazado 615132" d="M88.63,134.006H83V128h5.63Zm-5.255-.563h5.067v-4.692H83.375Z" transform="translate(-66.897 -104.816)" fill="#d2d5d4"/>
              <path id="Trazado_615133" data-name="Trazado 615133" d="M88.63,180.006H83V174h5.63Zm-5.255-.375h5.067v-5.067H83.375Z" transform="translate(-66.897 -142.183)" fill="#d2d5d4"/>
              <path id="Trazado_615134" data-name="Trazado 615134" d="M88.63,225.006H83V219h5.63Zm-5.255-.375h5.067v-4.88H83.375Z" transform="translate(-66.897 -178.738)" fill="#d2d5d4"/>
              <path id="Trazado_615135" data-name="Trazado 615135" d="M88.63,271.006H83V265h5.63Zm-5.255-.188h5.067v-5.255H83.375Z" transform="translate(-66.897 -216.104)" fill="#d2d5d4"/>
              <path id="Trazado_615136" data-name="Trazado 615136" d="M133.578,129.314h-9.553c-.259,0-.468-.4-.468-.657s.209-.657.468-.657h9.553c.258,0,.468.4.468.657s-.21.657-.468.657" transform="translate(-99.843 -104.816)" fill="#a9abb0"/>
              <path id="Trazado_615137" data-name="Trazado 615137" d="M188.93,128.938H186.4a.469.469,0,0,1,0-.938h2.529a.469.469,0,0,1,0,.938" transform="translate(-150.512 -104.816)" fill="#a9abb0"/>
              <path id="Trazado_615138" data-name="Trazado 615138" d="M138.26,137.751H124.024c-.259,0-.468-.117-.468-.375s.21-.376.468-.376H138.26c.259,0,.468.117.468.376s-.21.375-.468.375" transform="translate(-99.842 -112.127)" fill="#a9abb0"/>
              <path id="Trazado_615139" data-name="Trazado 615139" d="M127.584,144.751h-3.559c-.259,0-.468-.117-.468-.375s.209-.375.468-.375h3.559c.259,0,.468.117.468.375s-.209.375-.468.375" transform="translate(-99.843 -117.814)" fill="#a9abb0"/>
              <path id="Trazado_615140" data-name="Trazado 615140" d="M154.189,144.751h-4.215c-.259,0-.468-.117-.468-.375s.209-.375.468-.375h4.215c.259,0,.468.117.468.375s-.21.375-.468.375" transform="translate(-120.922 -117.814)" fill="#a9abb0"/>
              <path id="Trazado_615141" data-name="Trazado 615141" d="M183.256,145.126h-3.84a.573.573,0,0,1,0-1.126h3.84a.573.573,0,0,1,0,1.126" transform="translate(-144.838 -117.814)" fill="#a9abb0"/>
              <path id="Trazado_615142" data-name="Trazado 615142" d="M138.26,153.751H124.024c-.259,0-.468-.116-.468-.375s.21-.375.468-.375H138.26c.259,0,.468.116.468.375s-.21.375-.468.375" transform="translate(-99.842 -125.124)" fill="#a9abb0"/>
              <path id="Trazado_615143" data-name="Trazado 615143" d="M148.976,196h9.553c.258,0,.468.4.468.657s-.21.657-.468.657h-9.553c-.259,0-.468-.4-.468-.657s.21-.657.468-.657" transform="translate(-120.111 -160.054)" fill="#a9abb0"/>
              <path id="Trazado_615144" data-name="Trazado 615144" d="M124.025,198h2.529a.469.469,0,0,1,0,.938h-2.529a.469.469,0,0,1,0-.938" transform="translate(-99.843 -161.679)" fill="#a9abb0"/>
              <path id="Trazado_615145" data-name="Trazado 615145" d="M124.025,189h14.236a.469.469,0,0,1,0,.938H124.025a.469.469,0,0,1,0-.938" transform="translate(-99.843 -154.368)" fill="#a9abb0"/>
              <path id="Trazado_615146" data-name="Trazado 615146" d="M180.914,182h3.559c.258,0,.468.117.468.375s-.21.375-.468.375h-3.559c-.259,0-.468-.117-.468-.375s.209-.375.468-.375" transform="translate(-146.055 -148.682)" fill="#a9abb0"/>
              <path id="Trazado_615147" data-name="Trazado 615147" d="M151.471,182h4.215c.259,0,.468.117.468.375s-.209.375-.468.375h-4.215c-.258,0-.468-.117-.468-.375s.21-.375.468-.375" transform="translate(-122.138 -148.682)" fill="#a9abb0"/>
              <path id="Trazado_615148" data-name="Trazado 615148" d="M124.025,182h3.84c.259,0,.468.117.468.375s-.21.375-.468.375h-3.84c-.259,0-.468-.117-.468-.375s.21-.375.468-.375" transform="translate(-99.843 -148.682)" fill="#a9abb0"/>
              <path id="Trazado_615149" data-name="Trazado 615149" d="M124.025,174h14.236a.469.469,0,0,1,0,.938H124.025a.469.469,0,0,1,0-.938" transform="translate(-99.843 -142.183)" fill="#a9abb0"/>
              <path id="Trazado_615150" data-name="Trazado 615150" d="M148.976,246h9.553a.469.469,0,0,1,0,.938h-9.553a.469.469,0,0,1,0-.938" transform="translate(-120.111 -200.67)" fill="#a9abb0"/>
              <path id="Trazado_615151" data-name="Trazado 615151" d="M124.025,247h2.529c.258,0,.468.117.468.375s-.21.375-.468.375h-2.529c-.259,0-.468-.117-.468-.375s.21-.375.468-.375" transform="translate(-99.843 -201.482)" fill="#a9abb0"/>
              <path id="Trazado_615152" data-name="Trazado 615152" d="M124.025,237h14.236a.469.469,0,0,1,0,.938H124.025a.469.469,0,0,1,0-.938" transform="translate(-99.843 -193.359)" fill="#a9abb0"/>
              <path id="Trazado_615153" data-name="Trazado 615153" d="M180.914,231h3.559c.258,0,.468.117.468.375s-.21.375-.468.375h-3.559c-.259,0-.468-.117-.468-.375s.209-.375.468-.375" transform="translate(-146.055 -188.485)" fill="#a9abb0"/>
              <path id="Trazado_615154" data-name="Trazado 615154" d="M151.471,231h4.215c.259,0,.468.117.468.375s-.209.375-.468.375h-4.215c-.258,0-.468-.117-.468-.375s.21-.375.468-.375" transform="translate(-122.138 -188.485)" fill="#a9abb0"/>
              <path id="Trazado_615155" data-name="Trazado 615155" d="M124.025,230h3.84a.469.469,0,0,1,0,.938h-3.84a.469.469,0,0,1,0-.938" transform="translate(-99.843 -187.673)" fill="#a9abb0"/>
              <path id="Trazado_615156" data-name="Trazado 615156" d="M124.025,223h14.236c.258,0,.468.116.468.375s-.21.375-.468.375H124.025c-.259,0-.468-.117-.468-.375s.21-.375.468-.375" transform="translate(-99.843 -181.987)" fill="#a9abb0"/>
              <path id="Trazado_615157" data-name="Trazado 615157" d="M133.578,266.314h-9.553c-.259,0-.468-.4-.468-.657s.209-.657.468-.657h9.553c.258,0,.468.4.468.657s-.21.657-.468.657" transform="translate(-99.843 -216.104)" fill="#a9abb0"/>
              <path id="Trazado_615158" data-name="Trazado 615158" d="M188.93,265.938H186.4a.469.469,0,0,1,0-.938h2.529a.469.469,0,0,1,0,.938" transform="translate(-150.512 -216.104)" fill="#a9abb0"/>
              <path id="Trazado_615159" data-name="Trazado 615159" d="M138.26,275.938H124.024a.469.469,0,0,1,0-.938H138.26a.469.469,0,0,1,0,.938" transform="translate(-99.842 -224.227)" fill="#a9abb0"/>
              <path id="Trazado_615160" data-name="Trazado 615160" d="M127.584,282.938h-3.559a.469.469,0,0,1,0-.938h3.559a.469.469,0,0,1,0,.938" transform="translate(-99.843 -229.914)" fill="#a9abb0"/>
              <path id="Trazado_615161" data-name="Trazado 615161" d="M154.189,282.938h-4.215a.469.469,0,0,1,0-.938h4.215a.469.469,0,0,1,0,.938" transform="translate(-120.922 -229.914)" fill="#a9abb0"/>
              <path id="Trazado_615162" data-name="Trazado 615162" d="M183.256,283.126h-3.84a.573.573,0,0,1,0-1.126h3.84a.573.573,0,0,1,0,1.126" transform="translate(-144.838 -229.914)" fill="#a9abb0"/>
              <path id="Trazado_615163" data-name="Trazado 615163" d="M138.26,290.126H124.024a.573.573,0,0,1,0-1.126H138.26a.573.573,0,0,1,0,1.126" transform="translate(-99.842 -235.6)" fill="#a9abb0"/>
              <path id="Trazado_615164" data-name="Trazado 615164" d="M111.8,98.945H91.335a1.645,1.645,0,0,1,.557-1.115c1.128-1.4,3.512-2.027,6.481-2.246,1.006-.073,2.078-.118,3.192-.118,1.092,0,2.145.02,3.133.091,2.994.214,5.4.87,6.538,2.277a1.636,1.636,0,0,1,.56,1.111" transform="translate(-73.668 -78.389)" fill="#bdc1c5"/>
              <path id="Trazado_615165" data-name="Trazado 615165" d="M134.961,66.518A1.957,1.957,0,0,1,133.129,65h-1.91a1.963,1.963,0,0,1-1.838,1.518c-.124,0-.193-.044-.381-.067V74.2h6.381V66.441a1.038,1.038,0,0,1-.42.078m-2.774.18a1.317,1.317,0,1,1-1.318,1.318,1.318,1.318,0,0,1,1.318-1.318" transform="translate(-104.264 -53.64)" fill="#bdc1c5"/>
              <path id="Trazado_615166" data-name="Trazado 615166" d="M111.8,109.126H91.335c.119-.751.307-.938.557-1.126h19.344c.251.188.44.375.56,1.126" transform="translate(-73.668 -88.57)" fill="#a9abb0"/>
              <path id="Trazado_615167" data-name="Trazado 615167" d="M53.54,168.151a1.285,1.285,0,0,1-.375.91,1.267,1.267,0,0,1-.891.378h-2.3a1.275,1.275,0,0,1-1.266-1.277,1.144,1.144,0,0,1,.371-.844,1.223,1.223,0,0,1,.9-.319h2.3a1.213,1.213,0,0,1,1.045.5,1.082,1.082,0,0,1,.221.656" transform="translate(-39.041 -136.497)" fill="#e4ad95"/>
              <path id="Trazado_615168" data-name="Trazado 615168" d="M63.251,169.15a1.258,1.258,0,0,1-.375.9,2.014,2.014,0,0,1-.747.137c-.81,0-1.467-.438-1.467-.978s.657-.978,1.467-.978a1.964,1.964,0,0,1,.9.207,1.259,1.259,0,0,1,.221.714" transform="translate(-48.752 -137.495)" fill="#e9c6b5"/>
              <path id="Trazado_615169" data-name="Trazado 615169" d="M53.54,152.124a1.1,1.1,0,0,1-.375.83,1.206,1.206,0,0,1-.891.3h-2.3a1.208,1.208,0,0,1-1.266-1.2,1.028,1.028,0,0,1,.371-.79,1.189,1.189,0,0,1,.9-.265h2.3a1.2,1.2,0,0,1,1.045.481,1.043,1.043,0,0,1,.221.643" transform="translate(-39.041 -123.5)" fill="#e4ad95"/>
              <path id="Trazado_615170" data-name="Trazado 615170" d="M63.251,153a1.257,1.257,0,0,1-.375.9,2.014,2.014,0,0,1-.747.137c-.81,0-1.467-.438-1.467-.978s.657-.978,1.467-.978a1.963,1.963,0,0,1,.9.207,1.258,1.258,0,0,1,.221.714" transform="translate(-48.752 -124.38)" fill="#e9c6b5"/>
              <path id="Trazado_615171" data-name="Trazado 615171" d="M53.54,136.058a1.176,1.176,0,0,1-.375.863,1.228,1.228,0,0,1-.891.331h-2.3a1.235,1.235,0,0,1-1.266-1.23,1,1,0,0,1,.371-.773,1.183,1.183,0,0,1,.9-.249h2.3a1.181,1.181,0,0,1,1.045.448.952.952,0,0,1,.221.61" transform="translate(-39.041 -110.503)" fill="#e4ad95"/>
              <path id="Trazado_615172" data-name="Trazado 615172" d="M63.251,136.654a1.257,1.257,0,0,1-.375.9,2.014,2.014,0,0,1-.747.137c-.81,0-1.467-.438-1.467-.978s.657-.978,1.467-.978a1.964,1.964,0,0,1,.9.207,1.258,1.258,0,0,1,.221.714" transform="translate(-48.752 -111.098)" fill="#e9c6b5"/>
              <path id="Trazado_615173" data-name="Trazado 615173" d="M53.54,118.444a1.384,1.384,0,0,1-.375.951,1.307,1.307,0,0,1-.891.42h-2.3a1.311,1.311,0,0,1-1.266-1.319,1.551,1.551,0,0,1,.371-1.01,1.384,1.384,0,0,1,.9-.486h2.3a1.348,1.348,0,0,1,1.045.641,1.563,1.563,0,0,1,.221.8" transform="translate(-39.041 -95.881)" fill="#e4ad95"/>
              <path id="Trazado_615174" data-name="Trazado 615174" d="M63.251,120.711a1.258,1.258,0,0,1-.375.9,2.018,2.018,0,0,1-.747.137c-.81,0-1.467-.438-1.467-.978s.657-.978,1.467-.978a1.961,1.961,0,0,1,.9.207,1.258,1.258,0,0,1,.221.714" transform="translate(-48.752 -98.148)" fill="#e9c6b5"/>
              <path id="Trazado_615175" data-name="Trazado 615175" d="M303.633,261.78l-2.262,7.332L298,280.094V262.178l2.949-2.389Z" transform="translate(-241.546 -211.872)" fill="#e9eff0"/>
              <path id="Trazado_615176" data-name="Trazado 615176" d="M303.975,261.91l.4,4.91,1.46.266,2.123-4.247Z" transform="translate(-246.399 -213.594)" fill="#526489"/>
              <path id="Trazado_615177" data-name="Trazado 615177" d="M292.827,238.856l1.516,4.5-4.512,4.512-.817-9.125Z" transform="translate(-234.246 -194.778)" fill="#fff"/>
              <path id="Trazado_615178" data-name="Trazado 615178" d="M320.642,241.722,316,250.349l-2.123-5.84L317.025,240Z" transform="translate(-254.44 -195.795)" fill="#fff"/>
              <path id="Trazado_615179" data-name="Trazado 615179" d="M301.371,292.088,298,303.07V290.71l1.49-2.637,1.459.266Z" transform="translate(-241.546 -234.847)" fill="#6279a6"/>
              <path id="Trazado_615180" data-name="Trazado 615180" d="M295.317,372.05a.652.652,0,1,1-.652-.652.652.652,0,0,1,.652.652" transform="translate(-238.306 -302.533)" fill="#f4da90"/>
              <path id="Trazado_615181" data-name="Trazado 615181" d="M291.782,393.972a.652.652,0,1,1-.653-.653.653.653,0,0,1,.653.653" transform="translate(-235.435 -320.34)" fill="#f4da90"/>
              <path id="Trazado_615182" data-name="Trazado 615182" d="M288.246,415.185a.653.653,0,1,1-.653-.652.653.653,0,0,1,.653.652" transform="translate(-232.563 -337.573)" fill="#f4da90"/>
              <path id="Trazado_615183" data-name="Trazado 615183" d="M250.648,421.245l14.244,2.212-.531,2.212-13.89-2.389Z" transform="translate(-202.937 -343.025)" fill="#3f4042"/>
              <path id="Trazado_615185" data-name="Trazado 615185" d="M309.045,208.262c-.511-.149-1.013-.6-1.556-.52-.74.112-2.055.844-2.181,1.577-.169.982-.406,3.823-.595,4.8a6.562,6.562,0,0,0-.133,1.757c-.051.553-.27,1.241.121,1.652,2.288,2.408,4.446,1.022,4.854.019a31.2,31.2,0,0,0,1.15-7.078c.028-1.583.442-1.593-1.66-2.207" transform="translate(-246.804 -169.584)" fill="#c3816d"/>
              <path id="Trazado_615186" data-name="Trazado 615186" d="M381.253,154.032s4.417-2.957,4.712,1.107-5.205,4.683-5.205,4.683Z" transform="translate(-308.773 -125.119)" fill="#c9876d"/>
              <path id="Trazado_615187" data-name="Trazado 615187" d="M381.5,161.959s2.47-2.415,2.849-1.127a4.948,4.948,0,0,1-.135,2.7s0-1.68-1.4-1.038c0,0,.559,2.815-1.6,1.556a1.567,1.567,0,0,1,.285-2.1" transform="translate(-308.923 -131.179)" fill="#b26c50"/>
              <path id="Trazado_615188" data-name="Trazado 615188" d="M255.782,144.176s-3.929-3.581-4.824.394,4.452,5.4,4.452,5.4Z" transform="translate(-203.25 -116.754)" fill="#c9876d"/>
              <path id="Trazado_615189" data-name="Trazado 615189" d="M262.112,152.338s-2.084-2.756-2.651-1.538a4.94,4.94,0,0,0-.267,2.695s.251-1.661,1.535-.818c0,0-.971,2.7,1.353,1.777a1.566,1.566,0,0,0,.031-2.115" transform="translate(-209.959 -123.085)" fill="#b26c50"/>
              <path id="Trazado_615190" data-name="Trazado 615190" d="M292.039,111.852c-.476,3.539-4.657,5.87-7.351,6.852a7.684,7.684,0,0,1-4.821.234c-9.626-3.681-8.252-8.311-8.252-12.315a31.112,31.112,0,0,1,1.741-9.937,6.768,6.768,0,0,1,.778-1.578,9.924,9.924,0,0,1,5.817-3.724c5.278-1.042,10.887,1.423,12.311,4.32a3.258,3.258,0,0,1,.213.705c.9,3.62.1,11.473-.436,15.441" transform="translate(-220.058 -74.876)" fill="#e4ad95"/>
              <path id="Trazado_615191" data-name="Trazado 615191" d="M320.911,140.44s-.669-.777-1.009,1.817-.4,5.356-.4,5.356-1.661-1.143-1.19.348a2.521,2.521,0,0,0,1.722,1.526,1.578,1.578,0,0,0,1.655-.36c.22-.185,1.376-1.193,1.063-1.558-.15-.175-1.122.144-1.367.186,0,0,.873-7.8-.474-7.314" transform="translate(-257.977 -114.833)" fill="#c9876d"/>
              <path id="Trazado_615192" data-name="Trazado 615192" d="M348.537,132.926s4.637-.264,5.582,3.254c0,0-4.824-2.232-5.888-1.614Z" transform="translate(-282.35 -108.815)" fill="#151514"/>
              <path id="Trazado_615193" data-name="Trazado 615193" d="M293.12,128.974s-4.274-1.817-6.354,1.174c0,0,5.294-.469,6.087.472Z" transform="translate(-232.42 -105.163)" fill="#151514"/>
              <path id="Trazado_615194" data-name="Trazado 615194" d="M350.42,147.949a.167.167,0,0,0,.123.26,7.413,7.413,0,0,1,2.178.071c.731.218,1.764.725,1.916,1.56.023.125.189.1.21-.011.34-1.923-3.308-3.369-4.426-1.88" transform="translate(-284.104 -120.522)" fill="#151514"/>
              <path id="Trazado_615195" data-name="Trazado 615195" d="M294.172,142.555a.166.166,0,0,1-.161.238,7.4,7.4,0,0,0-2.163-.252c-.757.107-1.854.454-2.127,1.258-.041.12-.2.07-.2-.044-.052-1.951,3.771-2.839,4.656-1.2" transform="translate(-234.654 -115.945)" fill="#151514"/>
              <path id="Trazado_615196" data-name="Trazado 615196" d="M290,146.192a2.638,2.638,0,1,0,2.794-2.172A2.509,2.509,0,0,0,290,146.192" transform="translate(-235.043 -117.823)" fill="#fff"/>
              <path id="Trazado_615197" data-name="Trazado 615197" d="M299.174,147.308a1.691,1.691,0,1,1-1.479-2.22,1.917,1.917,0,0,1,1.479,2.22" transform="translate(-239.836 -118.695)" fill="#91b8cd"/>
              <path id="Trazado_615198" data-name="Trazado 615198" d="M300.758,149.905a1.2,1.2,0,1,1-1.052-1.577,1.362,1.362,0,0,1,1.052,1.577" transform="translate(-241.893 -121.327)" fill="#151514"/>
              <path id="Trazado_615199" data-name="Trazado 615199" d="M306.6,147.294c-.017.223-.3.386-.63.361s-.587-.227-.57-.451.3-.386.631-.361.586.227.57.451" transform="translate(-247.559 -120.121)" fill="#fff"/>
              <path id="Trazado_615200" data-name="Trazado 615200" d="M345.538,152.374a2.635,2.635,0,1,0,2.8-2.2,2.522,2.522,0,0,0-2.8,2.2" transform="translate(-280.157 -122.821)" fill="#fff"/>
              <path id="Trazado_615201" data-name="Trazado 615201" d="M352.727,153.46a1.691,1.691,0,1,1-1.479-2.22,1.917,1.917,0,0,1,1.479,2.22" transform="translate(-283.338 -123.692)" fill="#91b8cd"/>
              <path id="Trazado_615202" data-name="Trazado 615202" d="M354.31,156.058a1.2,1.2,0,1,1-1.051-1.577,1.362,1.362,0,0,1,1.051,1.577" transform="translate(-285.395 -126.325)" fill="#151514"/>
              <path id="Trazado_615203" data-name="Trazado 615203" d="M360.16,153.447c-.017.223-.3.386-.629.361s-.586-.227-.569-.451.3-.386.63-.361.586.227.569.451" transform="translate(-291.065 -125.119)" fill="#fff"/>
              <path id="Trazado_615204" data-name="Trazado 615204" d="M307,190.441a16.325,16.325,0,0,1-1.481,2.353,10.555,10.555,0,0,1-1.639,1.754c-1.565,1.291-3.541,1.821-5.5-.628a14.193,14.193,0,0,1-1.936-3.5c-.24-.593-.48-1.245-.716-1.96,0,0,9.529,3.1,11.275,1.984" transform="translate(-239.701 -153.927)" fill="#4f2f21"/>
              <path id="Trazado_615205" data-name="Trazado 615205" d="M307,190.441a16.325,16.325,0,0,1-1.481,2.353c-3.186.642-6.943-1.134-9.077-2.378-.24-.593-.48-1.245-.716-1.96,0,0,9.529,3.1,11.275,1.984" transform="translate(-239.701 -153.927)" fill="#fff"/>
              <path id="Trazado_615206" data-name="Trazado 615206" d="M315.363,216.354c-1.565,1.291-3.541,1.821-5.5-.628a5.751,5.751,0,0,1,5.5.628" transform="translate(-251.181 -175.732)" fill="#c96f68"/>
              <path id="Trazado_615207" data-name="Trazado 615207" d="M275.773,86.573a.087.087,0,0,0-.061.062c-1.125-.591-2.592-.135-3.681.328a11.893,11.893,0,0,0-4.03,2.55,5.648,5.648,0,0,0-1.622,4.52,12.115,12.115,0,0,0,.563,2.529,17.56,17.56,0,0,1,.63,3.3c.008.07.1.138.16.066a9.955,9.955,0,0,0,1.594-4.847,4.657,4.657,0,0,0,.521,1.594c.166.306.421.317.532-.018a2.794,2.794,0,0,0,.072-.848,11.349,11.349,0,0,1,.142-1.718,6.937,6.937,0,0,1,.629-2.2c-.028.79.418,1.889,1.2,1.64,1.053-.334,1.083-2.051,1.143-2.991.267.094.443.333.756.365a1.3,1.3,0,0,0,.912-.4,4.93,4.93,0,0,0,1.416-1.992c.252-.676.218-2.274-.88-1.941" transform="translate(-215.841 -70.987)" fill="#262625"/>
              <path id="Trazado_615208" data-name="Trazado 615208" d="M369.261,100.622a8.274,8.274,0,0,0-2.412-4.436c-.744-.628-2-1.205-2.943-.686a2.612,2.612,0,0,0-.766,2.52.078.078,0,0,0,0,.085,20,20,0,0,0,1.415,1.772,10.058,10.058,0,0,1,1.309,2.235,12.447,12.447,0,0,1,1.2,5.205.1.1,0,0,0,.175.047,20.508,20.508,0,0,0,1.189-1.939,4.887,4.887,0,0,0,.392-1.625,1.512,1.512,0,0,0,.134.5.094.094,0,0,0,.128.034c.39-.251.434-.821.471-1.241a8.374,8.374,0,0,0-.3-2.469" transform="translate(-294.384 -78.252)" fill="#262625"/>
              <path id="Trazado_615209" data-name="Trazado 615209" d="M312.012,64.211a4.721,4.721,0,0,1-2.842,1.466,4.582,4.582,0,0,0,2-3.151.1.1,0,0,0-.12-.092,2.379,2.379,0,0,0-.507.3,2.49,2.49,0,0,1-.91.306,3.213,3.213,0,0,1-2.108-.379,16.925,16.925,0,0,1-3-2.47,10.976,10.976,0,0,0-6.122-2.965,9.953,9.953,0,0,0-3.055.184c-.163.032-.325.071-.486.114a11.447,11.447,0,0,0-2.749,1.107.422.422,0,0,0-.041.024c-.113.062-.225.129-.34.2a10.289,10.289,0,0,0-.888.6c-.075.054-.148.113-.22.171a6.1,6.1,0,0,0-.961.972,6.86,6.86,0,0,0-.847,1.349c-.028.056-.052.114-.075.173,0,.008-.006.017-.009.024a2.755,2.755,0,0,0-.19.766c-.024.315.054.629.049.946a.4.4,0,0,0-.039.039c-.068.083.03.2.105.156a.1.1,0,0,0,.1-.041.816.816,0,0,0,.049-.088c.437-.263,1.179.366,1.449.64a8.518,8.518,0,0,1,.948,1.274,15.687,15.687,0,0,0,2.168,2.584,6.059,6.059,0,0,0,2.78,1.289,24.254,24.254,0,0,0,3.922.627,12.353,12.353,0,0,0,5.21-.612h0c.052-.017.1-.036.156-.054l.154-.056h0c.034-.011.067-.024.1-.038s.094-.036.139-.056a12.275,12.275,0,0,0,1.338-.619,12.618,12.618,0,0,0,2.269-1.488c.071-.058.141-.12.208-.182s.117-.107.173-.161.088-.088.133-.133c.019-.019.038-.039.056-.06.37-.387.691-.818,1.053-1.212a9.586,9.586,0,0,0,1.089-1.342.093.093,0,0,0-.146-.113" transform="translate(-233.852 -47.286)" fill="#3b3b38"/>
              <path id="Trazado_615210" data-name="Trazado 615210" d="M306.718,79.385c-.045.021-.092.039-.139.056s-.068.026-.1.038h0l-.154.056c-.051.019-.1.038-.156.054h0a5.81,5.81,0,0,1-.572-.146,26.193,26.193,0,0,1-7-3.224,46.329,46.329,0,0,0-4.968-3.266,7.163,7.163,0,0,0-4.014-.944c0-.007.005-.017.009-.024.023-.058.047-.116.075-.173a6.5,6.5,0,0,1,3.224.6A28.775,28.775,0,0,1,298,75.577,26.862,26.862,0,0,0,304.843,79a10.86,10.86,0,0,0,1.43.389,15.686,15.686,0,0,1-5.131-4.51,14.725,14.725,0,0,0-5.756-4.557,13.94,13.94,0,0,0-3.667-.809c-.071-.008-.143-.013-.216-.019.071-.058.144-.116.22-.171.306.03.61.069.914.116a12.579,12.579,0,0,1,3.35.933,16,16,0,0,1,5.379,4.482c1.5,1.775,3.114,3.709,5.353,4.534" transform="translate(-234.731 -57.15)"/>
              <path id="Trazado_615211" data-name="Trazado 615211" d="M323.513,73.571c-.067.062-.137.124-.208.182a9.757,9.757,0,0,1-1.382-.12c-2.74-.426-5.075-2.076-7.229-3.735-1.068-.824-2.111-1.678-3.142-2.549a8.285,8.285,0,0,0-3.47-1.993,8.76,8.76,0,0,0-2.492-.165c.114-.069.227-.137.34-.2a8.077,8.077,0,0,1,1.514.062,7.056,7.056,0,0,1,3.39,1.473,76.525,76.525,0,0,0,6.657,5.111,11.86,11.86,0,0,0,3.853,1.7,11.487,11.487,0,0,0,2.17.229" transform="translate(-247.712 -53.625)"/>
              <path id="Trazado_615212" data-name="Trazado 615212" d="M337.425,67.87c-.019.021-.038.041-.056.06-.045.045-.088.09-.133.133a4.663,4.663,0,0,1-2.049-.381c-2.22-.961-3.491-3.091-5-4.865a12.168,12.168,0,0,0-6.011-3.9,14.14,14.14,0,0,0-1.909-.4c.161-.043.323-.083.486-.114a12.886,12.886,0,0,1,4.609,1.7,11.569,11.569,0,0,1,2.587,2.153c.788.888,1.477,1.858,2.245,2.765a8.65,8.65,0,0,0,2.8,2.372,5.033,5.033,0,0,0,2.433.479" transform="translate(-261.261 -48.279)"/>
              <g id="Grupo_876234" data-name="Grupo 876234" transform="translate(53.79 25.774)" opacity="0.4">
                <g id="Grupo_876233" data-name="Grupo 876233">
                  <g id="Grupo_876232" data-name="Grupo 876232" clip-path="url(#clip-path-14)">
                    <path id="Trazado_615213" data-name="Trazado 615213" d="M289.335,142.325a14.467,14.467,0,0,0-2.64-.523,21.937,21.937,0,0,0-1.855,2.612,12.047,12.047,0,0,0-1.038,2.128,4.438,4.438,0,0,0,2.893,1.452c.717-1.946,1.317-4.137,2.64-5.669" transform="translate(-283.803 -141.802)" fill="#ebeced"/>
                  </g>
                </g>
              </g>
              <g id="Grupo_876237" data-name="Grupo 876237" transform="translate(65.605 27.436)" opacity="0.4">
                <g id="Grupo_876236" data-name="Grupo 876236">
                  <g id="Grupo_876235" data-name="Grupo 876235" clip-path="url(#clip-path-15)">
                    <path id="Trazado_615214" data-name="Trazado 615214" d="M351.856,150.925a14.438,14.438,0,0,0-2.678-.266,21.973,21.973,0,0,0-1.593,2.78,12.02,12.02,0,0,0-.827,2.219,4.437,4.437,0,0,0,3.02,1.165c.525-2.006.91-4.245,2.079-5.9" transform="translate(-346.758 -150.659)" fill="#ebeced"/>
                  </g>
                </g>
              </g>
              <path id="Trazado_615215" data-name="Trazado 615215" d="M296.327,145.314c1.254-2.474,1.156-3.619,1.141-3.741l-.028-.22-.192-.11a11.144,11.144,0,0,0-8.091-.841,10.424,10.424,0,0,0-1.38.511l.015-.077-1.481-.149v-.067l-.181-.136a10.437,10.437,0,0,0-1.268-.822,11.146,11.146,0,0,0-8.081-.933l-.211.066L276.5,139c-.042.116-.386,1.212.3,3.9a3.543,3.543,0,0,0,1.836,2.265,6.409,6.409,0,0,0,2.522.714c3,.1,3.723-1.254,4.2-2.147l.078-.145a7.724,7.724,0,0,0,.67-1.622,1.844,1.844,0,0,1,1.327.217,7.6,7.6,0,0,0,.31,1.927c.015.051.03.1.045.159.274.976.688,2.45,3.636,3.007a6.414,6.414,0,0,0,2.617-.15,3.542,3.542,0,0,0,2.284-1.813M281.193,145a5.588,5.588,0,0,1-2.13-.6,2.689,2.689,0,0,1-1.4-1.708,8.782,8.782,0,0,1-.365-3.172,10.4,10.4,0,0,1,7.144.928,9.62,9.62,0,0,1,.963.607,6.215,6.215,0,0,1-.74,2.117l-.082.153c-.442.824-.943,1.758-3.386,1.68m12.6,1.28a5.59,5.59,0,0,1-2.21.129c-2.4-.454-2.688-1.474-2.941-2.374q-.024-.086-.048-.167a6.214,6.214,0,0,1-.264-2.227,9.534,9.534,0,0,1,1.072-.384,10.4,10.4,0,0,1,7.175.643,8.781,8.781,0,0,1-1.044,3.017,2.69,2.69,0,0,1-1.741,1.363" transform="translate(-223.98 -113.231)" fill="#2f2f2f"/>
              <path id="Trazado_615216" data-name="Trazado 615216" d="M305.365,404.43a.165.165,0,0,1-.31.1l-.867-2.717a.165.165,0,0,1,.311-.1Z" transform="translate(-246.568 -327.085)" fill="#5d687b"/>
              <path id="Trazado_615217" data-name="Trazado 615217" d="M273.326,306.716a.62.62,0,1,1-1.181.377l-.674-2.112a.62.62,0,1,1,1.181-.377Z" transform="translate(-219.972 -247.925)" fill="#e6b335"/>
              <path id="Trazado_615218" data-name="Trazado 615218" d="M278.662,321.837a44.315,44.315,0,0,1,1.809,7.6,5.206,5.206,0,0,1-.08,2.49l-.517.165a4.742,4.742,0,0,1-1.4-1.787c-.036-.064-.073-.129-.109-.2a44.349,44.349,0,0,1-2.933-7.246c-.036-.114-.072-.229-.108-.341-.119-.38-.233-.755-.34-1.124-1.046-3.579-1.578-6.634-1.429-8.034l1.134-.362a11.281,11.281,0,0,1,1.406,2.288,44.276,44.276,0,0,1,2.084,5.089c.127.363.252.735.375,1.113.037.113.073.227.109.342" transform="translate(-221.668 -255.1)" fill="#c2711f"/>
              <path id="Trazado_615219" data-name="Trazado 615219" d="M284.886,353.408l-3.229,1.031c-.119-.379-.232-.754-.34-1.124l3.195-1.02q.19.545.374,1.113" transform="translate(-227.994 -287.016)" fill="#e7be58"/>
              <path id="Trazado_615220" data-name="Trazado 615220" d="M300.8,403.236l.516-.165a5.2,5.2,0,0,0,.081-2.491l-2.106.672a5.2,5.2,0,0,0,1.509,1.983" transform="translate(-242.596 -326.238)" fill="#ffc639"/>
              <path id="Trazado_615221" data-name="Trazado 615221" d="M280.143,317a.391.391,0,1,1-.746.238l-2.162-6.773a.391.391,0,1,1,.746-.238Z" transform="translate(-224.663 -252.622)" fill="#ffc639"/>
              <path id="Trazado_615222" data-name="Trazado 615222" d="M322.794,261.91s18.256,14.334,10.692,23.491-26.275,1.592-26.275,1.592l1.991-7.763s18.313,6.569,16.522-.2-5.972-7.962-5.972-7.962Z" transform="translate(-249.028 -213.594)" fill="#3f4042"/>
              <path id="Trazado_615223" data-name="Trazado 615223" d="M275.957,345.56a3.6,3.6,0,0,0-1.7-3.035c-1.769-1.062-5.308-2.831-5.308-2.831s-.839,1.227,1.732,2.965c-.768-.18-1.549-.322-2.329-.432a9.3,9.3,0,0,0-3.1-.007,4.338,4.338,0,0,0-1.442.534c-.25.157-.923.474-.938.809-.023.548,1.068.387,1.389.414.581.05,1.144.171,1.719.242l.3.037c-.449-.056-1.163.582-1.4.924-.523.766,1.344.937,1.772,1.023a2.624,2.624,0,0,0-.869.039,1.02,1.02,0,0,0,.419,1.742,12.361,12.361,0,0,0,1.955.068,4.2,4.2,0,0,0-1.159.559c-.4.276-.792,1.257,1.054,1.71,1.01.248,2.065-.287,3.091-.462,1.583-.27,3.465-.574,4.53-1.9a2.649,2.649,0,0,0,.284-2.4" transform="translate(-213.01 -276.78)" fill="#e4ad95"/>
            </g>
          </g>
        </g>
      </g>
    </g>
  </g>
</svg>
