<svg xmlns="http://www.w3.org/2000/svg" xmlns:xlink="http://www.w3.org/1999/xlink" width="72" height="75.196" viewBox="0 0 72 75.196">
  <defs>
    <radialGradient id="radial-gradient" cx="0.707" cy="0.225" r="0.5" gradientUnits="objectBoundingBox">
      <stop offset="0" stop-color="#fcfdff"/>
      <stop offset="1" stop-color="#add8fa"/>
    </radialGradient>
    <filter id="Sustracción_8" x="0" y="20" width="69.687" height="55.196" filterUnits="userSpaceOnUse">
      <feOffset dy="3" input="SourceAlpha"/>
      <feGaussianBlur stdDeviation="3" result="blur"/>
      <feFlood flood-opacity="0.161"/>
      <feComposite operator="in" in2="blur"/>
      <feComposite in="SourceGraphic"/>
    </filter>
    <clipPath id="clip-path">
      <rect id="Rectángulo_327331" data-name="Rectángulo 327331" width="29.106" height="37.054" fill="#03386e"/>
    </clipPath>
  </defs>
  <g id="Grupo_885339" data-name="Grupo 885339" transform="translate(-801.399 -4827.7)">
    <g id="Grupo_876276" data-name="Grupo 876276" transform="translate(525.399 -2492.3)">
      <path id="Trazado_615224" data-name="Trazado 615224" d="M31.5,0A31.5,31.5,0,1,1,0,31.5,31.5,31.5,0,0,1,31.5,0Z" transform="translate(285 7320)" fill="url(#radial-gradient)"/>
      <g transform="matrix(1, 0, 0, 1, 276, 7320)" filter="url(#Sustracción_8)">
        <path id="Sustracción_8-2" data-name="Sustracción 8" d="M8407.5,11782a31.476,31.476,0,0,1-31.5-31.5,31.842,31.842,0,0,1,.514-5.7,38.533,38.533,0,0,0,51.173,29.878A31.38,31.38,0,0,1,8407.5,11782Z" transform="translate(-8367 -11718.8)" fill="#80c7ff"/>
      </g>
    </g>
    <g id="Grupo_876287" data-name="Grupo 876287" transform="translate(826.825 4838.425)">
      <g id="Grupo_876287-2" data-name="Grupo 876287" clip-path="url(#clip-path)">
        <path id="Trazado_615271" data-name="Trazado 615271" d="M15.06,0c.245.057.493.1.734.174a3.723,3.723,0,0,1,2.523,2.2.388.388,0,0,0,.424.286c.711-.015,1.423-.009,2.134,0a2.468,2.468,0,0,1,.573.055.7.7,0,0,1,.606.777c.006.442,0,.885,0,1.363,1.063,0,2.085-.014,3.107.007a5.284,5.284,0,0,1,1.249.154,3.688,3.688,0,0,1,2.69,3.5q.009,12.571,0,25.143a3.415,3.415,0,0,1-2.962,3.319,5.839,5.839,0,0,1-.9.071q-10.69.006-21.38,0a4.084,4.084,0,0,1-2.3-.633A3.206,3.206,0,0,1,0,33.58q.008-5.571,0-11.142Q0,15.582,0,8.727A3.74,3.74,0,0,1,3.877,4.852c.929,0,1.857,0,2.786,0,.117,0,.235-.01.387-.016,0-.43,0-.837,0-1.243,0-.634.245-.907.888-.925.783-.023,1.567-.016,2.351-.007a.376.376,0,0,0,.405-.26A3.928,3.928,0,0,1,13.666.064.945.945,0,0,0,13.829,0ZM22.1,6.647a.344.344,0,0,0-.034.088q-.006.886-.008,1.772c0,.861-.337,1.2-1.209,1.2H8.223c-.858,0-1.172-.318-1.173-1.179,0-.623,0-1.246,0-1.876-.117-.013-.188-.028-.258-.028-1.085,0-2.172-.031-3.254.029A1.917,1.917,0,0,0,1.757,8.654q0,12.426,0,24.851A1.572,1.572,0,0,0,2.95,35.153a3.467,3.467,0,0,0,1,.133q10.6.011,21.2,0a4.3,4.3,0,0,0,.541-.029,1.706,1.706,0,0,0,1.665-1.884q0-12.281,0-24.562c0-.1,0-.193,0-.289a1.9,1.9,0,0,0-1.693-1.864C24.48,6.6,23.3,6.647,22.1,6.647M8.839,7.921H20.258V4.414H18.071c-.748,0-1.008-.2-1.211-.919a2.476,2.476,0,0,0-2.539-1.841,2.544,2.544,0,0,0-2.228,1.928.978.978,0,0,1-1.1.833H8.839Z" transform="translate(0)" fill="#03386e"/>
        <path id="Trazado_615272" data-name="Trazado 615272" d="M119.421,129.01q2.476,0,4.951,0a.92.92,0,0,1,.973.647.868.868,0,0,1-.677,1.091,2.605,2.605,0,0,1-.468.029q-4.771,0-9.541,0a3.4,3.4,0,0,1-.361-.011.877.877,0,0,1,.027-1.751c.312-.019.626-.006.939-.006h4.156" transform="translate(-100.681 -114.455)" fill="#03386e"/>
        <path id="Trazado_615273" data-name="Trazado 615273" d="M119.4,255.93c-1.626,0-3.253,0-4.879,0-.61,0-.984-.3-1.028-.792a.862.862,0,0,1,.7-.955,1.35,1.35,0,0,1,.287-.026q4.952,0,9.9,0a.9.9,0,0,1,1,.826.85.85,0,0,1-.7.913,2.511,2.511,0,0,1-.467.034q-2.4,0-4.807,0" transform="translate(-100.688 -225.487)" fill="#03386e"/>
        <path id="Trazado_615274" data-name="Trazado 615274" d="M119.393,193.436c-1.65,0-3.3,0-4.951,0a.871.871,0,0,1-.96-.893.85.85,0,0,1,.773-.851,1.977,1.977,0,0,1,.216-.01q4.951,0,9.9,0a.883.883,0,1,1,.043,1.754c-1.337.006-2.675,0-4.012,0h-1.012" transform="translate(-100.681 -170.058)" fill="#03386e"/>
        <path id="Trazado_615275" data-name="Trazado 615275" d="M41.911,175.278c.834-.8,1.708-1.639,2.6-2.468a1.474,1.474,0,0,1,.573-.348.866.866,0,0,1,.973.453.81.81,0,0,1-.191,1.047c-.99.951-1.989,1.892-2.984,2.837-.157.149-.308.306-.476.443a.824.824,0,0,1-1.173-.037q-.923-.916-1.816-1.861a.9.9,0,0,1,0-1.271.88.88,0,0,1,1.262.075c.395.37.8.732,1.233,1.13" transform="translate(-34.736 -152.985)" fill="#03386e"/>
        <path id="Trazado_615276" data-name="Trazado 615276" d="M41.917,112.689l2.37-2.255c.131-.124.257-.255.394-.372a.876.876,0,0,1,1.262.058.821.821,0,0,1-.042,1.223q-1.706,1.639-3.434,3.255a.821.821,0,0,1-1.248-.037q-.867-.87-1.716-1.757a.882.882,0,1,1,1.268-1.2c.368.361.748.709,1.146,1.084" transform="translate(-34.765 -97.434)" fill="#03386e"/>
        <path id="Trazado_615277" data-name="Trazado 615277" d="M41.92,237.8c.882-.84,1.779-1.7,2.679-2.549a.876.876,0,0,1,1.114-.2.84.84,0,0,1,.216,1.371q-1.723,1.673-3.484,3.307a.813.813,0,0,1-1.221-.053q-.866-.87-1.717-1.756a.883.883,0,1,1,1.26-1.208c.369.36.75.708,1.153,1.086" transform="translate(-34.765 -208.43)" fill="#03386e"/>
      </g>
    </g>
  </g>
</svg>
